STARTFONT 2.1
FONT -FontForge-Source Code Pro-Book-R-Normal--36-360-72-72-M-220-ISO10646-1
SIZE 36 72 72
FONTBOUNDINGBOX 39 61 -10 -16
COMMENT "Generated by fontforge, http://fontforge.sourceforge.net"
COMMENT "Copyright 2010, 2012 Adobe Systems Incorporated (http://www.adobe.com/), with Reserved Font Name `Source'."
STARTPROPERTIES 41
FOUNDRY "FontForge"
FAMILY_NAME "Source Code Pro"
WEIGHT_NAME "Book"
SLANT "R"
SETWIDTH_NAME "Normal"
ADD_STYLE_NAME ""
PIXEL_SIZE 36
POINT_SIZE 360
RESOLUTION_X 72
RESOLUTION_Y 72
SPACING "M"
AVERAGE_WIDTH 220
CHARSET_REGISTRY "ISO10646"
CHARSET_ENCODING "1"
FONTNAME_REGISTRY ""
CHARSET_COLLECTIONS "ASCII ISOLatin1Encoding ISO8859-2 ISO8859-9 ISO8859-4 ISO10646-1"
FONT_NAME "SourceCodePro-It"
FACE_NAME "Source Code Pro Italic"
COPYRIGHT "Copyright 2010, 2012 Adobe Systems Incorporated (http://www.adobe.com/), with Reserved Font Name `Source'."
FONT_VERSION "1.050;PS 1.000;hotconv 16.6.51;makeotf.lib2.5.65220"
FONT_ASCENT 27
FONT_DESCENT 9
UNDERLINE_POSITION -4
UNDERLINE_THICKNESS 2
X_HEIGHT 17
CAP_HEIGHT 23
RAW_ASCENT 750
RAW_DESCENT 250
ITALIC_ANGLE 5056
NORM_SPACE 22
RELATIVE_WEIGHT 40
RELATIVE_SETWIDTH 50
SUPERSCRIPT_X 2
SUPERSCRIPT_Y 12
SUPERSCRIPT_SIZE 21
SUBSCRIPT_X 0
SUBSCRIPT_Y 2
SUBSCRIPT_SIZE 21
FIGURE_WIDTH 22
AVG_LOWERCASE_WIDTH 220
AVG_UPPERCASE_WIDTH 220
ENDPROPERTIES
CHARS 1269
STARTCHAR space
ENCODING 32
SWIDTH 600 0
DWIDTH 22 0
BBX 1 1 0 0
BITMAP
00
ENDCHAR
STARTCHAR exclam
ENCODING 33
SWIDTH 600 0
DWIDTH 22 0
BBX 8 24 7 0
BITMAP
07
07
06
0E
0E
0E
0C
0C
0C
1C
1C
18
18
18
18
30
00
00
00
70
F8
F8
F0
E0
ENDCHAR
STARTCHAR quotedbl
ENCODING 34
SWIDTH 600 0
DWIDTH 22 0
BBX 14 12 6 13
BITMAP
383C
7838
7878
7878
7078
7070
7070
6070
E060
E060
E060
C0C0
ENDCHAR
STARTCHAR numbersign
ENCODING 35
SWIDTH 600 0
DWIDTH 22 0
BBX 18 23 2 0
BITMAP
00C180
008100
018300
018300
010600
030600
1FFFC0
1FFF80
260C00
060C00
060C00
0C1800
0C1800
0C1800
7FFF00
FFFE00
183000
102000
306000
306000
204000
60C000
60C000
ENDCHAR
STARTCHAR dollar
ENCODING 36
SWIDTH 600 0
DWIDTH 22 0
BBX 17 32 2 -4
BITMAP
001800
003000
003000
003000
003000
01F800
07FC00
0FFE00
1E0F00
1C0380
1C0200
1C0000
1E0000
0F0000
07C000
03F000
00F800
003C00
001E00
000E00
000600
400600
E00E00
781E00
3FFC00
1FF800
07F000
030000
030000
060000
060000
060000
ENDCHAR
STARTCHAR percent
ENCODING 37
SWIDTH 600 0
DWIDTH 22 0
BBX 23 24 -1 0
BITMAP
078000
1FC000
38E004
30600E
60601C
606038
606070
60E0C0
60C180
71C300
3F8000
1E0000
0003E0
0007F0
000E30
019C38
031818
063818
1C3038
383030
703830
E018E0
401FC0
000F80
ENDCHAR
STARTCHAR ampersand
ENCODING 38
SWIDTH 600 0
DWIDTH 22 0
BBX 20 24 1 0
BITMAP
007800
01FC00
03FE00
038E00
070600
070600
060C00
061C00
063800
07F000
07C000
078070
1F8060
3980E0
71C0C0
E0E180
E0E380
C07700
C03E00
E03C00
F07F00
FFF7C0
7FE3C0
1F8080
ENDCHAR
STARTCHAR quotesingle
ENCODING 39
SWIDTH 600 0
DWIDTH 22 0
BBX 5 12 10 13
BITMAP
38
78
78
78
70
70
70
70
60
60
E0
C0
ENDCHAR
STARTCHAR parenleft
ENCODING 40
SWIDTH 600 0
DWIDTH 22 0
BBX 13 33 7 -6
BITMAP
0010
0038
00F0
01E0
0380
0700
0700
0E00
1C00
1800
3800
3000
7000
7000
6000
E000
E000
E000
E000
E000
E000
E000
E000
E000
6000
6000
7000
3000
3800
1800
1C00
0E00
0400
ENDCHAR
STARTCHAR parenright
ENCODING 41
SWIDTH 600 0
DWIDTH 22 0
BBX 13 33 1 -7
BITMAP
0100
0380
01C0
00E0
0060
0070
0030
0038
0038
0038
0018
0018
0018
0018
0018
0018
0018
0038
0038
0030
0070
0070
0060
00E0
01C0
01C0
0380
0700
0E00
3C00
7800
F000
4000
ENDCHAR
STARTCHAR asterisk
ENCODING 42
SWIDTH 600 0
DWIDTH 22 0
BBX 15 17 4 4
BITMAP
0080
0180
0180
0180
0180
C386
F33E
7FFC
3FF0
0FC0
0F80
0F80
1DC0
38C0
70E0
E060
4030
ENDCHAR
STARTCHAR plus
ENCODING 43
SWIDTH 600 0
DWIDTH 22 0
BBX 15 17 3 3
BITMAP
0180
0180
0180
0180
0180
0180
0180
FFFE
FFFE
FFFE
0180
0180
0180
0180
0180
0180
0180
ENDCHAR
STARTCHAR comma
ENCODING 44
SWIDTH 600 0
DWIDTH 22 0
BBX 9 13 3 -8
BITMAP
0700
0F80
0F80
0F80
0F80
0380
0380
0700
0700
1E00
3C00
F000
4000
ENDCHAR
STARTCHAR hyphen
ENCODING 45
SWIDTH 600 0
DWIDTH 22 0
BBX 15 3 3 10
BITMAP
FFFE
FFFE
FFFE
ENDCHAR
STARTCHAR period
ENCODING 46
SWIDTH 600 0
DWIDTH 22 0
BBX 6 6 6 0
BITMAP
38
7C
FC
FC
F8
70
ENDCHAR
STARTCHAR slash
ENCODING 47
SWIDTH 600 0
DWIDTH 22 0
BBX 21 31 0 -5
BITMAP
000038
000030
000070
0000E0
0000C0
0001C0
000180
000380
000300
000700
000E00
000C00
001C00
001800
003800
007000
006000
00E000
00C000
01C000
018000
038000
070000
060000
0E0000
0C0000
1C0000
380000
300000
700000
E00000
ENDCHAR
STARTCHAR zero
ENCODING 48
SWIDTH 600 0
DWIDTH 22 0
BBX 18 23 2 0
BITMAP
00F800
03FE00
07FF00
0F0700
1C0380
380380
380180
7001C0
7001C0
60C1C0
E1E180
E1E180
E1E180
E1C380
E00380
E00700
E00700
E00E00
701E00
783C00
3FF800
1FF000
0FC000
ENDCHAR
STARTCHAR one
ENCODING 49
SWIDTH 600 0
DWIDTH 22 0
BBX 16 23 1 0
BITMAP
001C
01FC
03FC
001C
0018
0018
0038
0038
0038
0030
0070
0070
0070
0070
0060
00E0
00E0
00E0
00E0
00C0
7FFF
7FFF
FFFF
ENDCHAR
STARTCHAR two
ENCODING 50
SWIDTH 600 0
DWIDTH 22 0
BBX 17 23 1 0
BITMAP
00FC00
03FE00
07FF00
0F0780
1C0380
080380
000380
000380
000300
000700
000600
000C00
001800
003000
006000
01C000
038000
070000
1E0000
3C0000
7FFF80
FFFF80
FFFF80
ENDCHAR
STARTCHAR three
ENCODING 51
SWIDTH 600 0
DWIDTH 22 0
BBX 18 23 1 0
BITMAP
00FC00
03FF00
07FF80
0F0780
0403C0
0001C0
000180
000380
000700
001E00
01F800
01F800
021E00
000700
000700
000300
000300
400700
E00700
781F00
3FFE00
1FFC00
07F000
ENDCHAR
STARTCHAR four
ENCODING 52
SWIDTH 600 0
DWIDTH 22 0
BBX 18 23 1 0
BITMAP
0003C0
000780
000F80
001F80
003B80
007300
00E300
01C700
038700
070700
0E0600
1C0600
380E00
700E00
FFFFC0
FFFFC0
FFFFC0
000C00
001C00
001C00
001C00
001800
003800
ENDCHAR
STARTCHAR five
ENCODING 53
SWIDTH 600 0
DWIDTH 22 0
BBX 18 23 1 0
BITMAP
03FFC0
07FFC0
07FFC0
070000
060000
0E0000
0E0000
0C0000
0CFC00
1FFE00
1FFF00
080F80
000380
000380
000380
000380
000380
400700
E00F00
781E00
3FFC00
1FF800
07E000
ENDCHAR
STARTCHAR six
ENCODING 54
SWIDTH 600 0
DWIDTH 22 0
BBX 18 23 2 0
BITMAP
007E00
01FF00
07FF80
0F83C0
1E0080
1C0000
380000
380000
700000
71F800
67FE00
6FFE00
FE0F00
F80700
F00300
E00300
E00300
600700
700E00
781E00
3FFC00
1FF800
07E000
ENDCHAR
STARTCHAR seven
ENCODING 55
SWIDTH 600 0
DWIDTH 22 0
BBX 17 23 4 0
BITMAP
FFFF80
FFFF80
FFFF00
000E00
001C00
003800
003000
007000
00E000
01C000
018000
038000
070000
070000
0E0000
0E0000
0C0000
1C0000
1C0000
380000
380000
380000
380000
ENDCHAR
STARTCHAR eight
ENCODING 56
SWIDTH 600 0
DWIDTH 22 0
BBX 17 23 2 0
BITMAP
00FC00
03FE00
07FF00
0F0780
0E0380
0C0180
0C0180
0C0380
0E0300
070600
03DC00
0FF800
187C00
301E00
600E00
E00700
E00700
E00700
F00E00
781E00
7FFC00
3FF800
0FE000
ENDCHAR
STARTCHAR nine
ENCODING 57
SWIDTH 600 0
DWIDTH 22 0
BBX 17 23 2 0
BITMAP
01F800
07FC00
0FFF00
1E0F00
380380
380380
300180
700180
700380
700780
3C1F80
3FFF80
1FF380
07C380
000300
000700
000F00
000E00
C03C00
E0F800
FFF000
3FE000
1F8000
ENDCHAR
STARTCHAR colon
ENCODING 58
SWIDTH 600 0
DWIDTH 22 0
BBX 8 19 6 0
BITMAP
0F
1F
1F
1F
1F
0E
00
00
00
00
00
00
00
38
7C
FC
FC
F8
70
ENDCHAR
STARTCHAR semicolon
ENCODING 59
SWIDTH 600 0
DWIDTH 22 0
BBX 11 27 3 -8
BITMAP
01E0
03E0
03E0
03E0
03E0
01C0
0000
0000
0000
0000
0000
0000
0000
0000
0700
0F80
0F80
0F80
0F80
0380
0380
0700
0700
1E00
3C00
F000
4000
ENDCHAR
STARTCHAR less
ENCODING 60
SWIDTH 600 0
DWIDTH 22 0
BBX 14 21 4 1
BITMAP
0004
000C
003C
0078
01F0
03C0
0F80
1E00
7C00
F000
E000
F000
7C00
1E00
0F80
03C0
01F0
0078
003C
000C
0004
ENDCHAR
STARTCHAR equal
ENCODING 61
SWIDTH 600 0
DWIDTH 22 0
BBX 15 11 3 6
BITMAP
FFFE
FFFE
FFFE
0000
0000
0000
0000
0000
FFFE
FFFE
FFFE
ENDCHAR
STARTCHAR greater
ENCODING 62
SWIDTH 600 0
DWIDTH 22 0
BBX 13 21 4 1
BITMAP
8000
C000
F000
7800
3E00
0F00
07C0
03E0
00F8
0078
0018
0078
00F8
03E0
07C0
0F00
3E00
7800
F000
C000
8000
ENDCHAR
STARTCHAR question
ENCODING 63
SWIDTH 600 0
DWIDTH 22 0
BBX 13 24 6 0
BITMAP
07C0
1FE0
3FF0
7078
E038
0038
0030
0070
00E0
01C0
0380
0E00
1C00
1800
3800
3800
0000
0000
0000
7000
F800
F800
F800
7000
ENDCHAR
STARTCHAR at
ENCODING 64
SWIDTH 600 0
DWIDTH 22 0
BBX 20 28 1 -5
BITMAP
003F00
00FFC0
03C1E0
070060
0E0060
1C0030
180030
380070
300060
7003E0
601FE0
607C60
E0E0E0
C1C0C0
C180C0
C381C0
C383C0
C186C0
C1FC80
C0F880
C00000
E00000
600000
700000
380400
1C0E00
0FFC00
03F000
ENDCHAR
STARTCHAR A
ENCODING 65
SWIDTH 600 0
DWIDTH 22 0
BBX 19 24 -1 0
BITMAP
000700
000F00
000F00
001B80
001B80
003380
007180
006180
00E180
00C180
01C180
0181C0
0381C0
0301C0
07FFC0
07FFC0
0FFFC0
0E00C0
1C00C0
1C00E0
3800E0
7800E0
7000E0
F000E0
ENDCHAR
STARTCHAR B
ENCODING 66
SWIDTH 600 0
DWIDTH 22 0
BBX 19 24 1 0
BITMAP
07FE00
07FF80
07FFC0
0603C0
0E01E0
0E00E0
0E00E0
0C01C0
0C0380
1C3F80
1FFE00
1FFC00
1FFF00
180780
380180
3801C0
3801C0
3801C0
300380
700380
700F80
7FFF00
7FFC00
FFF000
ENDCHAR
STARTCHAR C
ENCODING 67
SWIDTH 600 0
DWIDTH 22 0
BBX 18 24 3 0
BITMAP
007C00
01FF00
07FF80
0F8380
1E01C0
3C0100
380000
780000
700000
700000
E00000
E00000
E00000
E00000
E00000
E00000
E00000
E00000
F00000
700400
7C1E00
3FFC00
1FF800
07E000
ENDCHAR
STARTCHAR D
ENCODING 68
SWIDTH 600 0
DWIDTH 22 0
BBX 19 24 1 0
BITMAP
0FF800
0FFE00
0FFF80
0E0F80
0E03C0
1C01C0
1C00E0
1C00E0
1C00E0
1800E0
3800E0
3800E0
3800E0
3800E0
3001C0
7001C0
7001C0
700380
700780
600F00
E03E00
FFFC00
FFF000
FFC000
ENDCHAR
STARTCHAR E
ENCODING 69
SWIDTH 600 0
DWIDTH 22 0
BBX 19 24 2 0
BITMAP
07FFE0
07FFE0
0FFFE0
0E0000
0E0000
0E0000
0C0000
1C0000
1C0000
1C0000
1FFF00
1FFE00
3FFE00
380000
380000
380000
300000
700000
700000
700000
700000
7FFF00
FFFE00
FFFE00
ENDCHAR
STARTCHAR F
ENCODING 70
SWIDTH 600 0
DWIDTH 22 0
BBX 19 24 3 0
BITMAP
0FFFE0
0FFFE0
0FFFE0
0E0000
0E0000
1C0000
1C0000
1C0000
1C0000
180000
3FFE00
3FFE00
3FFC00
380000
380000
700000
700000
700000
700000
700000
600000
E00000
E00000
E00000
ENDCHAR
STARTCHAR G
ENCODING 71
SWIDTH 600 0
DWIDTH 22 0
BBX 19 24 2 0
BITMAP
007E00
01FF00
03FF80
0FC1C0
0F00E0
1E0080
3C0000
380000
700000
700000
700000
E00000
E03FC0
E03F80
E03F80
E00380
E00380
F00300
700300
780700
3C0F00
3FFF00
0FFC00
03F000
ENDCHAR
STARTCHAR H
ENCODING 72
SWIDTH 600 0
DWIDTH 22 0
BBX 20 24 1 0
BITMAP
0E0070
0E0070
0E0070
0C0070
1C00E0
1C00E0
1C00E0
1C00E0
1800E0
3801C0
3FFFC0
3FFFC0
3FFFC0
3801C0
700180
700380
700380
700380
700380
600300
E00700
E00700
E00700
E00700
ENDCHAR
STARTCHAR I
ENCODING 73
SWIDTH 600 0
DWIDTH 22 0
BBX 20 24 1 0
BITMAP
07FFF0
07FFE0
07FFE0
083800
003800
003800
003000
007000
007000
007000
007000
006000
00E000
00E000
00E000
00E000
00C000
01C000
01C000
01C000
018000
7FFE00
FFFE00
FFFE00
ENDCHAR
STARTCHAR J
ENCODING 74
SWIDTH 600 0
DWIDTH 22 0
BBX 18 24 1 0
BITMAP
03FFC0
03FFC0
07FFC0
0001C0
0001C0
000180
000380
000380
000380
000380
000300
000700
000700
000700
000700
000E00
000E00
000E00
401C00
E01C00
F07800
7FF800
3FF000
0FC000
ENDCHAR
STARTCHAR K
ENCODING 75
SWIDTH 600 0
DWIDTH 22 0
BBX 20 24 2 0
BITMAP
0E0070
0E00E0
0E01C0
0C0380
1C0700
1C0E00
1C1C00
1C3800
187000
38E000
39E000
3BE000
3F7000
3E7000
7C3800
783800
703800
701C00
601C00
E00E00
E00E00
E00F00
E00700
C00780
ENDCHAR
STARTCHAR L
ENCODING 76
SWIDTH 600 0
DWIDTH 22 0
BBX 15 24 4 0
BITMAP
0E00
0E00
0E00
0C00
1C00
1C00
1C00
1C00
1800
3800
3800
3800
3800
3000
7000
7000
7000
7000
6000
E000
E000
FFFE
FFFC
FFFC
ENDCHAR
STARTCHAR M
ENCODING 77
SWIDTH 600 0
DWIDTH 22 0
BBX 20 24 1 0
BITMAP
0F0070
0F00F0
0F01F0
0F01F0
1F03E0
1F0360
1B0760
1B86E0
1B8EE0
398CC0
399CC0
3999C0
31B9C0
31B1C0
71F180
71E180
70C380
600380
600380
E00300
E00300
E00700
C00700
C00700
ENDCHAR
STARTCHAR N
ENCODING 78
SWIDTH 600 0
DWIDTH 22 0
BBX 20 24 1 0
BITMAP
0F0070
0F0070
0F0070
0F8060
0D80E0
0D80E0
1D80E0
1DC0E0
18C0C0
18C0C0
18E1C0
3861C0
3861C0
387180
303180
303380
703B80
703B80
701B00
601B00
601F00
E00F00
E00F00
E00E00
ENDCHAR
STARTCHAR O
ENCODING 79
SWIDTH 600 0
DWIDTH 22 0
BBX 19 24 1 0
BITMAP
007E00
01FF00
07FF80
0F83C0
0F01E0
1C00E0
3C00E0
3800E0
380060
700060
7000E0
7000E0
6000E0
6000E0
E000E0
E001C0
6001C0
700380
700780
780F00
3C1F00
3FFC00
0FF800
07E000
ENDCHAR
STARTCHAR P
ENCODING 80
SWIDTH 600 0
DWIDTH 22 0
BBX 19 24 2 0
BITMAP
0FFE00
0FFF80
0FFFC0
0E03C0
0E01E0
1C00E0
1C00E0
1C00C0
1C01C0
1803C0
180F80
3FFF00
3FFE00
3FF800
300000
300000
700000
700000
700000
700000
600000
E00000
E00000
E00000
ENDCHAR
STARTCHAR Q
ENCODING 81
SWIDTH 600 0
DWIDTH 22 0
BBX 19 30 1 -6
BITMAP
007E00
01FF00
07FF80
0F83C0
0E01E0
1C00E0
3C00E0
3800E0
380060
700060
7000E0
7000E0
6000E0
6000E0
E000E0
E001C0
6001C0
7003C0
700780
780F00
3C1F00
3FFE00
1FF800
07F000
018000
01C000
01E000
00FF80
007F80
001F00
ENDCHAR
STARTCHAR R
ENCODING 82
SWIDTH 600 0
DWIDTH 22 0
BBX 19 24 1 0
BITMAP
07FE00
07FF80
0FFFC0
0E03C0
0E01E0
0E00E0
0E00E0
1C00E0
1C01C0
1C03C0
1C0F80
1FFF00
3FFE00
3FF000
387000
383800
383800
303800
701C00
701C00
700E00
700E00
600E00
E00700
ENDCHAR
STARTCHAR S
ENCODING 83
SWIDTH 600 0
DWIDTH 22 0
BBX 18 24 1 0
BITMAP
00FC00
03FF00
07FF80
0783C0
0F01C0
0E0080
0E0000
0E0000
070000
078000
03E000
01F800
007C00
001E00
000F00
000700
000300
000300
600700
F00700
7C1F00
3FFE00
1FFC00
07F000
ENDCHAR
STARTCHAR T
ENCODING 84
SWIDTH 600 0
DWIDTH 22 0
BBX 19 24 4 0
BITMAP
FFFFE0
FFFFC0
FFFFC0
01C000
01C000
01C000
018000
038000
038000
038000
038000
030000
070000
070000
070000
070000
060000
0E0000
0E0000
0E0000
0E0000
0C0000
1C0000
1C0000
ENDCHAR
STARTCHAR U
ENCODING 85
SWIDTH 600 0
DWIDTH 22 0
BBX 19 24 2 0
BITMAP
1C00E0
1C00E0
1C00E0
1800C0
3800C0
3801C0
3801C0
3801C0
300180
700380
700380
700380
700380
600300
E00700
E00700
E00700
E00F00
E00E00
701E00
783C00
3FF800
3FF000
0FC000
ENDCHAR
STARTCHAR V
ENCODING 86
SWIDTH 600 0
DWIDTH 22 0
BBX 19 24 4 0
BITMAP
E001E0
6001C0
600380
700380
700700
700700
700E00
700E00
701C00
701C00
703800
303800
307000
307000
30E000
38E000
39C000
39C000
3B8000
3B0000
3F0000
1E0000
1E0000
1C0000
ENDCHAR
STARTCHAR W
ENCODING 87
SWIDTH 600 0
DWIDTH 22 0
BBX 21 24 2 0
BITMAP
700038
700038
700030
700070
700070
700060
700060
70E0E0
60E0E0
61E0C0
61E1C0
61F1C0
633180
633380
E73380
E63300
EE3300
EC3700
EC3600
F83600
D83600
F83E00
F03C00
F03C00
ENDCHAR
STARTCHAR X
ENCODING 88
SWIDTH 600 0
DWIDTH 22 0
BBX 22 24 0 0
BITMAP
07003C
070078
038070
0380E0
0381C0
01C3C0
01C380
00E700
00EE00
00EC00
007C00
007800
00F800
00F800
01DC00
039C00
078E00
070E00
0E0E00
1C0700
3C0700
380380
700380
E003C0
ENDCHAR
STARTCHAR Y
ENCODING 89
SWIDTH 600 0
DWIDTH 22 0
BBX 19 24 4 0
BITMAP
E001E0
E001C0
700380
700700
700F00
300E00
381C00
383C00
383800
1C7000
1C7000
1CE000
0DC000
0FC000
0F8000
070000
070000
060000
0E0000
0E0000
0E0000
0C0000
1C0000
1C0000
ENDCHAR
STARTCHAR Z
ENCODING 90
SWIDTH 600 0
DWIDTH 22 0
BBX 20 24 1 0
BITMAP
0FFFF0
0FFFF0
0FFFF0
0001E0
0001C0
000380
000700
000E00
001C00
003C00
007800
007000
00E000
01C000
038000
070000
0F0000
1E0000
1C0000
380000
700000
FFFF80
FFFF80
FFFF80
ENDCHAR
STARTCHAR bracketleft
ENCODING 91
SWIDTH 600 0
DWIDTH 22 0
BBX 16 32 5 -6
BITMAP
03FF
07FE
0700
0600
0600
0600
0600
0E00
0C00
0C00
0C00
0C00
1C00
1800
1800
1800
1800
3800
3000
3000
3000
3000
7000
6000
6000
6000
6000
E000
C000
C000
FFC0
FF80
ENDCHAR
STARTCHAR backslash
ENCODING 92
SWIDTH 600 0
DWIDTH 22 0
BBX 8 31 7 -5
BITMAP
C0
C0
E0
E0
60
60
60
60
70
30
30
30
30
38
38
18
18
18
18
1C
0C
0C
0C
0C
0E
0E
06
06
06
06
07
ENDCHAR
STARTCHAR bracketright
ENCODING 93
SWIDTH 600 0
DWIDTH 22 0
BBX 16 32 1 -6
BITMAP
03FF
07FE
0006
0006
0006
000C
000C
000C
000C
000C
001C
0018
0018
0018
0018
0038
0030
0030
0030
0030
0070
0060
0060
0060
0060
00E0
00C0
00C0
00C0
00C0
FFC0
FF80
ENDCHAR
STARTCHAR asciicircum
ENCODING 94
SWIDTH 600 0
DWIDTH 22 0
BBX 14 14 4 10
BITMAP
0700
0780
0780
0D80
0CC0
1CC0
18E0
1860
3860
3070
7030
6038
6018
E01C
ENDCHAR
STARTCHAR underscore
ENCODING 95
SWIDTH 600 0
DWIDTH 22 0
BBX 18 3 -1 -5
BITMAP
FFFFC0
FFFFC0
FFFF80
ENDCHAR
STARTCHAR grave
ENCODING 96
SWIDTH 600 0
DWIDTH 22 0
BBX 7 8 9 20
BITMAP
20
70
F0
38
38
1C
0E
04
ENDCHAR
STARTCHAR a
ENCODING 97
SWIDTH 600 0
DWIDTH 22 0
BBX 18 18 2 0
BITMAP
01F0C0
07FDC0
0FFF80
1E0F80
3C0780
780380
700380
E00300
E00300
E00700
E00700
E00700
E00F00
E01E00
F87E00
7FFE00
3FCE00
1F8E00
ENDCHAR
STARTCHAR b
ENCODING 98
SWIDTH 600 0
DWIDTH 22 0
BBX 18 26 1 0
BITMAP
070000
070000
070000
070000
060000
0E0000
0E0000
0E0000
0C3E00
0CFF00
1FFF80
1F83C0
1E01C0
1C01C0
1801C0
3801C0
3801C0
3801C0
3001C0
300380
700380
780700
7C1F00
7FFE00
6FFC00
E3F000
ENDCHAR
STARTCHAR c
ENCODING 99
SWIDTH 600 0
DWIDTH 22 0
BBX 18 18 2 0
BITMAP
00FC00
07FE00
0FFF00
1F0780
3C01C0
380000
700000
700000
600000
E00000
E00000
E00000
700000
780600
7C1F00
3FFC00
1FF800
07E000
ENDCHAR
STARTCHAR d
ENCODING 100
SWIDTH 600 0
DWIDTH 22 0
BBX 20 26 2 0
BITMAP
000070
000060
0000E0
0000E0
0000E0
0000E0
0000C0
0001C0
01F1C0
07FDC0
0FFFC0
1E0F80
3C0780
780380
700380
E00380
E00300
E00700
E00700
E00700
E00F00
E01E00
F87E00
7FFE00
3FCE00
1F8E00
ENDCHAR
STARTCHAR e
ENCODING 101
SWIDTH 600 0
DWIDTH 22 0
BBX 17 18 2 0
BITMAP
01F800
07FE00
0FFF00
1E0700
3C0380
700380
700380
7FFF80
FFFF80
FFFF80
E00000
E00000
E00000
700600
7C1E00
3FFC00
1FF800
07E000
ENDCHAR
STARTCHAR f
ENCODING 102
SWIDTH 600 0
DWIDTH 22 0
BBX 19 26 4 0
BITMAP
001F00
007FC0
00FFE0
01E0C0
03C000
038000
038000
038000
FFFF00
FFFF00
FFFE00
070000
070000
060000
0E0000
0E0000
0E0000
0E0000
0C0000
1C0000
1C0000
1C0000
1C0000
180000
380000
380000
ENDCHAR
STARTCHAR g
ENCODING 103
SWIDTH 600 0
DWIDTH 22 0
BBX 19 25 1 -7
BITMAP
00F860
03FEE0
0FFFC0
0F07C0
1E03C0
3C01C0
3801C0
700180
700180
700380
700380
700380
700700
781F00
3FFF00
3FF700
0FC700
000600
000E00
000E00
801C00
E07C00
FFF800
7FF000
1FC000
ENDCHAR
STARTCHAR h
ENCODING 104
SWIDTH 600 0
DWIDTH 22 0
BBX 18 26 1 0
BITMAP
070000
070000
070000
070000
060000
0E0000
0E0000
0E0000
0E1F00
0C7F80
1DFFC0
1FC3C0
1F01C0
1E01C0
1C01C0
3801C0
3801C0
380180
380380
300380
700380
700380
700300
700700
600700
E00700
ENDCHAR
STARTCHAR i
ENCODING 105
SWIDTH 600 0
DWIDTH 22 0
BBX 13 25 4 0
BITMAP
01C0
03E0
03E0
01C0
0000
0000
0000
FF80
FF80
FF80
0380
0300
0300
0700
0700
0600
0600
0E00
0E00
0E00
0E00
0E08
0FF8
07F8
03E0
ENDCHAR
STARTCHAR j
ENCODING 106
SWIDTH 600 0
DWIDTH 22 0
BBX 18 32 -1 -7
BITMAP
0001C0
0003C0
0003C0
000380
000000
000000
000000
03FF80
03FF80
03FF80
000300
000700
000700
000700
000600
000600
000E00
000E00
000E00
000C00
001C00
001C00
001C00
001C00
001800
003800
003800
007800
60F000
7FE000
FFC000
1F8000
ENDCHAR
STARTCHAR k
ENCODING 107
SWIDTH 600 0
DWIDTH 22 0
BBX 19 26 2 0
BITMAP
070000
060000
0E0000
0E0000
0E0000
0E0000
0C0000
1C0000
1C01E0
1C0380
1C0700
180E00
383C00
387800
38F000
39E000
33E000
7F7000
7E3000
7C3800
781C00
601C00
E00E00
E00E00
E00700
E00700
ENDCHAR
STARTCHAR l
ENCODING 108
SWIDTH 600 0
DWIDTH 22 0
BBX 12 26 5 0
BITMAP
FF80
FF80
FF80
0300
0300
0700
0700
0600
0600
0E00
0E00
0E00
0C00
0C00
1C00
1C00
1C00
1800
1800
3800
3800
3800
3C20
3FE0
1FF0
0FC0
ENDCHAR
STARTCHAR m
ENCODING 109
SWIDTH 600 0
DWIDTH 22 0
BBX 20 18 0 0
BITMAP
1CF0E0
19FBF0
1BFFF0
1E3E70
1C3C30
383870
383870
383070
383070
307060
7070E0
7070E0
7060E0
70E0E0
60E0C0
E0E1C0
E0C1C0
E1C1C0
ENDCHAR
STARTCHAR n
ENCODING 110
SWIDTH 600 0
DWIDTH 22 0
BBX 18 18 1 0
BITMAP
0C1F00
1C7F80
1DFFC0
1FC3C0
1F01C0
1E01C0
1C01C0
3801C0
3801C0
380180
380380
300380
700380
700380
700300
700700
600700
E00700
ENDCHAR
STARTCHAR o
ENCODING 111
SWIDTH 600 0
DWIDTH 22 0
BBX 17 18 2 0
BITMAP
01F800
07FC00
1FFE00
3E0F00
780780
700380
E00380
E00380
E00380
E00380
C00380
E00700
E00F00
F01E00
783E00
7FF800
3FF000
0FC000
ENDCHAR
STARTCHAR p
ENCODING 112
SWIDTH 600 0
DWIDTH 22 0
BBX 19 25 0 -7
BITMAP
061F00
0E7F80
0EFFC0
0FC1E0
0F00E0
0E00E0
1C00E0
1C00E0
1C00E0
1C00E0
1800E0
3801E0
3801C0
3C03C0
3E0F80
3FFF00
77FE00
71F800
700000
700000
600000
E00000
E00000
E00000
E00000
ENDCHAR
STARTCHAR q
ENCODING 113
SWIDTH 600 0
DWIDTH 22 0
BBX 18 25 2 -7
BITMAP
01F0C0
07FDC0
0FFF80
1E0F80
3C0780
780380
700380
E00300
E00300
E00700
E00700
E00700
E00E00
E01E00
F87E00
7FFE00
3FEE00
1F8C00
000C00
001C00
001C00
001C00
001800
001800
003800
ENDCHAR
STARTCHAR r
ENCODING 114
SWIDTH 600 0
DWIDTH 22 0
BBX 17 18 3 0
BITMAP
0C1F00
0C7F80
1CFF00
1DE100
1F8000
1F0000
1E0000
1C0000
380000
380000
380000
300000
300000
700000
700000
700000
700000
E00000
ENDCHAR
STARTCHAR s
ENCODING 115
SWIDTH 600 0
DWIDTH 22 0
BBX 16 18 2 0
BITMAP
03F0
0FFC
1FFE
1C0F
1803
1800
1C00
0F80
07E0
01F8
003C
000E
400E
E00E
F81E
7FFC
1FF8
07E0
ENDCHAR
STARTCHAR t
ENCODING 116
SWIDTH 600 0
DWIDTH 22 0
BBX 17 24 3 0
BITMAP
018000
038000
038000
030000
030000
070000
FFFF80
FFFF00
FFFF00
060000
0E0000
0E0000
0E0000
0C0000
0C0000
1C0000
1C0000
1C0000
1C0000
1C0000
1E0C00
1FFC00
0FF800
07E000
ENDCHAR
STARTCHAR u
ENCODING 117
SWIDTH 600 0
DWIDTH 22 0
BBX 18 18 2 0
BITMAP
3801C0
380180
380380
380380
300380
700380
700380
700700
600700
600700
E00700
E00F00
E01E00
E03E00
F0FE00
FFEE00
7F8E00
3E0C00
ENDCHAR
STARTCHAR v
ENCODING 118
SWIDTH 600 0
DWIDTH 22 0
BBX 18 18 3 0
BITMAP
E001C0
E00380
600300
700700
700600
700E00
301C00
301C00
383800
383000
387000
18E000
18E000
1DC000
1D8000
0F8000
0F0000
0F0000
ENDCHAR
STARTCHAR w
ENCODING 119
SWIDTH 600 0
DWIDTH 22 0
BBX 20 18 2 0
BITMAP
C00030
C0E070
C0E060
C1E0E0
C1E0E0
C1E0C0
C361C0
C36180
C77380
C67380
CE7300
EC7700
CC7600
DC7E00
D83E00
D83C00
F03C00
F03800
ENDCHAR
STARTCHAR x
ENCODING 120
SWIDTH 600 0
DWIDTH 22 0
BBX 20 18 0 0
BITMAP
0E00F0
0701E0
0301C0
038380
018700
01CE00
00DC00
00F800
007000
00F000
01F800
039800
071C00
0F0C00
1E0E00
1C0700
380700
F00380
ENDCHAR
STARTCHAR y
ENCODING 121
SWIDTH 600 0
DWIDTH 22 0
BBX 23 25 -2 -7
BITMAP
07000E
07001C
030018
038038
038070
038070
0180E0
01C0C0
01C1C0
01C380
00C380
00C700
00E600
00EE00
006C00
007800
007800
007000
007000
00E000
01C000
83C000
7F8000
7F0000
FC0000
ENDCHAR
STARTCHAR z
ENCODING 122
SWIDTH 600 0
DWIDTH 22 0
BBX 18 18 1 0
BITMAP
1FFFC0
1FFFC0
1FFFC0
000380
000700
001E00
003C00
007800
00E000
01C000
038000
070000
0E0000
1C0000
380000
7FFF00
FFFF00
FFFF00
ENDCHAR
STARTCHAR braceleft
ENCODING 123
SWIDTH 600 0
DWIDTH 22 0
BBX 17 32 4 -6
BITMAP
001F80
007F80
00F000
00C000
01C000
018000
018000
018000
018000
018000
038000
038000
030000
030000
0E0000
FC0000
FC0000
1E0000
060000
060000
060000
0E0000
0C0000
0C0000
0C0000
180000
180000
180000
180000
1C0000
1FE000
0FE000
ENDCHAR
STARTCHAR bar
ENCODING 124
SWIDTH 600 0
DWIDTH 22 0
BBX 2 36 10 -9
BITMAP
C0
C0
C0
C0
C0
C0
C0
C0
C0
C0
C0
C0
C0
C0
C0
C0
C0
C0
C0
C0
C0
C0
C0
C0
C0
C0
C0
C0
C0
C0
C0
C0
C0
C0
C0
C0
ENDCHAR
STARTCHAR braceright
ENCODING 125
SWIDTH 600 0
DWIDTH 22 0
BBX 17 32 0 -6
BITMAP
03F800
03FC00
001C00
000E00
000C00
000C00
000C00
000C00
001800
001800
001800
001800
003800
003800
001C00
000F80
001F80
003800
007000
006000
006000
006000
00E000
00E000
00C000
00C000
00C000
00C000
01C000
038000
7F0000
FE0000
ENDCHAR
STARTCHAR asciitilde
ENCODING 126
SWIDTH 600 0
DWIDTH 22 0
BBX 16 6 3 9
BITMAP
1E02
3F07
7FCE
E3FE
C1FC
C078
ENDCHAR
STARTCHAR uni00A0
ENCODING 160
SWIDTH 600 0
DWIDTH 22 0
BBX 1 1 0 0
BITMAP
00
ENDCHAR
STARTCHAR exclamdown
ENCODING 161
SWIDTH 600 0
DWIDTH 22 0
BBX 8 25 6 -7
BITMAP
0E
1F
1F
1F
0E
00
00
00
18
18
18
18
38
38
30
30
30
70
70
70
60
E0
E0
E0
E0
ENDCHAR
STARTCHAR cent
ENCODING 162
SWIDTH 600 0
DWIDTH 22 0
BBX 15 26 4 -2
BITMAP
0060
0060
0060
0040
03F0
0FF8
1FFC
3ECE
78C8
7080
E180
E180
E180
C180
C100
C300
E300
E310
F238
7FF0
3FE0
1F80
0600
0600
0400
0C00
ENDCHAR
STARTCHAR sterling
ENCODING 163
SWIDTH 600 0
DWIDTH 22 0
BBX 19 23 1 0
BITMAP
003E00
00FF80
01FFC0
03E1E0
0380C0
038000
030000
070000
030000
030000
030000
3FFE00
3FFE00
038000
030000
030000
070000
060000
0C0000
180000
7FFF00
FFFF00
FFFF00
ENDCHAR
STARTCHAR currency
ENCODING 164
SWIDTH 600 0
DWIDTH 22 0
BBX 20 19 1 2
BITMAP
080020
180070
1C7CE0
0FFFC0
07FF80
078700
0E0380
1C0380
1C0380
180380
180380
180700
1C0700
1E1E00
1FFE00
3FFF00
73E700
E00380
400100
ENDCHAR
STARTCHAR yen
ENCODING 165
SWIDTH 600 0
DWIDTH 22 0
BBX 20 23 2 0
BITMAP
380070
1C00E0
1C01C0
0C0380
0E0380
0E0700
060E00
070C00
031C00
033800
03B000
01E000
7FFF80
01C000
01C000
018000
FFFF00
038000
038000
038000
038000
030000
070000
ENDCHAR
STARTCHAR brokenbar
ENCODING 166
SWIDTH 600 0
DWIDTH 22 0
BBX 2 36 10 -9
BITMAP
C0
C0
C0
C0
C0
C0
C0
C0
C0
C0
C0
C0
C0
C0
C0
C0
00
00
00
00
C0
C0
C0
C0
C0
C0
C0
C0
C0
C0
C0
C0
C0
C0
C0
C0
ENDCHAR
STARTCHAR section
ENCODING 167
SWIDTH 600 0
DWIDTH 22 0
BBX 16 28 2 -3
BITMAP
00F8
01FC
03FE
0387
0702
0700
0700
0380
07C0
0CF0
1878
381C
300E
3007
3807
1C07
1E06
0F86
03DC
00F8
0070
0030
0030
6030
F0F0
7FE0
3FE0
0F80
ENDCHAR
STARTCHAR dieresis
ENCODING 168
SWIDTH 600 0
DWIDTH 22 0
BBX 10 4 8 21
BITMAP
61C0
F1C0
F1C0
E1C0
ENDCHAR
STARTCHAR copyright
ENCODING 169
SWIDTH 600 0
DWIDTH 22 0
BBX 20 24 1 0
BITMAP
007E00
018380
0600C0
0C0060
180060
307C20
30FE30
61C630
638030
470030
C60030
C60030
C60030
C60020
C60020
C60060
C71840
C3FCC0
C1E080
400180
600300
300600
181800
07E000
ENDCHAR
STARTCHAR ordfeminine
ENCODING 170
SWIDTH 600 0
DWIDTH 22 0
BBX 12 12 6 14
BITMAP
0790
1FF0
3870
7030
6070
6060
E060
E060
E060
71E0
7FC0
3CC0
ENDCHAR
STARTCHAR guillemotleft
ENCODING 171
SWIDTH 600 0
DWIDTH 22 0
BBX 16 14 3 2
BITMAP
0202
0707
0E0E
1C1C
7838
F070
E0E0
C0E0
E0E0
7070
7030
3838
1818
180C
ENDCHAR
STARTCHAR logicalnot
ENCODING 172
SWIDTH 600 0
DWIDTH 22 0
BBX 15 10 3 3
BITMAP
FFFE
FFFE
FFFE
0006
0006
0006
0006
0006
0006
0006
ENDCHAR
STARTCHAR uni00AD
ENCODING 173
SWIDTH 600 0
DWIDTH 22 0
BBX 15 3 3 10
BITMAP
FFFE
FFFE
FFFE
ENDCHAR
STARTCHAR registered
ENCODING 174
SWIDTH 600 0
DWIDTH 22 0
BBX 13 14 6 12
BITMAP
07C0
1830
3018
6788
4CC8
8CC8
8888
8F08
8908
8998
9990
C020
60C0
1F00
ENDCHAR
STARTCHAR macron
ENCODING 175
SWIDTH 600 0
DWIDTH 22 0
BBX 10 2 8 22
BITMAP
7FC0
FFC0
ENDCHAR
STARTCHAR degree
ENCODING 176
SWIDTH 600 0
DWIDTH 22 0
BBX 9 10 8 15
BITMAP
1E00
3F00
6180
C180
C180
C180
C180
C300
7E00
3C00
ENDCHAR
STARTCHAR plusminus
ENCODING 177
SWIDTH 600 0
DWIDTH 22 0
BBX 15 21 3 0
BITMAP
0180
0180
0180
0180
0180
0180
0180
FFFE
FFFE
FFFE
0180
0180
0180
0180
0180
0180
0000
0000
FFFE
FFFE
FFFE
ENDCHAR
STARTCHAR two.sups
ENCODING 178
SWIDTH 600 0
DWIDTH 22 0
BBX 10 14 7 15
BITMAP
0F00
1FC0
31C0
20C0
00C0
00C0
0180
0380
0700
0E00
1800
7000
FF80
FF80
ENDCHAR
STARTCHAR three.sups
ENCODING 179
SWIDTH 600 0
DWIDTH 22 0
BBX 10 15 7 14
BITMAP
0F00
3FC0
31C0
00C0
00C0
00C0
0380
0E00
1300
0180
0180
8180
C380
7F00
3E00
ENDCHAR
STARTCHAR acute
ENCODING 180
SWIDTH 600 0
DWIDTH 22 0
BBX 7 7 11 21
BITMAP
04
0E
1E
38
70
E0
80
ENDCHAR
STARTCHAR uni00B5
ENCODING 181
SWIDTH 600 0
DWIDTH 22 0
BBX 20 25 0 -7
BITMAP
0E0070
0E0060
0E00E0
0E00E0
0C00E0
1C00E0
1C00C0
1C01C0
1801C0
1801C0
380180
380380
380780
380F80
3C3F80
7FFBC0
7FF3C0
77C1C0
600000
600000
E00000
E00000
E00000
E00000
C00000
ENDCHAR
STARTCHAR paragraph
ENCODING 182
SWIDTH 600 0
DWIDTH 22 0
BBX 17 27 3 -3
BITMAP
01F380
0FF300
1FF700
3FE700
7FE700
7FE700
7FE600
FFCE00
FFCE00
FFCE00
FFCE00
7FCC00
7F9C00
3F9C00
0F9C00
001C00
001800
003800
003800
003800
003800
003000
007000
007000
007000
007000
006000
ENDCHAR
STARTCHAR periodcentered
ENCODING 183
SWIDTH 600 0
DWIDTH 22 0
BBX 5 6 8 10
BITMAP
70
F8
F8
F8
F8
F0
ENDCHAR
STARTCHAR cedilla
ENCODING 184
SWIDTH 600 0
DWIDTH 22 0
BBX 6 8 4 -8
BITMAP
0C
18
30
3C
0C
0C
1C
F0
ENDCHAR
STARTCHAR one.sups
ENCODING 185
SWIDTH 600 0
DWIDTH 22 0
BBX 11 14 6 15
BITMAP
01C0
1F80
1F80
0180
0180
0380
0300
0300
0300
0300
0700
0600
7FE0
FFE0
ENDCHAR
STARTCHAR ordmasculine
ENCODING 186
SWIDTH 600 0
DWIDTH 22 0
BBX 11 12 7 14
BITMAP
0F80
3FC0
70E0
E060
C060
C060
C060
C0E0
C0C0
E3C0
7F80
3E00
ENDCHAR
STARTCHAR guillemotright
ENCODING 187
SWIDTH 600 0
DWIDTH 22 0
BBX 17 14 1 2
BITMAP
080800
181C00
1C0C00
0E0E00
060700
070700
038380
070700
0F0700
1E0E00
381C00
303800
606000
C04000
ENDCHAR
STARTCHAR onequarter
ENCODING 188
SWIDTH 600 0
DWIDTH 22 0
BBX 23 23 -1 0
BITMAP
030000
1F0004
1F000E
03001C
070038
060070
0600C0
060180
060300
0E0000
0C0000
000000
000080
0001C0
018300
030300
060660
1C0C60
381860
703FF0
E000C0
4000C0
0000C0
ENDCHAR
STARTCHAR onehalf
ENCODING 189
SWIDTH 600 0
DWIDTH 22 0
BBX 23 23 -1 0
BITMAP
030000
1F0004
1F000E
03001C
070038
060070
0600C0
060180
060300
0E0000
0C0000
0003E0
0007E0
000C70
018830
030070
060060
1C00C0
380180
700300
E00E00
401FF0
001FE0
ENDCHAR
STARTCHAR threequarters
ENCODING 190
SWIDTH 600 0
DWIDTH 22 0
BBX 23 24 -1 0
BITMAP
078000
1FC000
30C004
00C00E
00C01C
018038
0E0070
0180C0
41C180
618300
3F8000
1F0000
000000
000080
0001C0
018300
030300
060660
1C0C60
381860
703FF0
E000C0
4000C0
0000C0
ENDCHAR
STARTCHAR questiondown
ENCODING 191
SWIDTH 600 0
DWIDTH 22 0
BBX 13 25 2 -7
BITMAP
0070
00F8
00F8
00F0
00F0
0000
0000
0000
00E0
00C0
01C0
0180
0380
0700
1C00
3800
7000
6000
E000
E000
E030
F0F0
7FE0
7FC0
1F00
ENDCHAR
STARTCHAR Agrave
ENCODING 192
SWIDTH 600 0
DWIDTH 22 0
BBX 19 31 -1 0
BITMAP
000800
001C00
000E00
000700
000380
000100
000000
000700
000F00
000F00
001B80
001B80
003380
007180
006180
00E180
00C180
01C180
0181C0
0381C0
0301C0
07FFC0
07FFC0
0FFFC0
0E00C0
1C00C0
1C00E0
3800E0
7800E0
7000E0
F000E0
ENDCHAR
STARTCHAR Aacute
ENCODING 193
SWIDTH 600 0
DWIDTH 22 0
BBX 20 31 -1 0
BITMAP
000020
000070
0001F0
0003C0
000700
000200
000000
000700
000F00
000F00
001B80
001B80
003380
007180
006180
00E180
00C180
01C180
0181C0
0381C0
0301C0
07FFC0
07FFC0
0FFFC0
0E00C0
1C00C0
1C00E0
3800E0
7800E0
7000E0
F000E0
ENDCHAR
STARTCHAR Acircumflex
ENCODING 194
SWIDTH 600 0
DWIDTH 22 0
BBX 20 30 -1 0
BITMAP
000780
000FC0
001CE0
003870
006030
000000
000700
000F00
000F00
001B80
001B80
003380
007180
006180
00E180
00C180
01C180
0181C0
0381C0
0301C0
07FFC0
07FFC0
0FFFC0
0E00C0
1C00C0
1C00E0
3800E0
7800E0
7000E0
F000E0
ENDCHAR
STARTCHAR Atilde
ENCODING 195
SWIDTH 600 0
DWIDTH 22 0
BBX 22 30 -1 0
BITMAP
003E0C
007F18
0063F8
0060E0
000000
000000
000700
000F00
000F00
001B80
001B80
003380
007180
006180
00E180
00C180
01C180
0181C0
0381C0
0301C0
07FFC0
07FFC0
0FFFC0
0E00C0
1C00C0
1C00E0
3800E0
7800E0
7000E0
F000E0
ENDCHAR
STARTCHAR Adieresis
ENCODING 196
SWIDTH 600 0
DWIDTH 22 0
BBX 20 29 -1 0
BITMAP
001870
003870
003870
000000
000000
000700
000F00
000F00
001B80
001B80
003380
007180
006180
00E180
00C180
01C180
0181C0
0381C0
0301C0
07FFC0
07FFC0
0FFFC0
0E00C0
1C00C0
1C00E0
3800E0
7800E0
7000E0
F000E0
ENDCHAR
STARTCHAR Aring
ENCODING 197
SWIDTH 600 0
DWIDTH 22 0
BBX 19 31 -1 0
BITMAP
0003C0
000C60
000C60
000860
000CC0
000780
000000
000700
000F00
000F00
001B80
001B80
003380
007180
006180
00E180
00C180
01C180
0181C0
0381C0
0301C0
07FFC0
07FFC0
0FFFC0
0E00C0
1C00C0
1C00E0
3800E0
7800E0
7000E0
F000E0
ENDCHAR
STARTCHAR AE
ENCODING 198
SWIDTH 600 0
DWIDTH 22 0
BBX 25 24 -2 0
BITMAP
0003FF80
0007FF80
0007FF80
000FC000
001DC000
001D8000
00398000
00318000
00738000
00E38000
00E3FC00
01C3FC00
01C3FC00
03870000
07070000
07FE0000
0FFE0000
0FFE0000
1E060000
3C0E0000
380C0000
700FF800
700FF800
E01FF800
ENDCHAR
STARTCHAR Ccedilla
ENCODING 199
SWIDTH 600 0
DWIDTH 22 0
BBX 18 32 3 -8
BITMAP
007C00
01FF00
07FF80
0F8380
1E01C0
3C0100
380000
780000
700000
700000
E00000
E00000
E00000
E00000
E00000
E00000
E00000
E00000
F00000
700400
7C1E00
3FFC00
1FF800
07E000
030000
030000
060000
070000
0B8000
018000
030000
1E0000
ENDCHAR
STARTCHAR Egrave
ENCODING 200
SWIDTH 600 0
DWIDTH 22 0
BBX 19 31 2 0
BITMAP
002000
007000
003800
001C00
000E00
000400
000000
07FFE0
07FFE0
0FFFE0
0E0000
0E0000
0E0000
0C0000
1C0000
1C0000
1C0000
1FFF00
1FFE00
3FFE00
380000
380000
380000
300000
700000
700000
700000
700000
7FFF00
FFFE00
FFFE00
ENDCHAR
STARTCHAR Eacute
ENCODING 201
SWIDTH 600 0
DWIDTH 22 0
BBX 19 31 2 0
BITMAP
000080
0001C0
0007C0
000F00
001E00
000800
000000
07FFE0
07FFE0
0FFFE0
0E0000
0E0000
0E0000
0C0000
1C0000
1C0000
1C0000
1FFF00
1FFE00
3FFE00
380000
380000
380000
300000
700000
700000
700000
700000
7FFF00
FFFE00
FFFE00
ENDCHAR
STARTCHAR Ecircumflex
ENCODING 202
SWIDTH 600 0
DWIDTH 22 0
BBX 19 30 2 0
BITMAP
000F00
003F00
007380
00E1C0
018040
000000
07FFE0
07FFE0
0FFFE0
0E0000
0E0000
0E0000
0C0000
1C0000
1C0000
1C0000
1FFF00
1FFE00
3FFE00
380000
380000
380000
300000
700000
700000
700000
700000
7FFF00
FFFE00
FFFE00
ENDCHAR
STARTCHAR Edieresis
ENCODING 203
SWIDTH 600 0
DWIDTH 22 0
BBX 19 29 2 0
BITMAP
0060C0
00F1C0
0061C0
000000
000000
07FFE0
07FFE0
0FFFE0
0E0000
0E0000
0E0000
0C0000
1C0000
1C0000
1C0000
1FFF00
1FFE00
3FFE00
380000
380000
380000
300000
700000
700000
700000
700000
7FFF00
FFFE00
FFFE00
ENDCHAR
STARTCHAR Igrave
ENCODING 204
SWIDTH 600 0
DWIDTH 22 0
BBX 20 31 1 0
BITMAP
002000
007000
003800
001C00
000E00
000400
000000
07FFF0
07FFE0
07FFE0
083800
003800
003800
003000
007000
007000
007000
007000
006000
00E000
00E000
00E000
00E000
00C000
01C000
01C000
01C000
018000
7FFE00
FFFE00
FFFE00
ENDCHAR
STARTCHAR Iacute
ENCODING 205
SWIDTH 600 0
DWIDTH 22 0
BBX 20 31 1 0
BITMAP
000080
0001C0
0007C0
000F00
001C00
000800
000000
07FFF0
07FFE0
07FFE0
083800
003800
003800
003000
007000
007000
007000
007000
006000
00E000
00E000
00E000
00E000
00C000
01C000
01C000
01C000
018000
7FFE00
FFFE00
FFFE00
ENDCHAR
STARTCHAR Icircumflex
ENCODING 206
SWIDTH 600 0
DWIDTH 22 0
BBX 20 30 1 0
BITMAP
001E00
003F00
007380
00E1C0
0180C0
000000
07FFF0
07FFE0
07FFE0
083800
003800
003800
003000
007000
007000
007000
007000
006000
00E000
00E000
00E000
00E000
00C000
01C000
01C000
01C000
018000
7FFE00
FFFE00
FFFE00
ENDCHAR
STARTCHAR Idieresis
ENCODING 207
SWIDTH 600 0
DWIDTH 22 0
BBX 20 29 1 0
BITMAP
0061C0
00E1C0
00E1C0
000000
000000
07FFF0
07FFE0
07FFE0
083800
003800
003800
003000
007000
007000
007000
007000
006000
00E000
00E000
00E000
00E000
00C000
01C000
01C000
01C000
018000
7FFE00
FFFE00
FFFE00
ENDCHAR
STARTCHAR Eth
ENCODING 208
SWIDTH 600 0
DWIDTH 22 0
BBX 20 24 1 0
BITMAP
07FC00
07FF00
0FFF80
0E07C0
0E01E0
0E00E0
0C00E0
1C00E0
1C0070
FFE070
FFE070
FFE060
1800E0
3800E0
3800E0
3800E0
3001C0
3003C0
700780
700F80
703F00
7FFE00
7FF800
FFC000
ENDCHAR
STARTCHAR Ntilde
ENCODING 209
SWIDTH 600 0
DWIDTH 22 0
BBX 20 30 1 0
BITMAP
00F830
01FC60
018FE0
018380
000000
000000
0F0070
0F0070
0F0070
0F8060
0D80E0
0D80E0
1D80E0
1DC0E0
18C0C0
18C0C0
18E1C0
3861C0
3861C0
387180
303180
303380
703B80
703B80
701B00
601B00
601F00
E00F00
E00F00
E00E00
ENDCHAR
STARTCHAR Ograve
ENCODING 210
SWIDTH 600 0
DWIDTH 22 0
BBX 19 31 1 0
BITMAP
002000
007000
003800
001C00
000E00
000400
000000
007E00
01FF00
07FF80
0F83C0
0F01E0
1C00E0
3C00E0
3800E0
380060
700060
7000E0
7000E0
6000E0
6000E0
E000E0
E001C0
6001C0
700380
700780
780F00
3C1F00
3FFC00
0FF800
07E000
ENDCHAR
STARTCHAR Oacute
ENCODING 211
SWIDTH 600 0
DWIDTH 22 0
BBX 19 31 1 0
BITMAP
000080
0001C0
0007C0
000F00
001C00
000800
000000
007E00
01FF00
07FF80
0F83C0
0F01E0
1C00E0
3C00E0
3800E0
380060
700060
7000E0
7000E0
6000E0
6000E0
E000E0
E001C0
6001C0
700380
700780
780F00
3C1F00
3FFC00
0FF800
07E000
ENDCHAR
STARTCHAR Ocircumflex
ENCODING 212
SWIDTH 600 0
DWIDTH 22 0
BBX 19 30 1 0
BITMAP
001E00
003F00
007380
00E1C0
0180C0
000000
007E00
01FF00
07FF80
0F83C0
0F01E0
1C00E0
3C00E0
3800E0
380060
700060
7000E0
7000E0
6000E0
6000E0
E000E0
E001C0
6001C0
700380
700780
780F00
3C1F00
3FFC00
0FF800
07E000
ENDCHAR
STARTCHAR Otilde
ENCODING 213
SWIDTH 600 0
DWIDTH 22 0
BBX 20 30 1 0
BITMAP
00F830
01FC60
018FE0
018380
000000
000000
007E00
01FF00
07FF80
0F83C0
0F01E0
1C00E0
3C00E0
3800E0
380060
700060
7000E0
7000E0
6000E0
6000E0
E000E0
E001C0
6001C0
700380
700780
780F00
3C1F00
3FFC00
0FF800
07E000
ENDCHAR
STARTCHAR Odieresis
ENCODING 214
SWIDTH 600 0
DWIDTH 22 0
BBX 19 29 1 0
BITMAP
0061C0
00E1C0
00E1C0
000000
000000
007E00
01FF00
07FF80
0F83C0
0F01E0
1C00E0
3C00E0
3800E0
380060
700060
7000E0
7000E0
6000E0
6000E0
E000E0
E001C0
6001C0
700380
700780
780F00
3C1F00
3FFC00
0FF800
07E000
ENDCHAR
STARTCHAR multiply
ENCODING 215
SWIDTH 600 0
DWIDTH 22 0
BBX 14 15 4 4
BITMAP
8008
C01C
E038
7070
38E0
1DC0
0F80
0700
0F80
1DC0
38E0
7070
E038
E01C
4008
ENDCHAR
STARTCHAR Oslash
ENCODING 216
SWIDTH 600 0
DWIDTH 22 0
BBX 24 26 -1 -1
BITMAP
000004
001F86
007FCF
01FFFC
03E0F8
03C078
0700F8
0F01F8
0E0398
0E0398
1C0718
1C0E18
1C1C38
183838
187038
38E038
39C070
1BC070
1F80E0
1F01E0
1E03C0
1F07C0
3FFF00
73FE00
E1F800
200000
ENDCHAR
STARTCHAR Ugrave
ENCODING 217
SWIDTH 600 0
DWIDTH 22 0
BBX 19 31 2 0
BITMAP
004000
00E000
007000
003800
001C00
000800
000000
1C00E0
1C00E0
1C00E0
1800C0
3800C0
3801C0
3801C0
3801C0
300180
700380
700380
700380
700380
600300
E00700
E00700
E00700
E00F00
E00E00
701E00
783C00
3FF800
3FF000
0FC000
ENDCHAR
STARTCHAR Uacute
ENCODING 218
SWIDTH 600 0
DWIDTH 22 0
BBX 19 31 2 0
BITMAP
000100
000380
000F80
001E00
003800
001000
000000
1C00E0
1C00E0
1C00E0
1800C0
3800C0
3801C0
3801C0
3801C0
300180
700380
700380
700380
700380
600300
E00700
E00700
E00700
E00F00
E00E00
701E00
783C00
3FF800
3FF000
0FC000
ENDCHAR
STARTCHAR Ucircumflex
ENCODING 219
SWIDTH 600 0
DWIDTH 22 0
BBX 19 30 2 0
BITMAP
003C00
007E00
00E700
01C380
030180
000000
1C00E0
1C00E0
1C00E0
1800C0
3800C0
3801C0
3801C0
3801C0
300180
700380
700380
700380
700380
600300
E00700
E00700
E00700
E00F00
E00E00
701E00
783C00
3FF800
3FF000
0FC000
ENDCHAR
STARTCHAR Udieresis
ENCODING 220
SWIDTH 600 0
DWIDTH 22 0
BBX 19 29 2 0
BITMAP
00C380
01C380
01C380
000000
000000
1C00E0
1C00E0
1C00E0
1800C0
3800C0
3801C0
3801C0
3801C0
300180
700380
700380
700380
700380
600300
E00700
E00700
E00700
E00F00
E00E00
701E00
783C00
3FF800
3FF000
0FC000
ENDCHAR
STARTCHAR Yacute
ENCODING 221
SWIDTH 600 0
DWIDTH 22 0
BBX 19 31 4 0
BITMAP
000400
001C00
003E00
00F800
01E000
008000
000000
E001E0
E001C0
700380
700700
700F00
300E00
381C00
383C00
383800
1C7000
1C7000
1CE000
0DC000
0FC000
0F8000
070000
070000
060000
0E0000
0E0000
0E0000
0C0000
1C0000
1C0000
ENDCHAR
STARTCHAR Thorn
ENCODING 222
SWIDTH 600 0
DWIDTH 22 0
BBX 18 24 2 0
BITMAP
0E0000
0E0000
0E0000
0C0000
1FFC00
1FFF00
1FFF80
1C0780
1C03C0
3801C0
3801C0
3801C0
3801C0
300380
700780
701F00
7FFE00
7FFC00
7FF000
E00000
E00000
E00000
E00000
E00000
ENDCHAR
STARTCHAR germandbls
ENCODING 223
SWIDTH 600 0
DWIDTH 22 0
BBX 18 26 1 0
BITMAP
007E00
01FF00
03FF80
07C380
070180
0F0180
0E0180
0E0380
0E0700
1C0E00
1C1C00
1C3800
1C3800
183800
383800
381E00
380F00
380380
3001C0
7001C0
7001C0
7101C0
7183C0
63FF80
E0FF00
E07E00
ENDCHAR
STARTCHAR agrave
ENCODING 224
SWIDTH 600 0
DWIDTH 22 0
BBX 18 28 2 0
BITMAP
004000
00E000
00F000
007000
003800
001C00
001C00
000800
000000
000000
01F0C0
07FDC0
0FFF80
1E0F80
3C0780
780380
700380
E00300
E00300
E00700
E00700
E00700
E00F00
E01E00
F87E00
7FFE00
3FCE00
1F8E00
ENDCHAR
STARTCHAR aacute
ENCODING 225
SWIDTH 600 0
DWIDTH 22 0
BBX 18 28 2 0
BITMAP
000100
000700
000F80
001E00
003C00
007000
002000
000000
000000
000000
01F0C0
07FDC0
0FFF80
1E0F80
3C0780
780380
700380
E00300
E00300
E00700
E00700
E00700
E00F00
E01E00
F87E00
7FFE00
3FCE00
1F8E00
ENDCHAR
STARTCHAR acircumflex
ENCODING 226
SWIDTH 600 0
DWIDTH 22 0
BBX 18 27 2 0
BITMAP
003C00
007E00
00E600
01C700
038380
030100
000000
000000
000000
01F0C0
07FDC0
0FFF80
1E0F80
3C0780
780380
700380
E00300
E00300
E00700
E00700
E00700
E00F00
E01E00
F87E00
7FFE00
3FCE00
1F8E00
ENDCHAR
STARTCHAR atilde
ENCODING 227
SWIDTH 600 0
DWIDTH 22 0
BBX 18 26 2 0
BITMAP
00E0C0
01F0C0
0319C0
030F80
070700
000000
000000
000000
01F0C0
07FDC0
0FFF80
1E0F80
3C0780
780380
700380
E00300
E00300
E00700
E00700
E00700
E00F00
E01E00
F87E00
7FFE00
3FCE00
1F8E00
ENDCHAR
STARTCHAR adieresis
ENCODING 228
SWIDTH 600 0
DWIDTH 22 0
BBX 18 25 2 0
BITMAP
01C300
01C780
01C780
018300
000000
000000
000000
01F0C0
07FDC0
0FFF80
1E0F80
3C0780
780380
700380
E00300
E00300
E00700
E00700
E00700
E00F00
E01E00
F87E00
7FFE00
3FCE00
1F8E00
ENDCHAR
STARTCHAR aring
ENCODING 229
SWIDTH 600 0
DWIDTH 22 0
BBX 18 26 2 0
BITMAP
003C00
006600
00C300
00C300
00C600
007C00
000000
000000
01F0C0
07FDC0
0FFF80
1E0F80
3C0780
780380
700380
E00300
E00300
E00700
E00700
E00700
E00F00
E01E00
F87E00
7FFE00
3FCE00
1F8E00
ENDCHAR
STARTCHAR ae
ENCODING 230
SWIDTH 600 0
DWIDTH 22 0
BBX 23 18 -1 0
BITMAP
03E0F0
0FF3FC
1FFFFC
1C3F0C
101C0E
00180E
00180E
01FFFC
0FFFFC
1E3FFC
703000
603000
E03000
E07800
E1FC30
FFDFF0
7F9FE0
3E07C0
ENDCHAR
STARTCHAR ccedilla
ENCODING 231
SWIDTH 600 0
DWIDTH 22 0
BBX 18 26 2 -8
BITMAP
00FC00
07FE00
0FFF00
1F0780
3C01C0
380000
700000
700000
600000
E00000
E00000
E00000
700000
780600
7C1F00
3FFC00
1FF800
07E000
018000
030000
030000
078000
01C000
018000
038000
1E0000
ENDCHAR
STARTCHAR egrave
ENCODING 232
SWIDTH 600 0
DWIDTH 22 0
BBX 17 28 2 0
BITMAP
004000
00E000
00E000
007000
003800
003800
001C00
000800
000000
000000
01F800
07FE00
0FFF00
1E0700
3C0380
700380
700380
7FFF80
FFFF80
FFFF80
E00000
E00000
E00000
700600
7C1E00
3FFC00
1FF800
07E000
ENDCHAR
STARTCHAR eacute
ENCODING 233
SWIDTH 600 0
DWIDTH 22 0
BBX 17 28 2 0
BITMAP
000200
000700
000F80
001E00
003800
007000
002000
000000
000000
000000
01F800
07FE00
0FFF00
1E0700
3C0380
700380
700380
7FFF80
FFFF80
FFFF80
E00000
E00000
E00000
700600
7C1E00
3FFC00
1FF800
07E000
ENDCHAR
STARTCHAR ecircumflex
ENCODING 234
SWIDTH 600 0
DWIDTH 22 0
BBX 17 27 2 0
BITMAP
003C00
007C00
00EE00
01C700
038300
020180
000000
000000
000000
01F800
07FE00
0FFF00
1E0700
3C0380
700380
700380
7FFF80
FFFF80
FFFF80
E00000
E00000
E00000
700600
7C1E00
3FFC00
1FF800
07E000
ENDCHAR
STARTCHAR edieresis
ENCODING 235
SWIDTH 600 0
DWIDTH 22 0
BBX 17 25 2 0
BITMAP
018300
03C780
03C700
018700
000000
000000
000000
01F800
07FE00
0FFF00
1E0700
3C0380
700380
700380
7FFF80
FFFF80
FFFF80
E00000
E00000
E00000
700600
7C1E00
3FFC00
1FF800
07E000
ENDCHAR
STARTCHAR igrave
ENCODING 236
SWIDTH 600 0
DWIDTH 22 0
BBX 13 28 4 0
BITMAP
0200
0700
0780
0380
01C0
01C0
00E0
0040
0000
0000
FF80
FF80
FF80
0380
0300
0300
0700
0700
0600
0600
0E00
0E00
0E00
0E00
0E08
0FF8
07F8
03E0
ENDCHAR
STARTCHAR iacute
ENCODING 237
SWIDTH 600 0
DWIDTH 22 0
BBX 14 28 4 0
BITMAP
0010
0038
007C
00F0
01E0
0380
0100
0000
0000
0000
FF80
FF80
FF80
0380
0300
0300
0700
0700
0600
0600
0E00
0E00
0E00
0E00
0E08
0FF8
07F8
03E0
ENDCHAR
STARTCHAR icircumflex
ENCODING 238
SWIDTH 600 0
DWIDTH 22 0
BBX 14 27 4 0
BITMAP
01E0
03F0
0770
0E38
1C18
100C
0000
0000
0000
FF80
FF80
FF80
0380
0300
0300
0700
0700
0600
0600
0E00
0E00
0E00
0E00
0E08
0FF8
07F8
03E0
ENDCHAR
STARTCHAR idieresis
ENCODING 239
SWIDTH 600 0
DWIDTH 22 0
BBX 14 25 4 0
BITMAP
0E18
0E3C
1E3C
0C38
0000
0000
0000
FF80
FF80
FF80
0380
0300
0300
0700
0700
0600
0600
0E00
0E00
0E00
0E00
0E08
0FF8
07F8
03E0
ENDCHAR
STARTCHAR eth
ENCODING 240
SWIDTH 600 0
DWIDTH 22 0
BBX 20 26 1 0
BITMAP
004000
00F030
0079F0
001FC0
001F00
007F00
01E380
018380
0001C0
01F1C0
07FDC0
1FFEC0
3E07C0
3C03C0
7801C0
7000C0
6000C0
E001C0
E001C0
E00380
700380
700700
7C1F00
3FFE00
1FF800
07E000
ENDCHAR
STARTCHAR ntilde
ENCODING 241
SWIDTH 600 0
DWIDTH 22 0
BBX 19 26 1 0
BITMAP
007060
00F860
018CE0
0187C0
030380
000000
000000
000000
0C1F00
1C7F80
1DFFC0
1FC3C0
1F01C0
1E01C0
1C01C0
3801C0
3801C0
380180
380380
300380
700380
700380
700300
700700
600700
E00700
ENDCHAR
STARTCHAR ograve
ENCODING 242
SWIDTH 600 0
DWIDTH 22 0
BBX 17 28 2 0
BITMAP
004000
00E000
01E000
007000
007000
003800
001C00
000800
000000
000000
01F800
07FC00
1FFE00
3E0F00
780780
700380
E00380
E00380
E00380
E00380
C00380
E00700
E00F00
F01E00
783E00
7FF800
3FF000
0FC000
ENDCHAR
STARTCHAR oacute
ENCODING 243
SWIDTH 600 0
DWIDTH 22 0
BBX 17 28 2 0
BITMAP
000200
000700
000F00
001C00
003800
007000
004000
000000
000000
000000
01F800
07FC00
1FFE00
3E0F00
780780
700380
E00380
E00380
E00380
E00380
C00380
E00700
E00F00
F01E00
783E00
7FF800
3FF000
0FC000
ENDCHAR
STARTCHAR ocircumflex
ENCODING 244
SWIDTH 600 0
DWIDTH 22 0
BBX 17 27 2 0
BITMAP
003C00
007C00
00EE00
01C600
030300
060100
000000
000000
000000
01F800
07FC00
1FFE00
3E0F00
780780
700380
E00380
E00380
E00380
E00380
C00380
E00700
E00F00
F01E00
783E00
7FF800
3FF000
0FC000
ENDCHAR
STARTCHAR otilde
ENCODING 245
SWIDTH 600 0
DWIDTH 22 0
BBX 18 26 2 0
BITMAP
01E0C0
03F1C0
033980
061F80
060E00
000000
000000
000000
01F800
07FC00
1FFE00
3E0F00
780780
700380
E00380
E00380
E00380
E00380
C00380
E00700
E00F00
F01E00
783E00
7FF800
3FF000
0FC000
ENDCHAR
STARTCHAR odieresis
ENCODING 246
SWIDTH 600 0
DWIDTH 22 0
BBX 17 25 2 0
BITMAP
018700
03C700
03C700
038700
000000
000000
000000
01F800
07FC00
1FFE00
3E0F00
780780
700380
E00380
E00380
E00380
E00380
C00380
E00700
E00F00
F01E00
783E00
7FF800
3FF000
0FC000
ENDCHAR
STARTCHAR divide
ENCODING 247
SWIDTH 600 0
DWIDTH 22 0
BBX 15 19 3 2
BITMAP
0180
03C0
03C0
0180
0000
0000
0000
0000
FFFE
FFFE
FFFE
0000
0000
0000
0000
0180
03C0
03C0
0180
ENDCHAR
STARTCHAR oslash
ENCODING 248
SWIDTH 600 0
DWIDTH 22 0
BBX 21 20 0 -1
BITMAP
000020
007E30
01FF78
07FFE0
0F81C0
1E03E0
1C0FE0
3C1EE0
383CE0
3878E0
30E0E0
31C0E0
3381C0
3F03C0
3E0780
1C0F80
3FFE00
7FFC00
E3F000
400000
ENDCHAR
STARTCHAR ugrave
ENCODING 249
SWIDTH 600 0
DWIDTH 22 0
BBX 18 28 2 0
BITMAP
004000
00E000
01E000
00F000
007000
003800
001C00
000800
000000
000000
3801C0
380180
380380
380380
300380
700380
700380
700700
600700
600700
E00700
E00F00
E01E00
E03E00
F0FE00
FFEE00
7F8E00
3E0C00
ENDCHAR
STARTCHAR uacute
ENCODING 250
SWIDTH 600 0
DWIDTH 22 0
BBX 18 28 2 0
BITMAP
000200
000700
000F00
001C00
003800
007000
004000
000000
000000
000000
3801C0
380180
380380
380380
300380
700380
700380
700700
600700
600700
E00700
E00F00
E01E00
E03E00
F0FE00
FFEE00
7F8E00
3E0C00
ENDCHAR
STARTCHAR ucircumflex
ENCODING 251
SWIDTH 600 0
DWIDTH 22 0
BBX 18 27 2 0
BITMAP
003800
007C00
00EE00
01C600
030300
060100
000000
000000
000000
3801C0
380180
380380
380380
300380
700380
700380
700700
600700
600700
E00700
E00F00
E01E00
E03E00
F0FE00
FFEE00
7F8E00
3E0C00
ENDCHAR
STARTCHAR udieresis
ENCODING 252
SWIDTH 600 0
DWIDTH 22 0
BBX 18 25 2 0
BITMAP
018700
03C700
038700
038700
000000
000000
000000
3801C0
380180
380380
380380
300380
700380
700380
700700
600700
600700
E00700
E00F00
E01E00
E03E00
F0FE00
FFEE00
7F8E00
3E0C00
ENDCHAR
STARTCHAR yacute
ENCODING 253
SWIDTH 600 0
DWIDTH 22 0
BBX 23 35 -2 -7
BITMAP
000020
000060
0000F0
0003C0
000780
000F00
000400
000000
000000
000000
07000E
07001C
030018
038038
038070
038070
0180E0
01C0C0
01C1C0
01C380
00C380
00C700
00E600
00EE00
006C00
007800
007800
007000
007000
00E000
01C000
83C000
7F8000
7F0000
FC0000
ENDCHAR
STARTCHAR thorn
ENCODING 254
SWIDTH 600 0
DWIDTH 22 0
BBX 19 33 0 -7
BITMAP
038000
038000
038000
038000
070000
070000
070000
070000
061F00
0E7F80
0FFFC0
0FC1E0
0F00E0
0E00E0
1C00E0
1C00E0
1C00E0
1C00E0
1800E0
3801E0
3801C0
3C03C0
3E0F80
3FFF00
77FE00
71F800
700000
700000
600000
E00000
E00000
E00000
E00000
ENDCHAR
STARTCHAR ydieresis
ENCODING 255
SWIDTH 600 0
DWIDTH 22 0
BBX 23 32 -2 -7
BITMAP
001870
003870
0038F0
003860
000000
000000
000000
07000E
07001C
030018
038038
038070
038070
0180E0
01C0C0
01C1C0
01C380
00C380
00C700
00E600
00EE00
006C00
007800
007800
007000
007000
00E000
01C000
83C000
7F8000
7F0000
FC0000
ENDCHAR
STARTCHAR Amacron
ENCODING 256
SWIDTH 600 0
DWIDTH 22 0
BBX 20 28 -1 0
BITMAP
003FF0
003FF0
000000
000000
000700
000F00
000F00
001B80
001B80
003380
007180
006180
00E180
00C180
01C180
0181C0
0381C0
0301C0
07FFC0
07FFC0
0FFFC0
0E00C0
1C00C0
1C00E0
3800E0
7800E0
7000E0
F000E0
ENDCHAR
STARTCHAR amacron
ENCODING 257
SWIDTH 600 0
DWIDTH 22 0
BBX 18 24 2 0
BITMAP
01FF00
01FF00
000000
000000
000000
000000
01F0C0
07FDC0
0FFF80
1E0F80
3C0780
780380
700380
E00300
E00300
E00700
E00700
E00700
E00F00
E01E00
F87E00
7FFE00
3FCE00
1F8E00
ENDCHAR
STARTCHAR Abreve
ENCODING 258
SWIDTH 600 0
DWIDTH 22 0
BBX 21 30 -1 0
BITMAP
003018
003030
003870
001FE0
000F80
000000
000700
000F00
000F00
001B80
001B80
003380
007180
006180
00E180
00C180
01C180
0181C0
0381C0
0301C0
07FFC0
07FFC0
0FFFC0
0E00C0
1C00C0
1C00E0
3800E0
7800E0
7000E0
F000E0
ENDCHAR
STARTCHAR abreve
ENCODING 259
SWIDTH 600 0
DWIDTH 22 0
BBX 18 26 2 0
BITMAP
0180C0
018180
01C380
00FF00
007C00
000000
000000
000000
01F0C0
07FDC0
0FFF80
1E0F80
3C0780
780380
700380
E00300
E00300
E00700
E00700
E00700
E00F00
E01E00
F87E00
7FFE00
3FCE00
1F8E00
ENDCHAR
STARTCHAR Aogonek
ENCODING 260
SWIDTH 600 0
DWIDTH 22 0
BBX 19 32 -1 -8
BITMAP
000700
000F00
000F00
001B80
001B80
003380
007180
006180
00E180
00C180
01C180
0181C0
0381C0
0301C0
07FFC0
07FFC0
0FFFC0
0E00C0
1C00C0
1C00E0
3800E0
7800E0
7000E0
F000E0
0000C0
000180
000300
000600
000600
000620
0007E0
0003C0
ENDCHAR
STARTCHAR aogonek
ENCODING 261
SWIDTH 600 0
DWIDTH 22 0
BBX 18 26 2 -8
BITMAP
01F0C0
07FDC0
0FFF80
1E0F80
3C0780
780380
700380
E00300
E00300
E00700
E00700
E00700
E00F00
E01E00
F87E00
7FFE00
3FCE00
1F8E00
001C00
003000
006000
00C000
00C000
00E400
00FC00
007800
ENDCHAR
STARTCHAR Cacute
ENCODING 262
SWIDTH 600 0
DWIDTH 22 0
BBX 18 31 3 0
BITMAP
000100
000380
000780
001E00
003C00
001000
000000
007C00
01FF00
07FF80
0F8380
1E01C0
3C0100
380000
780000
700000
700000
E00000
E00000
E00000
E00000
E00000
E00000
E00000
E00000
F00000
700400
7C1E00
3FFC00
1FF800
07E000
ENDCHAR
STARTCHAR cacute
ENCODING 263
SWIDTH 600 0
DWIDTH 22 0
BBX 18 28 2 0
BITMAP
000100
000380
000780
000E00
003C00
007800
002000
000000
000000
000000
00FC00
07FE00
0FFF00
1F0780
3C01C0
380000
700000
700000
600000
E00000
E00000
E00000
700000
780600
7C1F00
3FFC00
1FF800
07E000
ENDCHAR
STARTCHAR Ccircumflex
ENCODING 264
SWIDTH 600 0
DWIDTH 22 0
BBX 18 30 3 0
BITMAP
001E00
007E00
00E700
01C180
030080
000000
007C00
01FF00
07FF80
0F8380
1E01C0
3C0100
380000
780000
700000
700000
E00000
E00000
E00000
E00000
E00000
E00000
E00000
E00000
F00000
700400
7C1E00
3FFC00
1FF800
07E000
ENDCHAR
STARTCHAR ccircumflex
ENCODING 265
SWIDTH 600 0
DWIDTH 22 0
BBX 18 27 2 0
BITMAP
001C00
003E00
007700
01C300
038180
010180
000000
000000
000000
00FC00
07FE00
0FFF00
1F0780
3C01C0
380000
700000
700000
600000
E00000
E00000
E00000
700000
780600
7C1F00
3FFC00
1FF800
07E000
ENDCHAR
STARTCHAR Cdotaccent
ENCODING 266
SWIDTH 600 0
DWIDTH 22 0
BBX 18 30 3 0
BITMAP
001C00
001C00
003C00
001800
000000
000000
007C00
01FF00
07FF80
0F8380
1E01C0
3C0100
380000
780000
700000
700000
E00000
E00000
E00000
E00000
E00000
E00000
E00000
E00000
F00000
700400
7C1E00
3FFC00
1FF800
07E000
ENDCHAR
STARTCHAR cdotaccent
ENCODING 267
SWIDTH 600 0
DWIDTH 22 0
BBX 18 25 2 0
BITMAP
001C00
003C00
003C00
003800
000000
000000
000000
00FC00
07FE00
0FFF00
1F0780
3C01C0
380000
700000
700000
600000
E00000
E00000
E00000
700000
780600
7C1F00
3FFC00
1FF800
07E000
ENDCHAR
STARTCHAR Ccaron
ENCODING 268
SWIDTH 600 0
DWIDTH 22 0
BBX 18 31 3 0
BITMAP
0080C0
01C1C0
006780
007E00
003C00
000000
000000
007C00
01FF00
07FF80
0F8380
1E01C0
3C0100
380000
780000
700000
700000
E00000
E00000
E00000
E00000
E00000
E00000
E00000
E00000
F00000
700400
7C1E00
3FFC00
1FF800
07E000
ENDCHAR
STARTCHAR ccaron
ENCODING 269
SWIDTH 600 0
DWIDTH 22 0
BBX 18 27 2 0
BITMAP
0080C0
01C1C0
00E380
006700
007E00
003C00
000000
000000
000000
00FC00
07FE00
0FFF00
1F0780
3C01C0
380000
700000
700000
600000
E00000
E00000
E00000
700000
780600
7C1F00
3FFC00
1FF800
07E000
ENDCHAR
STARTCHAR Dcaron
ENCODING 270
SWIDTH 600 0
DWIDTH 22 0
BBX 19 31 1 0
BITMAP
00C040
00E1E0
007380
003F00
001E00
000000
000000
0FF800
0FFE00
0FFF80
0E0F80
0E03C0
1C01C0
1C00E0
1C00E0
1C00E0
1800E0
3800E0
3800E0
3800E0
3800E0
3001C0
7001C0
7001C0
700380
700780
600F00
E03E00
FFFC00
FFF000
FFC000
ENDCHAR
STARTCHAR dcaron
ENCODING 271
SWIDTH 600 0
DWIDTH 22 0
BBX 24 30 2 0
BITMAP
000007
000007
000007
000006
0000C6
0001C6
0001CE
0001CC
0001CC
00018C
000380
000380
03E380
0FFB80
1FFF00
3E1F00
780F00
700700
E00700
E00600
E00E00
C00E00
C00E00
C00E00
E01C00
E03C00
F0FC00
FFFC00
7FDC00
3F1800
ENDCHAR
STARTCHAR Dcroat
ENCODING 272
SWIDTH 600 0
DWIDTH 22 0
BBX 20 24 1 0
BITMAP
07FC00
07FF00
0FFF80
0E07C0
0E01E0
0E00E0
0C00E0
1C00E0
1C0070
FFE070
FFE070
FFE060
1800E0
3800E0
3800E0
3800E0
3001C0
3003C0
700780
700F80
703F00
7FFE00
7FF800
FFC000
ENDCHAR
STARTCHAR dcroat
ENCODING 273
SWIDTH 600 0
DWIDTH 22 0
BBX 21 26 2 0
BITMAP
000060
0000E0
0000E0
003FF8
003FF8
0040F8
0001C0
0001C0
0001C0
03F1C0
0FFD80
1FFF80
3E0F80
780780
700380
F00300
E00700
E00700
E00700
E00700
E00E00
E01E00
F07E00
7FFE00
7FCE00
1F0C00
ENDCHAR
STARTCHAR Emacron
ENCODING 274
SWIDTH 600 0
DWIDTH 22 0
BBX 19 28 2 0
BITMAP
007FC0
007FC0
008000
000000
07FFE0
07FFE0
0FFFE0
0E0000
0E0000
0E0000
0C0000
1C0000
1C0000
1C0000
1FFF00
1FFE00
3FFE00
380000
380000
380000
300000
700000
700000
700000
700000
7FFF00
FFFE00
FFFE00
ENDCHAR
STARTCHAR emacron
ENCODING 275
SWIDTH 600 0
DWIDTH 22 0
BBX 17 24 2 0
BITMAP
01FF00
01FF00
000000
000000
000000
000000
01F800
07FE00
0FFF00
1E0700
3C0380
700380
700380
7FFF80
FFFF80
FFFF80
E00000
E00000
E00000
700600
7C1E00
3FFC00
1FF800
07E000
ENDCHAR
STARTCHAR Ebreve
ENCODING 276
SWIDTH 600 0
DWIDTH 22 0
BBX 19 30 2 0
BITMAP
00C060
00C0C0
0061C0
007F80
003E00
000000
07FFE0
07FFE0
0FFFE0
0E0000
0E0000
0E0000
0C0000
1C0000
1C0000
1C0000
1FFF00
1FFE00
3FFE00
380000
380000
380000
300000
700000
700000
700000
700000
7FFF00
FFFE00
FFFE00
ENDCHAR
STARTCHAR ebreve
ENCODING 277
SWIDTH 600 0
DWIDTH 22 0
BBX 18 26 2 0
BITMAP
0301C0
038180
01C700
01FE00
007C00
000000
000000
000000
01F800
07FE00
0FFF00
1E0700
3C0380
700380
700380
7FFF80
FFFF80
FFFF80
E00000
E00000
E00000
700600
7C1E00
3FFC00
1FF800
07E000
ENDCHAR
STARTCHAR Edotaccent
ENCODING 278
SWIDTH 600 0
DWIDTH 22 0
BBX 19 30 2 0
BITMAP
000E00
000E00
001E00
000C00
000000
000000
07FFE0
07FFE0
0FFFE0
0E0000
0E0000
0E0000
0C0000
1C0000
1C0000
1C0000
1FFF00
1FFE00
3FFE00
380000
380000
380000
300000
700000
700000
700000
700000
7FFF00
FFFE00
FFFE00
ENDCHAR
STARTCHAR edotaccent
ENCODING 279
SWIDTH 600 0
DWIDTH 22 0
BBX 17 25 2 0
BITMAP
003800
007C00
007C00
003800
000000
000000
000000
01F800
07FE00
0FFF00
1E0700
3C0380
700380
700380
7FFF80
FFFF80
FFFF80
E00000
E00000
E00000
700600
7C1E00
3FFC00
1FF800
07E000
ENDCHAR
STARTCHAR Eogonek
ENCODING 280
SWIDTH 600 0
DWIDTH 22 0
BBX 19 32 2 -8
BITMAP
07FFE0
07FFE0
0FFFE0
0E0000
0E0000
0E0000
0C0000
1C0000
1C0000
1C0000
1FFF00
1FFE00
3FFE00
380000
380000
380000
300000
700000
700000
700000
700000
7FFF00
FFFE00
FFFE00
001800
003000
006000
00C000
00C000
00E400
00FC00
007800
ENDCHAR
STARTCHAR eogonek
ENCODING 281
SWIDTH 600 0
DWIDTH 22 0
BBX 17 26 2 -8
BITMAP
01F800
07FE00
0FFF00
1E0700
3C0380
700380
700380
7FFF80
FFFF80
FFFF80
E00000
E00000
E00000
700600
7C1E00
3FFC00
1FF800
07F000
006000
00C000
008000
018000
018000
01C800
01F800
00F000
ENDCHAR
STARTCHAR Ecaron
ENCODING 282
SWIDTH 600 0
DWIDTH 22 0
BBX 19 31 2 0
BITMAP
004060
00E0E0
0033C0
003F00
001E00
000000
000000
07FFE0
07FFE0
0FFFE0
0E0000
0E0000
0E0000
0C0000
1C0000
1C0000
1C0000
1FFF00
1FFE00
3FFE00
380000
380000
380000
300000
700000
700000
700000
700000
7FFF00
FFFE00
FFFE00
ENDCHAR
STARTCHAR ecaron
ENCODING 283
SWIDTH 600 0
DWIDTH 22 0
BBX 18 27 2 0
BITMAP
010080
0381C0
01C700
00EE00
007C00
007800
000000
000000
000000
01F800
07FE00
0FFF00
1E0700
3C0380
700380
700380
7FFF80
FFFF80
FFFF80
E00000
E00000
E00000
700600
7C1E00
3FFC00
1FF800
07E000
ENDCHAR
STARTCHAR Gcircumflex
ENCODING 284
SWIDTH 600 0
DWIDTH 22 0
BBX 19 30 2 0
BITMAP
001E00
003F00
007380
00C1C0
018080
000000
007E00
01FF00
03FF80
0FC1C0
0F00E0
1E0080
3C0000
380000
700000
700000
700000
E00000
E03FC0
E03F80
E03F80
E00380
E00380
F00300
700300
780700
3C0F00
3FFF00
0FFC00
03F000
ENDCHAR
STARTCHAR gcircumflex
ENCODING 285
SWIDTH 600 0
DWIDTH 22 0
BBX 19 34 1 -7
BITMAP
001E00
003F00
007300
00E380
01C1C0
018080
000000
000000
000000
00F860
03FEE0
0FFFC0
0F07C0
1E03C0
3C01C0
3801C0
700180
700180
700380
700380
700380
700700
781F00
3FFF00
3FF700
0FC700
000600
000E00
000E00
801C00
E07C00
FFF800
7FF000
1FC000
ENDCHAR
STARTCHAR Gbreve
ENCODING 286
SWIDTH 600 0
DWIDTH 22 0
BBX 19 30 2 0
BITMAP
00C060
00C0C0
00E1C0
007F80
003E00
000000
007E00
01FF00
03FF80
0FC1C0
0F00E0
1E0080
3C0000
380000
700000
700000
700000
E00000
E03FC0
E03F80
E03F80
E00380
E00380
F00300
700300
780700
3C0F00
3FFF00
0FFC00
03F000
ENDCHAR
STARTCHAR gbreve
ENCODING 287
SWIDTH 600 0
DWIDTH 22 0
BBX 19 33 1 -7
BITMAP
00C060
00C0C0
00E1C0
007F80
003E00
000000
000000
000000
00F860
03FEE0
0FFFC0
0F07C0
1E03C0
3C01C0
3801C0
700180
700180
700380
700380
700380
700700
781F00
3FFF00
3FF700
0FC700
000600
000E00
000E00
801C00
E07C00
FFF800
7FF000
1FC000
ENDCHAR
STARTCHAR Gdotaccent
ENCODING 288
SWIDTH 600 0
DWIDTH 22 0
BBX 19 30 2 0
BITMAP
000C00
001E00
001E00
001C00
000000
000000
007E00
01FF00
03FF80
0FC1C0
0F00E0
1E0080
3C0000
380000
700000
700000
700000
E00000
E03FC0
E03F80
E03F80
E00380
E00380
F00300
700300
780700
3C0F00
3FFF00
0FFC00
03F000
ENDCHAR
STARTCHAR gdotaccent
ENCODING 289
SWIDTH 600 0
DWIDTH 22 0
BBX 19 32 1 -7
BITMAP
001E00
001E00
003E00
001C00
000000
000000
000000
00F860
03FEE0
0FFFC0
0F07C0
1E03C0
3C01C0
3801C0
700180
700180
700380
700380
700380
700700
781F00
3FFF00
3FF700
0FC700
000600
000E00
000E00
801C00
E07C00
FFF800
7FF000
1FC000
ENDCHAR
STARTCHAR uni0122
ENCODING 290
SWIDTH 600 0
DWIDTH 22 0
BBX 19 32 2 -8
BITMAP
007E00
01FF00
03FF80
0FC1C0
0F00E0
1E0080
3C0000
380000
700000
700000
700000
E00000
E03FC0
E03F80
E03F80
E00380
E00380
F00300
700300
780700
3C0F00
3FFF00
0FFC00
03F000
000000
000000
018000
02E000
00E000
00C000
01C000
0F0000
ENDCHAR
STARTCHAR uni0123
ENCODING 291
SWIDTH 600 0
DWIDTH 22 0
BBX 19 32 1 -7
BITMAP
000700
001C00
003000
003800
001C00
000800
000000
00F860
03FEE0
0FFFC0
0F07C0
1E03C0
3C01C0
3801C0
700180
700180
700380
700380
700380
700700
781F00
3FFF00
3FF700
0FC700
000600
000E00
000E00
801C00
E07C00
FFF800
7FF000
1FC000
ENDCHAR
STARTCHAR Hcircumflex
ENCODING 292
SWIDTH 600 0
DWIDTH 22 0
BBX 20 30 1 0
BITMAP
001E00
003F00
007380
00E1C0
0180C0
000000
0E0070
0E0070
0E0070
0C0070
1C00E0
1C00E0
1C00E0
1C00E0
1800E0
3801C0
3FFFC0
3FFFC0
3FFFC0
3801C0
700180
700380
700380
700380
700380
600300
E00700
E00700
E00700
E00700
ENDCHAR
STARTCHAR hcircumflex
ENCODING 293
SWIDTH 600 0
DWIDTH 22 0
BBX 18 32 1 0
BITMAP
03C000
07E000
1C6000
383000
301800
000000
070000
070000
070000
070000
060000
0E0000
0E0000
0E0000
0E1F00
0C7F80
1DFFC0
1FC3C0
1F01C0
1E01C0
1C01C0
3801C0
3801C0
380180
380380
300380
700380
700380
700300
700700
600700
E00700
ENDCHAR
STARTCHAR Hbar
ENCODING 294
SWIDTH 600 0
DWIDTH 22 0
BBX 22 24 1 0
BITMAP
0E0070
0E0070
0E0070
0C0060
7FFFFC
7FFFFC
7FFFF8
1C00E0
1C00E0
1800C0
3FFFC0
3FFFC0
3FFFC0
3801C0
300180
700380
700380
700380
700380
600300
E00700
E00700
E00700
E00700
ENDCHAR
STARTCHAR hbar
ENCODING 295
SWIDTH 600 0
DWIDTH 22 0
BBX 18 26 1 0
BITMAP
070000
070000
070000
3FFE00
3FFE00
3FFE00
0E0000
0E0000
0E0000
0C1F00
1C7F80
1DFFC0
1FC3C0
1F01C0
1E01C0
3C01C0
3801C0
380180
380380
300380
700380
700380
700300
700700
600700
E00700
ENDCHAR
STARTCHAR Itilde
ENCODING 296
SWIDTH 600 0
DWIDTH 22 0
BBX 20 30 1 0
BITMAP
00F830
01FC60
018FE0
018380
000000
000000
07FFF0
07FFE0
07FFE0
083800
003800
003800
003000
007000
007000
007000
007000
006000
00E000
00E000
00E000
00E000
00C000
01C000
01C000
01C000
018000
7FFE00
FFFE00
FFFE00
ENDCHAR
STARTCHAR itilde
ENCODING 297
SWIDTH 600 0
DWIDTH 22 0
BBX 15 26 4 0
BITMAP
0706
0F86
19CE
18FC
3078
0000
0000
0000
FF80
FF80
FF80
0380
0300
0300
0700
0700
0600
0600
0E00
0E00
0E00
0E00
0E08
0FF8
07F8
03E0
ENDCHAR
STARTCHAR Imacron
ENCODING 298
SWIDTH 600 0
DWIDTH 22 0
BBX 20 28 1 0
BITMAP
00FFC0
00FFC0
000000
000000
07FFF0
07FFE0
07FFE0
083800
003800
003800
003000
007000
007000
007000
007000
006000
00E000
00E000
00E000
00E000
00C000
01C000
01C000
01C000
018000
7FFE00
FFFE00
FFFE00
ENDCHAR
STARTCHAR imacron
ENCODING 299
SWIDTH 600 0
DWIDTH 22 0
BBX 13 24 4 0
BITMAP
0FF8
0FF8
0000
0000
0000
0000
FF80
FF80
FF80
0380
0300
0300
0700
0700
0600
0600
0E00
0E00
0E00
0E00
0E08
0FF8
07F8
03E0
ENDCHAR
STARTCHAR Ibreve
ENCODING 300
SWIDTH 600 0
DWIDTH 22 0
BBX 20 30 1 0
BITMAP
00C060
00C0C0
00E1C0
007F80
003E00
000000
07FFF0
07FFE0
07FFE0
083800
003800
003800
003000
007000
007000
007000
007000
006000
00E000
00E000
00E000
00E000
00C000
01C000
01C000
01C000
018000
7FFE00
FFFE00
FFFE00
ENDCHAR
STARTCHAR ibreve
ENCODING 301
SWIDTH 600 0
DWIDTH 22 0
BBX 15 26 4 0
BITMAP
1806
0C0C
0E1C
0FF8
03E0
0000
0000
0000
FF80
FF80
FF80
0380
0300
0300
0700
0700
0600
0600
0E00
0E00
0E00
0E00
0E08
0FF8
07F8
03E0
ENDCHAR
STARTCHAR Iogonek
ENCODING 302
SWIDTH 600 0
DWIDTH 22 0
BBX 20 32 1 -8
BITMAP
07FFF0
07FFE0
07FFE0
083800
003800
003800
003000
007000
007000
007000
007000
006000
00E000
00E000
00E000
00E000
00C000
01C000
01C000
01C000
018000
7FFE00
FFFE00
FFFE00
030000
060000
0C0000
0C0000
1C0000
1C8000
0FC000
078000
ENDCHAR
STARTCHAR iogonek
ENCODING 303
SWIDTH 600 0
DWIDTH 22 0
BBX 13 33 4 -8
BITMAP
01C0
03E0
03E0
01C0
0000
0000
0000
FF80
FF80
FF80
0380
0300
0300
0700
0700
0600
0600
0E00
0E00
0E00
0E00
0E08
0FF8
07F8
03E0
00C0
0180
0300
0600
0600
0720
07F0
03E0
ENDCHAR
STARTCHAR Idotaccent
ENCODING 304
SWIDTH 600 0
DWIDTH 22 0
BBX 20 30 1 0
BITMAP
000E00
001E00
001E00
000C00
000000
000000
07FFF0
07FFE0
07FFE0
083800
003800
003800
003000
007000
007000
007000
007000
006000
00E000
00E000
00E000
00E000
00C000
01C000
01C000
01C000
018000
7FFE00
FFFE00
FFFE00
ENDCHAR
STARTCHAR dotlessi
ENCODING 305
SWIDTH 600 0
DWIDTH 22 0
BBX 13 18 4 0
BITMAP
FF80
FF80
FF80
0380
0300
0300
0700
0700
0600
0600
0E00
0E00
0E00
0E00
0E08
0FF8
07F8
03E0
ENDCHAR
STARTCHAR IJ
ENCODING 306
SWIDTH 600 0
DWIDTH 22 0
BBX 18 30 2 -6
BITMAP
0E01C0
0E01C0
0E01C0
0C01C0
1C01C0
1C0380
1C0380
1C0380
180380
380380
380700
380700
380700
300700
700700
700E00
700E00
700E00
600E00
E00E00
E01C00
E01C00
E01C00
C01C00
001C00
003800
023800
03F000
03F000
03E000
ENDCHAR
STARTCHAR ij
ENCODING 307
SWIDTH 600 0
DWIDTH 22 0
BBX 18 32 2 -7
BITMAP
070380
0F83C0
0F83C0
070380
000000
000000
000000
0E0700
0C0700
1C0700
1C0600
1C0E00
1C0E00
180E00
380E00
381C00
381C00
381C00
301C00
701800
703800
703800
703800
603800
E03000
007000
007000
007000
00E000
07E000
0FC000
078000
ENDCHAR
STARTCHAR Jcircumflex
ENCODING 308
SWIDTH 600 0
DWIDTH 22 0
BBX 18 30 1 0
BITMAP
001E00
003F00
007380
00E1C0
0180C0
000000
03FFC0
03FFC0
07FFC0
0001C0
0001C0
000180
000380
000380
000380
000380
000300
000700
000700
000700
000700
000E00
000E00
000E00
401C00
E01C00
F07800
7FF800
3FF000
0FC000
ENDCHAR
STARTCHAR jcircumflex
ENCODING 309
SWIDTH 600 0
DWIDTH 22 0
BBX 21 34 -1 -7
BITMAP
0001C0
0003E0
000770
000C30
003818
001018
000000
000000
000000
03FF80
03FF80
03FF80
000300
000700
000700
000700
000600
000600
000E00
000E00
000E00
000C00
001C00
001C00
001C00
001C00
001800
003800
003800
007800
60F000
7FE000
FFC000
1F8000
ENDCHAR
STARTCHAR uni0136
ENCODING 310
SWIDTH 600 0
DWIDTH 22 0
BBX 20 32 2 -8
BITMAP
0E0070
0E00E0
0E01C0
0C0380
1C0700
1C0E00
1C1C00
1C3800
187000
38E000
39E000
3BE000
3F7000
3E7000
7C3800
783800
703800
701C00
601C00
E00E00
E00E00
E00F00
E00700
C00700
000080
000000
038000
01C000
00C000
00C000
038000
0E0000
ENDCHAR
STARTCHAR uni0137
ENCODING 311
SWIDTH 600 0
DWIDTH 22 0
BBX 19 34 2 -8
BITMAP
070000
060000
0E0000
0E0000
0E0000
0E0000
0C0000
1C0000
1C01E0
1C0380
1C0700
180E00
383C00
387800
38F000
39E000
33E000
7F7000
7E3000
7C3800
781C00
601C00
E00E00
E00E00
E00700
E00700
000000
000000
038000
05C000
00C000
01C000
038000
1E0000
ENDCHAR
STARTCHAR kgreenlandic
ENCODING 312
SWIDTH 600 0
DWIDTH 22 0
BBX 19 18 2 0
BITMAP
1C01E0
1C0380
1C0700
180E00
383C00
387800
38F000
39E000
33F000
7F7000
7E3800
7C3800
701C00
601C00
E00E00
E00E00
E00700
E00700
ENDCHAR
STARTCHAR Lacute
ENCODING 313
SWIDTH 600 0
DWIDTH 22 0
BBX 15 31 4 0
BITMAP
0020
00E0
01F0
07C0
0F00
0400
0000
0E00
0E00
0E00
0C00
1C00
1C00
1C00
1C00
1800
3800
3800
3800
3800
3000
7000
7000
7000
7000
6000
E000
E000
FFFE
FFFC
FFFC
ENDCHAR
STARTCHAR lacute
ENCODING 314
SWIDTH 600 0
DWIDTH 22 0
BBX 13 33 5 0
BITMAP
0010
0038
00F8
01E0
03C0
0100
0000
FF80
FF80
FF80
0300
0300
0700
0700
0600
0600
0E00
0E00
0E00
0C00
0C00
1C00
1C00
1C00
1800
1800
3800
3800
3800
3C20
3FE0
1FF0
0FC0
ENDCHAR
STARTCHAR uni013B
ENCODING 315
SWIDTH 600 0
DWIDTH 22 0
BBX 15 32 4 -8
BITMAP
0E00
0E00
0E00
0C00
1C00
1C00
1C00
1C00
1800
3800
3800
3800
3800
3000
7000
7000
7000
7000
6000
E000
E000
FFFE
FFFC
FFFC
0000
0000
0700
0B80
0180
0380
0700
3C00
ENDCHAR
STARTCHAR uni013C
ENCODING 316
SWIDTH 600 0
DWIDTH 22 0
BBX 12 34 5 -8
BITMAP
FF80
FF80
FF80
0300
0300
0700
0700
0600
0600
0E00
0E00
0E00
0C00
0C00
1C00
1C00
1C00
1800
1800
3800
3800
3800
3C20
3FE0
1FF0
0FC0
0000
0000
0E00
0300
0380
0300
0700
3C00
ENDCHAR
STARTCHAR Lcaron
ENCODING 317
SWIDTH 600 0
DWIDTH 22 0
BBX 16 30 4 0
BITMAP
0007
0006
0006
000E
000E
000C
0E0C
0E0C
0E0C
0C18
1C00
1C00
1C00
1C00
1800
3800
3800
3800
3800
3000
7000
7000
7000
7000
6000
E000
E000
FFFE
FFFC
FFFC
ENDCHAR
STARTCHAR lcaron
ENCODING 318
SWIDTH 600 0
DWIDTH 22 0
BBX 16 30 5 0
BITMAP
0007
0006
0006
000E
FF8E
FF8C
FF8C
030C
030C
0718
0700
0600
0600
0E00
0E00
0E00
0C00
0C00
1C00
1C00
1C00
1800
1800
3800
3800
3800
3C20
3FE0
1FF0
0FC0
ENDCHAR
STARTCHAR Ldot
ENCODING 319
SWIDTH 600 0
DWIDTH 22 0
BBX 16 24 4 0
BITMAP
0E00
0E00
0E00
0C00
1C00
1C00
1C00
1C00
1800
3800
380F
380F
381F
300E
7000
7000
7000
7000
6000
E000
E000
FFFE
FFFC
FFFC
ENDCHAR
STARTCHAR ldot
ENCODING 320
SWIDTH 600 0
DWIDTH 22 0
BBX 18 26 4 0
BITMAP
FF8000
FF0000
FF0000
070000
070000
070000
060000
060000
0E0000
0E0000
0E0000
0C0000
0C01C0
1C03C0
1C03C0
180380
180000
380000
380000
380000
380000
380000
382000
3FE000
1FE000
0F8000
ENDCHAR
STARTCHAR Lslash
ENCODING 321
SWIDTH 600 0
DWIDTH 22 0
BBX 17 24 2 0
BITMAP
038000
038000
038000
030000
070000
070000
070000
070200
060E00
0E3F00
0EF800
0FE000
0F0000
3C0000
FC0000
FC0000
9C0000
1C0000
180000
380000
380000
3FFF80
3FFF00
3FFF00
ENDCHAR
STARTCHAR lslash
ENCODING 322
SWIDTH 600 0
DWIDTH 22 0
BBX 15 26 4 0
BITMAP
7FC0
7FC0
7FC0
0180
0180
0380
0380
030C
033E
07F0
07C0
0700
1E00
7E00
EE00
8E00
0E00
0C00
0C00
1C00
1C00
1C00
1E10
1FF0
0FF8
07E0
ENDCHAR
STARTCHAR Nacute
ENCODING 323
SWIDTH 600 0
DWIDTH 22 0
BBX 20 31 1 0
BITMAP
000080
0001C0
0007C0
000F00
001C00
000800
000000
0F0070
0F0070
0F0070
0F8060
0D80E0
0D80E0
1D80E0
1DC0E0
18C0C0
18C0C0
18E1C0
3861C0
3861C0
387180
303180
303380
703B80
703B80
701B00
601B00
601F00
E00F00
E00F00
E00E00
ENDCHAR
STARTCHAR nacute
ENCODING 324
SWIDTH 600 0
DWIDTH 22 0
BBX 18 28 1 0
BITMAP
000100
000380
0007C0
000F00
001E00
003800
001000
000000
000000
000000
0C1F00
1C7F80
1DFFC0
1FC3C0
1F01C0
1E01C0
1C01C0
3801C0
3801C0
380180
380380
300380
700380
700380
700300
700700
600700
E00700
ENDCHAR
STARTCHAR uni0145
ENCODING 325
SWIDTH 600 0
DWIDTH 22 0
BBX 20 32 1 -8
BITMAP
0F0070
0F0070
0F0070
0F8060
0D80E0
0D80E0
1D80E0
1DC0E0
18C0C0
18C0C0
18E1C0
3861C0
3861C0
387180
303180
303380
703B80
703B80
701B00
601B00
601F00
E00F00
E00F00
E00E00
000000
000000
038000
05C000
00C000
01C000
038000
1E0000
ENDCHAR
STARTCHAR uni0146
ENCODING 326
SWIDTH 600 0
DWIDTH 22 0
BBX 18 26 1 -8
BITMAP
0C1F00
1C7F80
1DFFC0
1FC3C0
1F01C0
1E01C0
1C01C0
3801C0
3801C0
380180
380380
300380
700380
700380
700300
700700
600700
E00700
000000
000000
038000
01C000
00C000
00C000
038000
0E0000
ENDCHAR
STARTCHAR Ncaron
ENCODING 327
SWIDTH 600 0
DWIDTH 22 0
BBX 20 31 1 0
BITMAP
004060
00E0C0
007380
003F00
001E00
000000
000000
0F0070
0F0070
0F0070
0F8060
0D80E0
0D80E0
1D80E0
1DC0E0
18C0C0
18C0C0
18E1C0
3861C0
3861C0
387180
303180
303380
703B80
703B80
701B00
601B00
601F00
E00F00
E00F00
E00E00
ENDCHAR
STARTCHAR ncaron
ENCODING 328
SWIDTH 600 0
DWIDTH 22 0
BBX 19 27 1 0
BITMAP
008040
00C0E0
006380
007700
003E00
003C00
000000
000000
000000
0C1F00
1C7F80
1DFFC0
1FC3C0
1F01C0
1E01C0
1C01C0
3801C0
3801C0
380180
380380
300380
700380
700380
700300
700700
600700
E00700
ENDCHAR
STARTCHAR napostrophe
ENCODING 329
SWIDTH 600 0
DWIDTH 22 0
BBX 22 25 0 0
BITMAP
1E0000
3E0000
3F0000
3F0000
1F0000
060000
0E0000
0EE1F0
1CE7F8
78EFFC
F0DC3C
C0F81C
01F01C
01C01C
01C01C
01C018
01C038
018038
038038
038038
038030
038070
030070
070070
070070
ENDCHAR
STARTCHAR Eng
ENCODING 330
SWIDTH 600 0
DWIDTH 22 0
BBX 19 24 1 0
BITMAP
0E3F00
0EFF80
0FFFC0
0FC3C0
0F01E0
1E00E0
1C00E0
1C00E0
1C00E0
1800E0
3800E0
3800E0
3800E0
3800E0
3001C0
7001C0
7001C0
700380
700380
600700
E00F00
E0FE00
E0FC00
E0F800
ENDCHAR
STARTCHAR eng
ENCODING 331
SWIDTH 600 0
DWIDTH 22 0
BBX 18 25 1 -7
BITMAP
0C1F00
1C7F80
1DFFC0
1FC3C0
1F01C0
1E01C0
1C01C0
3801C0
3801C0
380180
380380
300380
700380
700380
700300
700700
600700
E00700
000700
000E00
000E00
001E00
00FC00
00FC00
01F000
ENDCHAR
STARTCHAR Omacron
ENCODING 332
SWIDTH 600 0
DWIDTH 22 0
BBX 19 28 1 0
BITMAP
00FFC0
00FFC0
000000
000000
007E00
01FF00
07FF80
0F83C0
0F01E0
1C00E0
3C00E0
3800E0
380060
700060
7000E0
7000E0
6000E0
6000E0
E000E0
E001C0
6001C0
700380
700780
780F00
3C1F00
3FFC00
0FF800
07E000
ENDCHAR
STARTCHAR omacron
ENCODING 333
SWIDTH 600 0
DWIDTH 22 0
BBX 17 24 2 0
BITMAP
01FF00
03FF00
000000
000000
000000
000000
01F800
07FC00
1FFE00
3E0F00
780780
700380
E00380
E00380
E00380
E00380
C00380
E00700
E00F00
F01E00
783E00
7FF800
3FF000
0FC000
ENDCHAR
STARTCHAR Obreve
ENCODING 334
SWIDTH 600 0
DWIDTH 22 0
BBX 19 30 1 0
BITMAP
00C060
00C0C0
00E1C0
007F80
003E00
000000
007E00
01FF00
07FF80
0F83C0
0F01E0
1C00E0
3C00E0
3800E0
380060
700060
7000E0
7000E0
6000E0
6000E0
E000E0
E001C0
6001C0
700380
700780
780F00
3C1F00
3FFC00
0FF800
07E000
ENDCHAR
STARTCHAR obreve
ENCODING 335
SWIDTH 600 0
DWIDTH 22 0
BBX 17 26 2 0
BITMAP
030180
030380
038700
01FE00
00FC00
000000
000000
000000
01F800
07FC00
1FFE00
3E0F00
780780
700380
E00380
E00380
E00380
E00380
C00380
E00700
E00F00
F01E00
783E00
7FF800
3FF000
0FC000
ENDCHAR
STARTCHAR Ohungarumlaut
ENCODING 336
SWIDTH 600 0
DWIDTH 22 0
BBX 21 31 1 0
BITMAP
000410
000E38
001C70
0038E0
0031C0
006180
000000
007E00
01FF00
07FF80
0F83C0
0F01E0
1C00E0
3C00E0
3800E0
380060
700060
7000E0
7000E0
6000E0
6000E0
E000E0
E001C0
6001C0
700380
700780
780F00
3C1F00
3FFC00
0FF800
07E000
ENDCHAR
STARTCHAR ohungarumlaut
ENCODING 337
SWIDTH 600 0
DWIDTH 22 0
BBX 19 27 2 0
BITMAP
001040
001CE0
0039C0
007180
006300
00C700
018200
000000
000000
01F800
07FC00
1FFE00
3E0F00
780780
700380
E00380
E00380
E00380
E00380
C00380
E00700
E00F00
F01E00
783E00
7FF800
3FF000
0FC000
ENDCHAR
STARTCHAR OE
ENCODING 338
SWIDTH 600 0
DWIDTH 22 0
BBX 22 24 1 0
BITMAP
007FFC
01FFFC
07FFFC
0F8E00
1E0E00
3C0C00
380C00
781C00
701C00
701800
E01FE0
E01FE0
E03FC0
E03800
E03800
E03000
E03000
E07000
F07000
706000
7C6000
3FFFE0
1FFFC0
07FFC0
ENDCHAR
STARTCHAR oe
ENCODING 339
SWIDTH 600 0
DWIDTH 22 0
BBX 22 18 0 0
BITMAP
07C1F0
0FE3F8
1FE7F8
3C7E18
783C18
70381C
E0381C
E03FF8
E03FF8
C03FF8
C03000
C07000
C07000
E0F000
E1F860
FFBFF0
7F1FE0
3E0F80
ENDCHAR
STARTCHAR Racute
ENCODING 340
SWIDTH 600 0
DWIDTH 22 0
BBX 19 31 1 0
BITMAP
000080
0001C0
0007C0
000F00
001C00
001800
000000
07FE00
07FF80
0FFFC0
0E03C0
0E01E0
0E00E0
0E00E0
1C00E0
1C01C0
1C03C0
1C0F80
1FFF00
3FFE00
3FF000
387000
383800
383800
303800
701C00
701C00
700E00
700E00
600E00
E00700
ENDCHAR
STARTCHAR racute
ENCODING 341
SWIDTH 600 0
DWIDTH 22 0
BBX 17 28 3 0
BITMAP
000200
000700
000F80
001E00
003800
007000
002000
000000
000000
000000
0C1F00
0C7F80
1CFF00
1DE100
1F8000
1F0000
1E0000
1C0000
380000
380000
380000
300000
300000
700000
700000
700000
700000
E00000
ENDCHAR
STARTCHAR uni0156
ENCODING 342
SWIDTH 600 0
DWIDTH 22 0
BBX 19 32 1 -8
BITMAP
07FE00
07FF80
0FFFC0
0E03C0
0E01E0
0E00E0
0E00E0
1C00E0
1C01C0
1C03C0
1C0F80
1FFF00
3FFE00
3FF000
387000
383800
383800
303800
701C00
701C00
700E00
700E00
600E00
E00700
000000
000000
038000
01C000
00C000
00C000
038000
0E0000
ENDCHAR
STARTCHAR uni0157
ENCODING 343
SWIDTH 600 0
DWIDTH 22 0
BBX 20 26 0 -8
BITMAP
0183E0
018FF0
039FE0
03BC20
03F000
03E000
03C000
038000
070000
070000
070000
060000
060000
0E0000
0E0000
0E0000
0E0000
0C0000
100000
000000
1C0000
2E0000
060000
0E0000
1C0000
F00000
ENDCHAR
STARTCHAR Rcaron
ENCODING 344
SWIDTH 600 0
DWIDTH 22 0
BBX 19 31 1 0
BITMAP
004040
00E0E0
007380
003F00
001E00
000000
000000
07FE00
07FF80
0FFFC0
0E03C0
0E01E0
0E00E0
0E00E0
1C00E0
1C01C0
1C03C0
1C0F80
1FFF00
3FFE00
3FF000
387000
383800
383800
303800
701C00
701C00
700E00
700E00
600E00
E00700
ENDCHAR
STARTCHAR rcaron
ENCODING 345
SWIDTH 600 0
DWIDTH 22 0
BBX 18 27 3 0
BITMAP
010080
0381C0
01C700
00EE00
007C00
007800
000000
000000
000000
0C1F00
0C7F80
1CFF00
1DE100
1F8000
1F0000
1E0000
1C0000
380000
380000
380000
300000
300000
700000
700000
700000
700000
E00000
ENDCHAR
STARTCHAR Sacute
ENCODING 346
SWIDTH 600 0
DWIDTH 22 0
BBX 18 31 1 0
BITMAP
000080
000380
0007C0
001F00
003C00
001000
000000
00FC00
03FF00
07FF80
0783C0
0F01C0
0E0080
0E0000
0E0000
070000
078000
03E000
01F800
007C00
001E00
000F00
000700
000300
000300
600700
F00700
7C1F00
3FFE00
1FFC00
07F000
ENDCHAR
STARTCHAR sacute
ENCODING 347
SWIDTH 600 0
DWIDTH 22 0
BBX 16 28 2 0
BITMAP
0002
0007
000F
001C
0038
0070
0040
0000
0000
0000
03F0
0FFC
1FFE
1C0F
1803
1800
1C00
0F80
07E0
01F8
003C
000E
400E
E00E
F81E
7FFC
1FF8
07E0
ENDCHAR
STARTCHAR Scircumflex
ENCODING 348
SWIDTH 600 0
DWIDTH 22 0
BBX 18 30 1 0
BITMAP
001E00
003F00
00F300
01C180
0180C0
000000
00FC00
03FF00
07FF80
0783C0
0F01C0
0E0080
0E0000
0E0000
070000
078000
03E000
01F800
007C00
001E00
000F00
000700
000300
000300
600700
F00700
7C1F00
3FFE00
1FFC00
07F000
ENDCHAR
STARTCHAR scircumflex
ENCODING 349
SWIDTH 600 0
DWIDTH 22 0
BBX 16 27 2 0
BITMAP
003C
007C
00EE
01C6
0303
0601
0000
0000
0000
03F0
0FFC
1FFE
1C0F
1803
1800
1C00
0F80
07E0
01F8
003C
000E
400E
E00E
F81E
7FFC
1FF8
07E0
ENDCHAR
STARTCHAR uni015E
ENCODING 350
SWIDTH 600 0
DWIDTH 22 0
BBX 18 32 1 -8
BITMAP
00FC00
03FF00
07FF80
0783C0
0F01C0
0E0080
0E0000
0E0000
070000
078000
03E000
01F800
007C00
001E00
000F00
000700
000300
000300
600700
F00700
7C1F00
3FFE00
1FFC00
07F000
018000
018000
030000
038000
05C000
00C000
018000
1E0000
ENDCHAR
STARTCHAR uni015F
ENCODING 351
SWIDTH 600 0
DWIDTH 22 0
BBX 16 26 2 -8
BITMAP
03F0
0FFC
1FFE
1C0F
1803
1800
1C00
0F80
07E0
01F8
003C
000E
400E
E00E
F81E
7FFC
1FF8
07E0
0300
0300
0600
0700
0B80
0180
0300
1C00
ENDCHAR
STARTCHAR Scaron
ENCODING 352
SWIDTH 600 0
DWIDTH 22 0
BBX 19 31 1 0
BITMAP
00C040
00E1E0
007380
003F00
003C00
000000
000000
00FC00
03FF00
07FF80
0783C0
0F01C0
0E0080
0E0000
0E0000
070000
078000
03E000
01F800
007C00
001E00
000F00
000700
000300
000300
600700
F00700
7C1F00
3FFE00
1FFC00
07F000
ENDCHAR
STARTCHAR scaron
ENCODING 353
SWIDTH 600 0
DWIDTH 22 0
BBX 17 27 2 0
BITMAP
010080
038380
01C700
00CE00
00FC00
007800
000000
000000
000000
03F000
0FFC00
1FFE00
1C0F00
180300
180000
1C0000
0F8000
07E000
01F800
003C00
000E00
400E00
E00E00
F81E00
7FFC00
1FF800
07E000
ENDCHAR
STARTCHAR uni0162
ENCODING 354
SWIDTH 600 0
DWIDTH 22 0
BBX 19 32 4 -8
BITMAP
FFFFE0
FFFFC0
FFFFC0
01C000
01C000
01C000
018000
038000
038000
038000
038000
030000
070000
070000
070000
070000
060000
0E0000
0E0000
0E0000
0E0000
0C0000
1C0000
1C0000
080000
180000
300000
3C0000
0C0000
0C0000
1C0000
F00000
ENDCHAR
STARTCHAR uni0163
ENCODING 355
SWIDTH 600 0
DWIDTH 22 0
BBX 17 32 3 -8
BITMAP
018000
038000
038000
030000
030000
070000
FFFF80
FFFF00
FFFF00
060000
0E0000
0E0000
0E0000
0C0000
0C0000
1C0000
1C0000
1C0000
1C0000
1C0000
1E0C00
1FFC00
0FF800
07E000
018000
030000
030000
078000
01C000
01C000
038000
1E0000
ENDCHAR
STARTCHAR Tcaron
ENCODING 356
SWIDTH 600 0
DWIDTH 22 0
BBX 19 31 4 0
BITMAP
020300
070600
039C00
01F800
00F000
000000
000000
FFFFE0
FFFFC0
FFFFC0
01C000
01C000
01C000
018000
038000
038000
038000
038000
030000
070000
070000
070000
070000
060000
0E0000
0E0000
0E0000
0E0000
0C0000
1C0000
1C0000
ENDCHAR
STARTCHAR tcaron
ENCODING 357
SWIDTH 600 0
DWIDTH 22 0
BBX 17 30 3 0
BITMAP
000380
000300
000300
000700
000700
000600
018600
038600
038600
030C00
030000
070000
FFFF80
FFFF00
FFFF00
060000
0E0000
0E0000
0E0000
0C0000
0C0000
1C0000
1C0000
1C0000
1C0000
1C0000
1E0C00
1FFC00
0FF800
07E000
ENDCHAR
STARTCHAR Tbar
ENCODING 358
SWIDTH 600 0
DWIDTH 22 0
BBX 19 24 4 0
BITMAP
FFFFE0
FFFFC0
FFFFC0
01C000
01C000
01C000
018000
038000
038000
7FFC00
7FF800
7FF800
070000
070000
070000
070000
060000
0E0000
0E0000
0E0000
0E0000
0C0000
1C0000
1C0000
ENDCHAR
STARTCHAR tbar
ENCODING 359
SWIDTH 600 0
DWIDTH 22 0
BBX 19 24 1 0
BITMAP
006000
00E000
00E000
00C000
00C000
01C000
3FFFE0
3FFFC0
3FFFC0
018000
038000
038000
7FFF80
7FFF00
FFFF00
070000
070000
070000
070000
070000
078300
07FF00
03FE00
01F800
ENDCHAR
STARTCHAR Utilde
ENCODING 360
SWIDTH 600 0
DWIDTH 22 0
BBX 19 30 2 0
BITMAP
01F060
03F8C0
031FC0
030700
000000
000000
1C00E0
1C00E0
1C00E0
1800C0
3800C0
3801C0
3801C0
3801C0
300180
700380
700380
700380
700380
600300
E00700
E00700
E00700
E00F00
E00E00
701E00
783C00
3FF800
3FF000
0FC000
ENDCHAR
STARTCHAR utilde
ENCODING 361
SWIDTH 600 0
DWIDTH 22 0
BBX 18 26 2 0
BITMAP
01E0C0
03F1C0
033980
061F80
060E00
000000
000000
000000
3801C0
380180
380380
380380
300380
700380
700380
700700
600700
600700
E00700
E00F00
E01E00
E03E00
F0FE00
FFEE00
7F8E00
3E0C00
ENDCHAR
STARTCHAR Umacron
ENCODING 362
SWIDTH 600 0
DWIDTH 22 0
BBX 19 28 2 0
BITMAP
01FF80
01FF80
000000
000000
1C00E0
1C00E0
1C00E0
1800C0
3800C0
3801C0
3801C0
3801C0
300180
700380
700380
700380
700380
600300
E00700
E00700
E00700
E00F00
E00E00
701E00
783C00
3FF800
3FF000
0FC000
ENDCHAR
STARTCHAR umacron
ENCODING 363
SWIDTH 600 0
DWIDTH 22 0
BBX 18 24 2 0
BITMAP
01FF00
03FF00
000000
000000
000000
000000
3801C0
380180
380380
380380
300380
700380
700380
700700
600700
600700
E00700
E00F00
E01E00
E03E00
F0FE00
FFEE00
7F8E00
3E0C00
ENDCHAR
STARTCHAR Ubreve
ENCODING 364
SWIDTH 600 0
DWIDTH 22 0
BBX 19 30 2 0
BITMAP
0180C0
018180
01C380
00FF00
007C00
000000
1C00E0
1C00E0
1C00E0
1800C0
3800C0
3801C0
3801C0
3801C0
300180
700380
700380
700380
700380
600300
E00700
E00700
E00700
E00F00
E00E00
701E00
783C00
3FF800
3FF000
0FC000
ENDCHAR
STARTCHAR ubreve
ENCODING 365
SWIDTH 600 0
DWIDTH 22 0
BBX 18 26 2 0
BITMAP
030180
030380
038700
01FE00
00F800
000000
000000
000000
3801C0
380180
380380
380380
300380
700380
700380
700700
600700
600700
E00700
E00F00
E01E00
E03E00
F0FE00
FFEE00
7F8E00
3E0C00
ENDCHAR
STARTCHAR Uring
ENCODING 366
SWIDTH 600 0
DWIDTH 22 0
BBX 19 31 2 0
BITMAP
001E00
006300
006300
004300
006600
003C00
000000
1C00E0
1C00E0
1C00E0
1800C0
3800C0
3801C0
3801C0
3801C0
300180
700380
700380
700380
700380
600300
E00700
E00700
E00700
E00F00
E00E00
701E00
783C00
3FF800
3FF000
0FC000
ENDCHAR
STARTCHAR uring
ENCODING 367
SWIDTH 600 0
DWIDTH 22 0
BBX 18 26 2 0
BITMAP
007C00
00C600
008600
018600
00CC00
007800
000000
000000
3801C0
380180
380380
380380
300380
700380
700380
700700
600700
600700
E00700
E00F00
E01E00
E03E00
F0FE00
FFEE00
7F8E00
3E0C00
ENDCHAR
STARTCHAR Uhungarumlaut
ENCODING 368
SWIDTH 600 0
DWIDTH 22 0
BBX 20 31 2 0
BITMAP
000820
001C70
0038E0
0071C0
006380
00C300
000000
1C00E0
1C00E0
1C00E0
1800C0
3800C0
3801C0
3801C0
3801C0
300180
700380
700380
700380
700380
600300
E00700
E00700
E00700
E00F00
E00E00
701E00
783C00
3FF800
3FF000
0FC000
ENDCHAR
STARTCHAR uhungarumlaut
ENCODING 369
SWIDTH 600 0
DWIDTH 22 0
BBX 19 27 2 0
BITMAP
001040
001CE0
0039C0
007180
006300
00C700
018200
000000
000000
3801C0
380180
380380
380380
300380
700380
700380
700700
600700
600700
E00700
E00F00
E01E00
E03E00
F0FE00
FFEE00
7F8E00
3E0C00
ENDCHAR
STARTCHAR Uogonek
ENCODING 370
SWIDTH 600 0
DWIDTH 22 0
BBX 19 32 2 -8
BITMAP
1C00E0
1C00E0
1C00E0
1800C0
3800C0
3801C0
3801C0
3801C0
3801C0
700180
700380
700380
700380
700380
E00300
E00700
E00700
E00700
E00E00
700E00
701C00
7EF800
3FF000
0FE000
070000
0C0000
180000
180000
380000
390000
1F8000
1F0000
ENDCHAR
STARTCHAR uogonek
ENCODING 371
SWIDTH 600 0
DWIDTH 22 0
BBX 18 26 2 -8
BITMAP
3801C0
380180
380380
380380
300380
700380
700380
700700
600700
600700
E00700
E00F00
E01E00
E03E00
F0FE00
FFEE00
7F8E00
3E0C00
001C00
003000
006000
00C000
00C000
00C400
00FC00
007800
ENDCHAR
STARTCHAR Wcircumflex
ENCODING 372
SWIDTH 600 0
DWIDTH 22 0
BBX 21 30 2 0
BITMAP
003C00
007E00
00E700
018380
030100
000000
700038
700038
700030
700070
700070
700060
700060
70E0E0
60E0E0
61E0C0
61E1C0
61F1C0
633180
633380
E73380
E63300
EE3300
EC3700
EC3600
F83600
D83600
F83E00
F03C00
F03C00
ENDCHAR
STARTCHAR wcircumflex
ENCODING 373
SWIDTH 600 0
DWIDTH 22 0
BBX 20 27 2 0
BITMAP
007800
00FC00
01EE00
038600
070700
020200
000000
000000
000000
C00030
C0E070
C0E060
C1E0E0
C1E0E0
C1E0C0
C361C0
C36180
C77380
C67380
CE7300
EC7700
CC7600
DC7E00
D83E00
D83C00
F03C00
F03800
ENDCHAR
STARTCHAR Ycircumflex
ENCODING 374
SWIDTH 600 0
DWIDTH 22 0
BBX 19 30 4 0
BITMAP
00F000
01F800
039C00
0E0C00
0C0600
000000
E001E0
E001C0
700380
700700
700F00
300E00
381C00
383C00
383800
1C7000
1C7000
1CE000
0DC000
0FC000
0F8000
070000
070000
060000
0E0000
0E0000
0E0000
0C0000
1C0000
1C0000
ENDCHAR
STARTCHAR ycircumflex
ENCODING 375
SWIDTH 600 0
DWIDTH 22 0
BBX 23 34 -2 -7
BITMAP
000780
000FC0
001EE0
003860
007070
002020
000000
000000
000000
07000E
07001C
030018
038038
038070
038070
0180E0
01C0C0
01C1C0
01C380
00C380
00C700
00E600
00EE00
006C00
007800
007800
007000
007000
00E000
01C000
83C000
7F8000
7F0000
FC0000
ENDCHAR
STARTCHAR Ydieresis
ENCODING 376
SWIDTH 600 0
DWIDTH 22 0
BBX 19 29 4 0
BITMAP
070C00
071E00
060C00
000000
000000
E001E0
E001C0
700380
700700
700F00
300E00
381C00
383C00
383800
1C7000
1C7000
1CE000
0DC000
0FC000
0F8000
070000
070000
060000
0E0000
0E0000
0E0000
0C0000
1C0000
1C0000
ENDCHAR
STARTCHAR Zacute
ENCODING 377
SWIDTH 600 0
DWIDTH 22 0
BBX 20 31 1 0
BITMAP
000080
000380
0007C0
001F00
003C00
001000
000000
0FFFF0
0FFFF0
0FFFF0
0001E0
0001C0
000380
000700
000E00
001C00
003C00
007800
007000
00E000
01C000
038000
070000
0F0000
1E0000
1C0000
380000
700000
FFFF80
FFFF80
FFFF80
ENDCHAR
STARTCHAR zacute
ENCODING 378
SWIDTH 600 0
DWIDTH 22 0
BBX 18 28 1 0
BITMAP
000100
000380
000780
000E00
003C00
007800
002000
000000
000000
000000
1FFFC0
1FFFC0
1FFFC0
000380
000700
001E00
003C00
007800
00E000
01C000
038000
070000
0E0000
1C0000
380000
7FFF00
FFFF00
FFFF00
ENDCHAR
STARTCHAR Zdotaccent
ENCODING 379
SWIDTH 600 0
DWIDTH 22 0
BBX 20 30 1 0
BITMAP
000C00
001E00
001C00
001C00
000000
000000
0FFFF0
0FFFF0
0FFFF0
0001E0
0001C0
000380
000700
000E00
001C00
003C00
007800
007000
00E000
01C000
038000
070000
0F0000
1E0000
1C0000
380000
700000
FFFF80
FFFF80
FFFF80
ENDCHAR
STARTCHAR zdotaccent
ENCODING 380
SWIDTH 600 0
DWIDTH 22 0
BBX 18 25 1 0
BITMAP
001C00
003C00
003C00
003800
000000
000000
000000
1FFFC0
1FFFC0
1FFFC0
000380
000700
001E00
003C00
007800
00E000
01C000
038000
070000
0E0000
1C0000
380000
7FFF00
FFFF00
FFFF00
ENDCHAR
STARTCHAR Zcaron
ENCODING 381
SWIDTH 600 0
DWIDTH 22 0
BBX 20 31 1 0
BITMAP
00C040
00E1E0
007380
003F00
003E00
000000
000000
0FFFF0
0FFFF0
0FFFF0
0001E0
0001C0
000380
000700
000E00
001C00
003C00
007800
007000
00E000
01C000
038000
070000
0F0000
1E0000
1C0000
380000
700000
FFFF80
FFFF80
FFFF80
ENDCHAR
STARTCHAR zcaron
ENCODING 382
SWIDTH 600 0
DWIDTH 22 0
BBX 18 27 1 0
BITMAP
0080C0
01C1C0
00E380
006700
007E00
003C00
000000
000000
000000
1FFFC0
1FFFC0
1FFFC0
000380
000700
001E00
003C00
007800
00E000
01C000
038000
070000
0E0000
1C0000
380000
7FFF00
FFFF00
FFFF00
ENDCHAR
STARTCHAR longs
ENCODING 383
SWIDTH 600 0
DWIDTH 22 0
BBX 19 26 4 0
BITMAP
001F00
007FC0
00FFE0
01E0C0
03C000
038000
038000
038000
FF8000
FF0000
FF0000
070000
070000
060000
0E0000
0E0000
0E0000
0E0000
0C0000
1C0000
1C0000
1C0000
1C0000
180000
380000
380000
ENDCHAR
STARTCHAR uni0180
ENCODING 384
SWIDTH 600 0
DWIDTH 22 0
BBX 18 26 1 0
BITMAP
070000
070000
070000
3FFE00
3FFE00
3FFE00
0E0000
0E0000
0E0000
0C3E00
1CFF80
1FFF80
1F83C0
1E01C0
1C01C0
3801C0
3801C0
3801C0
3001C0
3001C0
700380
780780
7C1F00
7FFE00
6FFC00
E3F000
ENDCHAR
STARTCHAR uni018A
ENCODING 394
SWIDTH 600 0
DWIDTH 22 0
BBX 20 24 1 0
BITMAP
00FC00
03FF80
0FFFC0
1EE3E0
38E1E0
30E0F0
70C070
60C070
61C070
E1C070
E1C070
E18070
718070
7B8070
3380E0
0380E0
0301E0
0701C0
0703C0
070780
061F00
07FE00
0FF800
0FC000
ENDCHAR
STARTCHAR uni018F
ENCODING 399
SWIDTH 600 0
DWIDTH 22 0
BBX 18 24 2 0
BITMAP
00FC00
03FF00
07FF80
0F0780
0C03C0
0001C0
0001C0
0001C0
0000C0
0000C0
0001C0
FFFFC0
FFFFC0
FFFFC0
E001C0
E00380
E00380
E00700
E00F00
F01E00
783C00
7FF800
3FF000
0FC000
ENDCHAR
STARTCHAR uni0192
ENCODING 402
SWIDTH 600 0
DWIDTH 22 0
BBX 23 28 -1 -4
BITMAP
000078
0001FE
0003FC
000784
000700
000600
000E00
000E00
000C00
01FFE0
01FFE0
01FFE0
001800
003800
003800
003000
007000
007000
006000
00E000
00E000
00C000
01C000
01C000
878000
FF8000
FF0000
7C0000
ENDCHAR
STARTCHAR uni0193
ENCODING 403
SWIDTH 600 0
DWIDTH 22 0
BBX 22 29 2 0
BITMAP
000078
0000FC
0000F8
0001C0
0001C0
007FC0
01FFC0
03FFC0
0FC1C0
0F00E0
1E0080
3C0000
380000
700000
700000
700000
E03FC0
E03F80
E03F80
E00380
E00380
E00300
F00300
700700
780700
3C0F00
3FFF00
0FFC00
03F000
ENDCHAR
STARTCHAR Ohorn
ENCODING 416
SWIDTH 600 0
DWIDTH 22 0
BBX 22 29 1 0
BITMAP
00000C
00001C
00001C
00001C
00001C
007E38
01FFF0
07FFC0
0F83C0
0F01C0
1C00E0
3C00E0
3800E0
380060
700060
7000E0
7000E0
6000E0
6000E0
E000E0
E001C0
6001C0
7003C0
700780
780F00
3C1F00
3FFE00
0FF800
07E000
ENDCHAR
STARTCHAR ohorn
ENCODING 417
SWIDTH 600 0
DWIDTH 22 0
BBX 19 24 2 0
BITMAP
000020
000060
000060
000060
000060
0000E0
01F9C0
07FF80
1FFE00
3E0F00
780700
700380
E00380
E00380
E00380
E00380
C00380
E00700
E00F00
F01E00
783E00
7FFC00
3FF000
0FC000
ENDCHAR
STARTCHAR Uhorn
ENCODING 431
SWIDTH 600 0
DWIDTH 22 0
BBX 24 30 2 0
BITMAP
000002
000007
000007
000007
000006
00000E
1C00F8
1C00E0
1C00E0
1800C0
3800C0
3801C0
3801C0
3801C0
3001C0
700380
700380
700380
700380
600380
E00700
E00700
E00700
E00F00
E00E00
701E00
783C00
3FF800
3FF000
0FC000
ENDCHAR
STARTCHAR uhorn
ENCODING 432
SWIDTH 600 0
DWIDTH 22 0
BBX 22 24 2 0
BITMAP
000008
00001C
00001C
000018
000018
000070
3801E0
380180
380380
380380
300380
700380
700300
700700
600700
600700
E00700
E00F00
E01E00
E03E00
F0FE00
FFEE00
7F8E00
3E0C00
ENDCHAR
STARTCHAR uni01C2
ENCODING 450
SWIDTH 600 0
DWIDTH 22 0
BBX 17 33 2 -7
BITMAP
003800
003800
003800
003800
003000
007000
007000
007000
007000
006000
00E000
00E000
3FFF80
3FFF80
7FFF00
00C000
01C000
01C000
01C000
FFFF00
FFFE00
FFFE00
038000
038000
030000
070000
070000
070000
060000
0E0000
0E0000
0E0000
0C0000
ENDCHAR
STARTCHAR uni01CD
ENCODING 461
SWIDTH 600 0
DWIDTH 22 0
BBX 21 31 -1 0
BITMAP
001018
003830
001CE0
000FC0
000780
000000
000000
000700
000F00
000F00
001B80
001B80
003380
007180
006180
00E180
00C180
01C180
0181C0
0381C0
0301C0
07FFC0
07FFC0
0FFFC0
0E00C0
1C00C0
1C00E0
3800E0
7800E0
7000E0
F000E0
ENDCHAR
STARTCHAR uni01CE
ENCODING 462
SWIDTH 600 0
DWIDTH 22 0
BBX 18 27 2 0
BITMAP
018080
0181C0
00C300
00EE00
007C00
003800
000000
000000
000000
01F0C0
07FDC0
0FFF80
1E0F80
3C0780
780380
700380
E00300
E00300
E00700
E00700
E00700
E00F00
E01E00
F87E00
7FFE00
3FCE00
1F8E00
ENDCHAR
STARTCHAR uni01CF
ENCODING 463
SWIDTH 600 0
DWIDTH 22 0
BBX 20 31 1 0
BITMAP
004060
00E0C0
007380
003F00
001E00
000000
000000
07FFF0
07FFE0
07FFE0
083800
003800
003800
003000
007000
007000
007000
007000
006000
00E000
00E000
00E000
00E000
00C000
01C000
01C000
01C000
018000
7FFE00
FFFE00
FFFE00
ENDCHAR
STARTCHAR uni01D0
ENCODING 464
SWIDTH 600 0
DWIDTH 22 0
BBX 15 27 4 0
BITMAP
0804
1C0E
0E38
0770
03E0
03C0
0000
0000
0000
FF80
FF80
FF80
0380
0300
0300
0700
0700
0600
0600
0E00
0E00
0E00
0E00
0E08
0FF8
07F8
03E0
ENDCHAR
STARTCHAR uni01D1
ENCODING 465
SWIDTH 600 0
DWIDTH 22 0
BBX 19 31 1 0
BITMAP
004060
00E0C0
007380
003F00
001E00
000000
000000
007E00
01FF00
07FF80
0F83C0
0F01E0
1C00E0
3C00E0
3800E0
380060
700060
7000E0
7000E0
6000E0
6000E0
E000E0
E001C0
6001C0
700380
700780
780F00
3C1F00
3FFC00
0FF800
07E000
ENDCHAR
STARTCHAR uni01D2
ENCODING 466
SWIDTH 600 0
DWIDTH 22 0
BBX 17 27 2 0
BITMAP
010080
038380
01C700
00CE00
00FC00
007800
000000
000000
000000
01F800
07FC00
1FFE00
3E0F00
780780
700380
E00380
E00380
E00380
E00380
C00380
E00700
E00F00
F01E00
783E00
7FF800
3FF000
0FC000
ENDCHAR
STARTCHAR uni01D3
ENCODING 467
SWIDTH 600 0
DWIDTH 22 0
BBX 19 31 2 0
BITMAP
0080C0
01C180
00E700
007E00
003C00
000000
000000
1C00E0
1C00E0
1C00E0
1800C0
3800C0
3801C0
3801C0
3801C0
300180
700380
700380
700380
700380
600300
E00700
E00700
E00700
E00F00
E00E00
701E00
783C00
3FF800
3FF000
0FC000
ENDCHAR
STARTCHAR uni01D4
ENCODING 468
SWIDTH 600 0
DWIDTH 22 0
BBX 18 27 2 0
BITMAP
010080
038380
01C700
00CE00
00FC00
007800
000000
000000
000000
3801C0
380180
380380
380380
300380
700380
700380
700700
600700
600700
E00700
E00F00
E01E00
E03E00
F0FE00
FFEE00
7F8E00
3E0C00
ENDCHAR
STARTCHAR uni01D5
ENCODING 469
SWIDTH 600 0
DWIDTH 22 0
BBX 19 33 2 0
BITMAP
00FFC0
00FF80
000000
000000
00C300
01C380
01C300
000000
000000
1C00E0
1C00E0
1C00E0
1800C0
3800C0
3801C0
3801C0
3801C0
300180
700380
700380
700380
700380
600300
E00700
E00700
E00700
E00F00
E00E00
701E00
783C00
3FF800
3FF000
0FC000
ENDCHAR
STARTCHAR uni01D6
ENCODING 470
SWIDTH 600 0
DWIDTH 22 0
BBX 18 29 2 0
BITMAP
00FF80
00FF80
010000
000000
000000
018700
038700
018600
000000
000000
000000
3801C0
380180
380380
380380
300380
700380
700380
700700
600700
600700
E00700
E00F00
E01E00
E03E00
F0FE00
FFEE00
7F8E00
3E0C00
ENDCHAR
STARTCHAR uni01D7
ENCODING 471
SWIDTH 600 0
DWIDTH 22 0
BBX 19 35 2 0
BITMAP
000100
000380
000700
000C00
001800
000000
00C300
01C380
01C300
000000
000000
1C00E0
1C00E0
1C00E0
1800C0
3800C0
3801C0
3801C0
3801C0
300180
700380
700380
700380
700380
600300
E00700
E00700
E00700
E00F00
E00E00
701E00
783C00
3FF800
3FF000
0FC000
ENDCHAR
STARTCHAR uni01D8
ENCODING 472
SWIDTH 600 0
DWIDTH 22 0
BBX 18 30 2 0
BITMAP
000200
000700
000E00
001800
001000
000000
018700
038700
018600
000000
000000
000000
3801C0
380180
380380
380380
300380
700380
700380
700700
600700
600700
E00700
E00F00
E01E00
E03E00
F0FE00
FFEE00
7F8E00
3E0C00
ENDCHAR
STARTCHAR uni01D9
ENCODING 473
SWIDTH 600 0
DWIDTH 22 0
BBX 19 34 2 0
BITMAP
004080
00F3C0
003F00
001C00
000000
00C300
01C380
01C300
000000
000000
1C00E0
1C00E0
1C00E0
1800C0
3800C0
3801C0
3801C0
3801C0
300180
700380
700380
700380
700380
600300
E00700
E00700
E00700
E00F00
E00E00
701E00
783C00
3FF800
3FF000
0FC000
ENDCHAR
STARTCHAR uni01DA
ENCODING 474
SWIDTH 600 0
DWIDTH 22 0
BBX 18 30 2 0
BITMAP
008180
00E300
007E00
003C00
000000
000000
018700
038700
018600
000000
000000
000000
3801C0
380180
380380
380380
300380
700380
700380
700700
600700
600700
E00700
E00F00
E01E00
E03E00
F0FE00
FFEE00
7F8E00
3E0C00
ENDCHAR
STARTCHAR uni01DB
ENCODING 475
SWIDTH 600 0
DWIDTH 22 0
BBX 19 35 2 0
BITMAP
002000
007000
003800
001800
000C00
000000
00C300
01C380
01C300
000000
000000
1C00E0
1C00E0
1C00E0
1800C0
3800C0
3801C0
3801C0
3801C0
300180
700380
700380
700380
700380
600300
E00700
E00700
E00700
E00F00
E00E00
701E00
783C00
3FF800
3FF000
0FC000
ENDCHAR
STARTCHAR uni01DC
ENCODING 476
SWIDTH 600 0
DWIDTH 22 0
BBX 18 30 2 0
BITMAP
002000
007000
003000
001800
001800
000000
018700
038700
018600
000000
000000
000000
3801C0
380180
380380
380380
300380
700380
700380
700700
600700
600700
E00700
E00F00
E01E00
E03E00
F0FE00
FFEE00
7F8E00
3E0C00
ENDCHAR
STARTCHAR uni01E2
ENCODING 482
SWIDTH 600 0
DWIDTH 22 0
BBX 25 28 -2 0
BITMAP
0000FF80
0001FF80
00000000
00000000
0003FF80
0007FF80
0007FF80
000FC000
001DC000
001D8000
00398000
00318000
00738000
00E38000
00E3FC00
01C3FC00
01C3FC00
03870000
07070000
07FE0000
0FFE0000
0FFE0000
1E060000
3C0E0000
380C0000
700FF800
700FF800
E01FF800
ENDCHAR
STARTCHAR uni01E3
ENCODING 483
SWIDTH 600 0
DWIDTH 22 0
BBX 23 24 -1 0
BITMAP
003FE0
007FE0
000000
000000
000000
000000
03E0F0
0FF3FC
1FFFFC
1C3F0C
101C0E
00180E
00180E
01FFFC
0FFFFC
1E3FFC
703000
603000
E03000
E07800
E1FC30
FFDFF0
7F9FE0
3E07C0
ENDCHAR
STARTCHAR Gcaron
ENCODING 486
SWIDTH 600 0
DWIDTH 22 0
BBX 19 31 2 0
BITMAP
00C040
00E1E0
007380
003F00
001E00
000000
000000
007E00
01FF00
03FF80
0FC1C0
0F00E0
1E0080
3C0000
380000
700000
700000
700000
E00000
E03FC0
E03F80
E03F80
E00380
E00380
F00300
700300
780700
3C0F00
3FFF00
0FFC00
03F000
ENDCHAR
STARTCHAR gcaron
ENCODING 487
SWIDTH 600 0
DWIDTH 22 0
BBX 19 34 1 -7
BITMAP
00C040
00C0E0
006180
007700
003E00
001C00
000000
000000
000000
00F860
03FEE0
0FFFC0
0F07C0
1E03C0
3C01C0
3801C0
700180
700180
700380
700380
700380
700700
781F00
3FFF00
3FF700
0FC700
000600
000E00
000E00
801C00
E07C00
FFF800
7FF000
1FC000
ENDCHAR
STARTCHAR uni01EA
ENCODING 490
SWIDTH 600 0
DWIDTH 22 0
BBX 19 32 1 -8
BITMAP
007E00
01FF00
07FF80
0F83C0
0F01E0
1C00E0
3C00E0
3800E0
380060
700060
7000E0
7000E0
6000E0
6000E0
E000E0
E001C0
6001C0
7003C0
700780
780F00
3C1F00
3FFE00
1FF800
07E000
030000
060000
0C0000
0C0000
1C0000
1C8000
0FC000
078000
ENDCHAR
STARTCHAR uni01EB
ENCODING 491
SWIDTH 600 0
DWIDTH 22 0
BBX 17 26 2 -8
BITMAP
01F800
07FC00
1FFE00
3E0F00
780780
700380
E00380
E00380
E00380
E00380
C00380
E00700
E00F00
F01E00
783E00
7FFC00
3FF000
0FC000
070000
0C0000
180000
180000
380000
390000
1F8000
0F0000
ENDCHAR
STARTCHAR uni01F4
ENCODING 500
SWIDTH 600 0
DWIDTH 22 0
BBX 19 31 2 0
BITMAP
000080
000380
0007C0
000F00
001C00
001800
000000
007E00
01FF00
03FF80
0FC1C0
0F00E0
1E0080
3C0000
380000
700000
700000
700000
E00000
E03FC0
E03F80
E03F80
E00380
E00380
F00300
700300
780700
3C0F00
3FFF00
0FFC00
03F000
ENDCHAR
STARTCHAR uni01F5
ENCODING 501
SWIDTH 600 0
DWIDTH 22 0
BBX 19 35 1 -7
BITMAP
000080
000380
0007C0
000F00
001E00
003800
001000
000000
000000
000000
00F860
03FEE0
0FFFC0
0F07C0
1E03C0
3C01C0
3801C0
700180
700180
700380
700380
700380
700700
781F00
3FFF00
3FF700
0FC700
000600
000E00
000E00
801C00
E07C00
FFF800
7FF000
1FC000
ENDCHAR
STARTCHAR uni01F8
ENCODING 504
SWIDTH 600 0
DWIDTH 22 0
BBX 20 31 1 0
BITMAP
002000
007000
003800
001C00
000E00
000400
000000
0F0070
0F0070
0F0070
0F8060
0D80E0
0D80E0
1D80E0
1DC0E0
18C0C0
18C0C0
18E1C0
3861C0
3861C0
387180
303180
303380
703B80
703B80
701B00
601B00
601F00
E00F00
E00F00
E00E00
ENDCHAR
STARTCHAR uni01F9
ENCODING 505
SWIDTH 600 0
DWIDTH 22 0
BBX 18 28 1 0
BITMAP
002000
007000
007800
003800
001C00
000E00
000E00
000400
000000
000000
0C1F00
1C7F80
1DFFC0
1FC3C0
1F01C0
1E01C0
1C01C0
3801C0
3801C0
380180
380380
300380
700380
700380
700300
700700
600700
E00700
ENDCHAR
STARTCHAR Aringacute
ENCODING 506
SWIDTH 600 0
DWIDTH 22 0
BBX 20 35 -1 0
BITMAP
000020
000070
0000E0
000380
0007C0
000EE0
000C60
000860
000CC0
000780
000000
000700
000F00
000F00
001F80
001B80
003B80
007180
007180
00E180
00E180
01C180
01C1C0
0381C0
0301C0
07FFC0
07FFC0
0FFFC0
0E00C0
1C00C0
1C00E0
3800E0
7800E0
7000E0
F000E0
ENDCHAR
STARTCHAR aringacute
ENCODING 507
SWIDTH 600 0
DWIDTH 22 0
BBX 18 30 2 0
BITMAP
000300
000700
001C00
003C00
006600
00C300
00C300
00C600
00C600
007C00
000000
000000
01F0C0
07FDC0
0FFF80
1E0F80
3C0380
780380
700380
E00300
E00300
E00700
E00700
E00700
E00F00
E01E00
F87E00
7FFE00
3FCE00
1F8E00
ENDCHAR
STARTCHAR AEacute
ENCODING 508
SWIDTH 600 0
DWIDTH 22 0
BBX 25 31 -2 0
BITMAP
00000100
00000380
00000F80
00001E00
00003800
00001000
00000000
0003FF80
0007FF80
0007FF80
000FC000
001DC000
001D8000
00398000
00318000
00738000
00E38000
00E3FC00
01C3FC00
01C3FC00
03870000
07070000
07FE0000
0FFE0000
0FFE0000
1E060000
3C0E0000
380C0000
700FF800
700FF800
E01FF800
ENDCHAR
STARTCHAR aeacute
ENCODING 509
SWIDTH 600 0
DWIDTH 22 0
BBX 23 28 -1 0
BITMAP
000040
0000E0
0001E0
0003C0
000700
000E00
000C00
000000
000000
000000
03E0F0
0FF3FC
1FFFFC
1C3F0C
101C0E
00180E
00180E
01FFFC
0FFFFC
1E3FFC
703000
603000
E03000
E07800
E1FC30
FFDFF0
7F9FE0
3E07C0
ENDCHAR
STARTCHAR Oslashacute
ENCODING 510
SWIDTH 600 0
DWIDTH 22 0
BBX 24 32 -1 -1
BITMAP
000020
000070
0001F0
0003C0
000700
000200
000004
001F86
007FCF
01FFFC
03E0F8
03C078
0700F8
0F01F8
0E0398
0E0398
1C0718
1C0E18
1C1C38
183838
187038
38E038
39C070
1BC070
1F80E0
1F01E0
1E03C0
1F07C0
3FFF00
73FE00
E1F800
200000
ENDCHAR
STARTCHAR oslashacute
ENCODING 511
SWIDTH 600 0
DWIDTH 22 0
BBX 21 29 0 -1
BITMAP
000080
0001C0
0003C0
000700
000E00
001C00
001000
000000
000000
000020
007E30
01FF78
07FFE0
0F81C0
1E03E0
1C0FE0
3C1EE0
383CE0
3878E0
30E0E0
31C0E0
3381C0
3F03C0
3E0780
1C0F80
3FFE00
7FFC00
E3F000
400000
ENDCHAR
STARTCHAR uni0218
ENCODING 536
SWIDTH 600 0
DWIDTH 22 0
BBX 18 32 1 -8
BITMAP
00FC00
03FF00
07FF80
0783C0
0F01C0
0E0080
0E0000
0E0000
070000
078000
03E000
01F800
007C00
001E00
000F00
000700
000300
000300
600700
F00700
7C1F00
3FFE00
1FFC00
07F000
000000
000000
038000
01C000
00C000
00C000
038000
0E0000
ENDCHAR
STARTCHAR uni0219
ENCODING 537
SWIDTH 600 0
DWIDTH 22 0
BBX 16 26 2 -8
BITMAP
03F0
0FFC
1FFE
1C0F
1803
1800
1C00
0F80
07E0
01F8
003C
000E
400E
E00E
F81E
7FFC
1FF8
07E0
0000
0000
0700
0380
0180
0180
0300
1C00
ENDCHAR
STARTCHAR uni021A
ENCODING 538
SWIDTH 600 0
DWIDTH 22 0
BBX 19 32 4 -8
BITMAP
FFFFE0
FFFFC0
FFFFC0
01C000
01C000
01C000
018000
038000
038000
038000
038000
030000
070000
070000
070000
070000
060000
0E0000
0E0000
0E0000
0E0000
0C0000
1C0000
1C0000
000000
000000
380000
1C0000
0C0000
0C0000
180000
F00000
ENDCHAR
STARTCHAR uni021B
ENCODING 539
SWIDTH 600 0
DWIDTH 22 0
BBX 17 32 3 -8
BITMAP
018000
038000
038000
030000
030000
070000
FFFF80
FFFF00
FFFF00
060000
0E0000
0E0000
0E0000
0C0000
0C0000
1C0000
1C0000
1C0000
1C0000
1C0000
1E0C00
1FFC00
0FF800
07E000
000000
000000
038000
05C000
00C000
01C000
038000
0E0000
ENDCHAR
STARTCHAR uni0237
ENCODING 567
SWIDTH 600 0
DWIDTH 22 0
BBX 17 25 -1 -7
BITMAP
03FF80
03FF80
03FF80
000300
000700
000700
000700
000600
000600
000E00
000E00
000E00
000C00
001C00
001C00
001C00
001C00
001800
003800
003800
007800
60F000
7FE000
FFC000
1F8000
ENDCHAR
STARTCHAR uni0243
ENCODING 579
SWIDTH 600 0
DWIDTH 22 0
BBX 20 24 0 0
BITMAP
03FF00
03FFC0
03FFE0
0701F0
070070
070060
0600E0
0601C0
0FFF80
0FFC00
0FFF00
0E03C0
1C01C0
1C00E0
FFE0E0
FFE0E0
FFE0E0
1800E0
3801C0
3803C0
380F80
3FFF00
3FFE00
3FF800
ENDCHAR
STARTCHAR uni0250
ENCODING 592
SWIDTH 600 0
DWIDTH 22 0
BBX 17 18 2 0
BITMAP
387E00
39FF00
3BFF80
3F8780
3E0380
380380
700300
700F00
707E00
7FF800
7F0000
E00000
E00000
E00C00
F03C00
7FFE00
3FF000
1F8000
ENDCHAR
STARTCHAR uni0251
ENCODING 593
SWIDTH 600 0
DWIDTH 22 0
BBX 18 18 2 0
BITMAP
01F0C0
07FDC0
0FFF80
1E0F80
3C0780
780380
700380
E00300
E00300
E00700
E00700
E00700
E00F00
E01E00
F87E00
7FFE00
3FCE00
1F8E00
ENDCHAR
STARTCHAR uni0252
ENCODING 594
SWIDTH 600 0
DWIDTH 22 0
BBX 18 18 1 0
BITMAP
0C3E00
1CFF00
1DFF80
1F83C0
1E01C0
1C01C0
1801C0
3801C0
3801C0
3801C0
3001C0
300380
700380
780700
7C1F00
7FFE00
6FFC00
E3F000
ENDCHAR
STARTCHAR uni0253
ENCODING 595
SWIDTH 600 0
DWIDTH 22 0
BBX 18 26 1 0
BITMAP
007C00
01FE00
03FC00
078400
070000
0E0000
0E0000
0E0000
0E3E00
0CFF00
1FFF80
1F83C0
1E01C0
1C01C0
1801C0
3801C0
3801C0
3801C0
3001C0
300380
700380
780700
7C1F00
7FFE00
6FFC00
E3F000
ENDCHAR
STARTCHAR uni0254
ENCODING 596
SWIDTH 600 0
DWIDTH 22 0
BBX 17 18 1 0
BITMAP
01F800
07FE00
0FFF00
1E0F80
180780
000380
000380
000180
000180
000380
000380
000380
000700
400F00
F03E00
7FFC00
3FF000
0FC000
ENDCHAR
STARTCHAR uni0255
ENCODING 597
SWIDTH 600 0
DWIDTH 22 0
BBX 19 21 1 -3
BITMAP
007E00
03FF00
07FF80
0F83C0
1E00E0
3C0000
380000
380000
703E00
707F00
71FF80
33C380
3F8380
3F0300
1E0700
1FFF00
3FFE00
39F800
700000
600000
E00000
ENDCHAR
STARTCHAR uni0256
ENCODING 598
SWIDTH 600 0
DWIDTH 22 0
BBX 20 33 2 -7
BITMAP
000070
000060
0000E0
0000E0
0000E0
0000E0
0000C0
0001C0
01F1C0
07FDC0
0FFF80
1E0F80
3C0380
780380
700380
E00300
E00300
E00700
E00700
E00700
E00E00
E01E00
F87E00
7FFE00
3FCE00
1F0C00
001C00
001C00
001C00
001C00
001F80
001F80
000F00
ENDCHAR
STARTCHAR uni0257
ENCODING 599
SWIDTH 600 0
DWIDTH 22 0
BBX 23 26 2 0
BITMAP
00001E
00007E
00007C
0000F0
0000E0
0000E0
0000C0
0001C0
01F1C0
07FDC0
0FFFC0
1E0F80
3C0380
780380
700380
E00380
E00300
E00700
E00700
E00700
E00F00
E01E00
F87E00
7FFE00
3FCE00
1F0E00
ENDCHAR
STARTCHAR uni0258
ENCODING 600
SWIDTH 600 0
DWIDTH 22 0
BBX 17 18 2 0
BITMAP
01F800
07FE00
1FFF00
1E0F00
380780
700380
600380
7FFF80
7FFF80
7FFF80
000380
000700
000700
400E00
F03E00
7FFC00
3FF000
0FC000
ENDCHAR
STARTCHAR uni0259
ENCODING 601
SWIDTH 600 0
DWIDTH 22 0
BBX 17 18 2 0
BITMAP
01F800
07FE00
1FFF00
1C0F00
100780
000380
000380
000380
FFFF80
FFFF80
FFFF80
E00300
E00700
E00E00
F03E00
7FFC00
3FF000
0FC000
ENDCHAR
STARTCHAR uni025A
ENCODING 602
SWIDTH 600 0
DWIDTH 22 0
BBX 23 18 0 0
BITMAP
03F000
0FF800
1FFC00
1C1E00
200EF0
000FE0
001F60
00FE34
03EE3C
1F0E1E
FC0C00
E01C00
C01C00
E03800
F0F000
7FF000
3FC000
1F8000
ENDCHAR
STARTCHAR uni025B
ENCODING 603
SWIDTH 600 0
DWIDTH 22 0
BBX 17 18 2 0
BITMAP
03F800
0FFE00
1FFF00
1E0780
380180
380000
1C0000
0FF000
0FF000
3FF000
780000
E00000
E00000
E00400
F81E00
7FFE00
3FF800
0FE000
ENDCHAR
STARTCHAR uni025C
ENCODING 604
SWIDTH 600 0
DWIDTH 22 0
BBX 16 18 2 0
BITMAP
01F8
0FFE
1FFF
1C0F
1003
0007
000E
03FC
07F8
07FC
001E
0007
0007
E00F
F81E
7FFC
3FF8
0FE0
ENDCHAR
STARTCHAR uni025E
ENCODING 606
SWIDTH 600 0
DWIDTH 22 0
BBX 17 18 2 0
BITMAP
01FC00
07FE00
1FFF00
3E0780
7C0380
700300
F00F00
E0FE00
E0F800
E0FE00
C10F00
E00700
E00700
F00700
781E00
7FFE00
1FFC00
07E000
ENDCHAR
STARTCHAR uni025F
ENCODING 607
SWIDTH 600 0
DWIDTH 22 0
BBX 21 25 -1 -7
BITMAP
03FF80
03FF80
03FF80
000300
000700
000700
000700
000700
03FFF8
03FFF8
07FFF8
000E00
000E00
000C00
001C00
001C00
001C00
001C00
003800
003800
007800
60F000
7FF000
FFE000
1F8000
ENDCHAR
STARTCHAR uni0260
ENCODING 608
SWIDTH 600 0
DWIDTH 22 0
BBX 23 30 1 -7
BITMAP
00001E
00003E
00007E
000070
0000E0
00F8E0
03FEE0
0FFFE0
0F07C0
1E03C0
3C01C0
3801C0
7001C0
700380
700380
700380
700380
700F00
7C3F00
3FFF00
1FF700
0FC700
000600
000E00
000E00
801E00
E07C00
FFF800
7FF000
1FC000
ENDCHAR
STARTCHAR uni0261
ENCODING 609
SWIDTH 600 0
DWIDTH 22 0
BBX 19 25 1 -7
BITMAP
00F860
03FEE0
0FFFC0
0F07C0
1E03C0
3C01C0
3801C0
700180
700180
700380
700380
700380
700700
781F00
3FFF00
3FF700
0FC700
000600
000E00
000E00
801C00
E07C00
FFF800
7FF000
1FC000
ENDCHAR
STARTCHAR uni0262
ENCODING 610
SWIDTH 600 0
DWIDTH 22 0
BBX 17 18 2 0
BITMAP
00FC00
07FE00
0FFF00
1F0780
3C0180
780000
700000
700000
E00000
E07F00
E07F00
E00700
F00700
700700
7C0E00
3FFE00
1FFC00
07F000
ENDCHAR
STARTCHAR uni0263
ENCODING 611
SWIDTH 600 0
DWIDTH 22 0
BBX 18 25 3 -7
BITMAP
E001C0
600380
700300
700700
700E00
300C00
301C00
383800
383000
187000
18E000
1CC000
1DC000
0D8000
0F0000
0F0000
1F0000
1B8000
338000
338000
638000
738000
7F0000
7F0000
3C0000
ENDCHAR
STARTCHAR uni0264
ENCODING 612
SWIDTH 600 0
DWIDTH 22 0
BBX 17 18 3 0
BITMAP
7C0F80
7E3F80
7F7F80
87F100
03E000
07E000
0FE000
1C7000
383000
303800
703800
603800
603800
E07000
70F000
7FE000
7FC000
1F0000
ENDCHAR
STARTCHAR uni0265
ENCODING 613
SWIDTH 600 0
DWIDTH 22 0
BBX 18 25 2 -7
BITMAP
3801C0
3801C0
380380
380380
300380
700380
700380
700700
600700
600700
E00700
E00F00
E01E00
E03E00
F0FE00
FFEE00
7F8E00
3E0C00
001C00
001C00
001C00
001C00
001800
003800
003800
ENDCHAR
STARTCHAR uni0266
ENCODING 614
SWIDTH 600 0
DWIDTH 22 0
BBX 18 26 1 0
BITMAP
007C00
01FE00
03FC00
078400
070000
0E0000
0E0000
0E0000
0E1F00
0C7F80
1DFFC0
1FC3C0
1F01C0
1E01C0
1C01C0
3801C0
380180
380180
380380
300380
700380
700300
700300
700700
600700
E00700
ENDCHAR
STARTCHAR uni0267
ENCODING 615
SWIDTH 600 0
DWIDTH 22 0
BBX 18 33 1 -7
BITMAP
007C00
01FE00
03FC00
078400
070000
0E0000
0E0000
0E0000
0E1F00
0C7F80
1DFFC0
1FC3C0
1F01C0
1E01C0
1C01C0
3801C0
380180
380180
380380
300380
700380
700380
700300
700700
600700
E00700
000700
000E00
000E00
001E00
00FC00
00FC00
01F000
ENDCHAR
STARTCHAR uni0268
ENCODING 616
SWIDTH 600 0
DWIDTH 22 0
BBX 15 25 3 0
BITMAP
00E0
01F0
01F0
00E0
0000
0000
0000
7FC0
7FC0
7FC0
0180
0180
0380
FFFE
FFFC
FFFC
0700
0700
0700
0700
0700
0784
07FC
03FC
01F0
ENDCHAR
STARTCHAR uni026A
ENCODING 618
SWIDTH 600 0
DWIDTH 22 0
BBX 18 18 1 0
BITMAP
0FFFC0
0FFFC0
1FFFC0
007000
007000
007000
00E000
00E000
00E000
00E000
00C000
01C000
01C000
01C000
01C000
7FFE00
7FFE00
FFFE00
ENDCHAR
STARTCHAR uni026B
ENCODING 619
SWIDTH 600 0
DWIDTH 22 0
BBX 14 26 3 0
BITMAP
3FE0
3FE0
3FE0
00C0
00C0
01C0
01C0
0180
0180
0380
1F8C
3F8C
639C
63F8
C7F0
0700
0700
0600
0600
0E00
0E00
0E00
0F08
0FF8
07FC
03F0
ENDCHAR
STARTCHAR uni026C
ENCODING 620
SWIDTH 600 0
DWIDTH 22 0
BBX 14 26 3 0
BITMAP
3FE0
3FE0
3FE0
00C0
01C0
01C0
39C0
7F80
FF80
C780
C380
E380
FFFC
7FF8
3FF8
0700
0700
0600
0E00
0E00
0E00
0E00
0F08
0FF8
07FC
03F0
ENDCHAR
STARTCHAR uni026D
ENCODING 621
SWIDTH 600 0
DWIDTH 22 0
BBX 10 33 5 -7
BITMAP
FF80
FF80
FF80
0300
0300
0700
0700
0700
0600
0600
0E00
0E00
0C00
0C00
1C00
1C00
1C00
1800
1800
3800
3800
3800
3000
3000
7000
7000
7000
7000
7000
7040
7FC0
3FC0
1F00
ENDCHAR
STARTCHAR uni026E
ENCODING 622
SWIDTH 600 0
DWIDTH 22 0
BBX 20 33 1 -7
BITMAP
070000
060000
0E0000
0E0000
0E0000
0E0000
0C0000
1C0000
1FFFF0
1FFFF0
1FFFF0
1800C0
380380
380700
380E00
381C00
303800
707000
70FE00
71FF00
710780
600380
E00180
E00180
E00180
E00380
000380
000700
100F00
3C1E00
1FFC00
0FF800
03E000
ENDCHAR
STARTCHAR uni026F
ENCODING 623
SWIDTH 600 0
DWIDTH 22 0
BBX 21 18 0 0
BITMAP
1C1838
1C3838
183830
183870
383070
383070
387070
307060
3070E0
7060E0
7060E0
70E0E0
60E1C0
61E1C0
F3E7C0
FFFFC0
7EFDC0
7879C0
ENDCHAR
STARTCHAR uni0270
ENCODING 624
SWIDTH 600 0
DWIDTH 22 0
BBX 21 25 0 -7
BITMAP
1C1838
1C3838
183830
383870
383070
387070
387070
307060
7070E0
7060E0
70E0E0
70E0E0
60E1C0
E1E1C0
E3E7C0
FFFFC0
7EFDC0
787980
000180
000380
000380
000380
000300
000300
000700
ENDCHAR
STARTCHAR uni0271
ENCODING 625
SWIDTH 600 0
DWIDTH 22 0
BBX 20 25 0 -7
BITMAP
1CF0E0
19FBF0
1BFFF0
1E3E70
1C3C30
383870
383870
383070
383070
307060
7070E0
7070E0
7060E0
70E0E0
60E0C0
E0E1C0
E0C1C0
E0C1C0
0101C0
000180
000380
000380
001F00
003F00
001E00
ENDCHAR
STARTCHAR uni0272
ENCODING 626
SWIDTH 600 0
DWIDTH 22 0
BBX 22 25 -3 -7
BITMAP
00C1F0
01C7F8
01DFFC
01FC3C
01F01C
01E01C
03C01C
03801C
03801C
038018
038038
030038
070038
070038
070030
070070
060070
0E0070
0E0000
0E0000
0E0000
1C0000
FC0000
F80000
F00000
ENDCHAR
STARTCHAR uni0273
ENCODING 627
SWIDTH 600 0
DWIDTH 22 0
BBX 18 25 1 -7
BITMAP
0C1F00
0C7F80
1DFFC0
1FC3C0
1F01C0
1E01C0
1C01C0
3801C0
380180
380180
380380
300380
700380
700300
700300
700700
600700
E00700
000600
000600
000E00
000E00
000FC0
0007C0
0007C0
ENDCHAR
STARTCHAR uni0274
ENCODING 628
SWIDTH 600 0
DWIDTH 22 0
BBX 17 18 2 0
BITMAP
1C0380
1E0380
1E0300
1E0700
3F0700
3B0700
3B8700
338600
318600
71CE00
70CE00
70EE00
70EC00
606C00
E07C00
E03C00
E03C00
E03C00
ENDCHAR
STARTCHAR uni0275
ENCODING 629
SWIDTH 600 0
DWIDTH 22 0
BBX 17 18 2 0
BITMAP
01F800
07FC00
1FFE00
3E0F00
780780
700380
E00380
FFFF80
FFFF80
FFFF80
C00380
C00300
E00700
E00E00
783C00
7FFC00
3FF000
0FC000
ENDCHAR
STARTCHAR uni0276
ENCODING 630
SWIDTH 600 0
DWIDTH 22 0
BBX 22 18 0 0
BITMAP
01FFFC
07FFFC
0FFE00
1E0C00
3C0C00
781C00
701C00
701FF0
E01FF0
E01FE0
E03800
E03800
E03800
F03000
783000
7FFFF0
3FFFF0
0FFFE0
ENDCHAR
STARTCHAR uni0278
ENCODING 632
SWIDTH 600 0
DWIDTH 22 0
BBX 19 33 1 -7
BITMAP
001C00
001C00
001C00
001C00
001800
003800
003800
003800
01FC00
07FF00
1FFF80
3E77C0
3871C0
7070E0
F070E0
E0E0E0
E0E0E0
E0E0E0
E0E0E0
E1C1C0
E1C1C0
F1C380
79CF80
3FFF00
1FFC00
0FF000
038000
038000
030000
070000
070000
070000
070000
ENDCHAR
STARTCHAR uni0279
ENCODING 633
SWIDTH 600 0
DWIDTH 22 0
BBX 17 18 1 0
BITMAP
000380
000300
000700
000700
000700
000700
000600
000600
000E00
000E00
001E00
003E00
007C00
00EC00
41DC00
7F9C00
FF1C00
7C1800
ENDCHAR
STARTCHAR uni027A
ENCODING 634
SWIDTH 600 0
DWIDTH 22 0
BBX 19 26 1 0
BITMAP
0000E0
0000C0
0001C0
0001C0
0001C0
000180
000380
000380
000380
000380
000300
000700
000700
000700
000700
000600
000E00
000E00
001E00
001E00
007C00
00EC00
41DC00
7F9C00
FF1C00
7C1800
ENDCHAR
STARTCHAR uni027B
ENCODING 635
SWIDTH 600 0
DWIDTH 22 0
BBX 14 25 1 -7
BITMAP
001C
001C
001C
001C
0018
0038
0038
0038
0038
0030
0070
0070
00F0
01F0
43E0
7F60
FEE0
7CE0
00E0
00C0
00C0
00E4
00FC
00FC
0078
ENDCHAR
STARTCHAR uni027D
ENCODING 637
SWIDTH 600 0
DWIDTH 22 0
BBX 17 25 3 -7
BITMAP
0C1F00
0C7F80
1CFF00
1DE100
1F8000
1F0000
1E0000
1C0000
380000
380000
380000
300000
300000
700000
700000
700000
600000
600000
E00000
E00000
E00000
F0C000
7FE000
7FC000
1F0000
ENDCHAR
STARTCHAR uni027E
ENCODING 638
SWIDTH 600 0
DWIDTH 22 0
BBX 17 18 3 0
BITMAP
00FF00
03FF80
07FF00
0F8100
0E0000
1C0000
1C0000
180000
380000
380000
380000
380000
300000
700000
700000
700000
700000
E00000
ENDCHAR
STARTCHAR uni0280
ENCODING 640
SWIDTH 600 0
DWIDTH 22 0
BBX 15 18 3 0
BITMAP
1FF8
1FFC
1FFE
380E
380E
3806
300E
301E
7FFC
7FF8
7FE0
70E0
60E0
E070
E070
E038
E038
C01C
ENDCHAR
STARTCHAR uni0281
ENCODING 641
SWIDTH 600 0
DWIDTH 22 0
BBX 16 18 2 0
BITMAP
3807
1C07
0C07
0E07
0606
070E
07FE
1FFE
3FFE
780E
701C
601C
E01C
E01C
701C
7FF8
3FF8
1FF8
ENDCHAR
STARTCHAR uni0282
ENCODING 642
SWIDTH 600 0
DWIDTH 22 0
BBX 17 25 1 -7
BITMAP
01F800
07FE00
0FFF00
0E0780
0C0180
0C0000
0E0000
07C000
03F000
00FC00
001E00
000700
200700
700700
7C0F00
7FFE00
FFFC00
E7F000
E00000
E00000
E00000
E00000
FC0000
7C0000
7C0000
ENDCHAR
STARTCHAR uni0283
ENCODING 643
SWIDTH 600 0
DWIDTH 22 0
BBX 24 33 -1 -7
BITMAP
0000F8
0001FE
0003FF
000786
000700
000F00
000E00
000E00
000E00
000E00
001C00
001C00
001C00
001C00
001C00
003800
003800
003800
003800
003800
007000
007000
007000
007000
007000
00E000
00E000
00E000
00E000
61C000
7FC000
FF8000
1E0000
ENDCHAR
STARTCHAR uni0284
ENCODING 644
SWIDTH 600 0
DWIDTH 22 0
BBX 24 33 -1 -7
BITMAP
0000F8
0001FE
0003FF
000786
000700
000700
000E00
000E00
000E00
000E00
001C00
001C00
001C00
001C00
001C00
0FFFF0
0FFFE0
0FFFE0
003800
003800
003000
007000
007000
007000
007000
00E000
00E000
00E000
00E000
61C000
7FC000
FF8000
1F0000
ENDCHAR
STARTCHAR uni0287
ENCODING 647
SWIDTH 600 0
DWIDTH 22 0
BBX 17 24 1 -6
BITMAP
03F000
1FF800
1FFC00
183C00
001C00
001C00
001C00
001C00
001C00
001800
003800
003800
003800
003000
003000
7FFF80
7FFF80
FFFF80
006000
006000
00E000
00E000
00C000
00C000
ENDCHAR
STARTCHAR uni0288
ENCODING 648
SWIDTH 600 0
DWIDTH 22 0
BBX 17 31 3 -7
BITMAP
018000
038000
038000
030000
030000
070000
FFFF80
FFFF00
FFFF00
060000
0E0000
0E0000
0E0000
0E0000
0C0000
1C0000
1C0000
1C0000
180000
180000
380000
380000
380000
300000
300000
700000
380000
3C3000
3FF800
1FF000
0FC000
ENDCHAR
STARTCHAR uni0289
ENCODING 649
SWIDTH 600 0
DWIDTH 22 0
BBX 20 18 1 0
BITMAP
0E01C0
0E0180
0E0380
0C0380
1C0380
FFFFF0
FFFFE0
FFFFE0
180700
380700
380700
380600
380E00
381E00
3C7E00
3FEE00
1FCE00
0F0C00
ENDCHAR
STARTCHAR uni028A
ENCODING 650
SWIDTH 600 0
DWIDTH 22 0
BBX 18 18 2 0
BITMAP
3F0FC0
3F0FC0
7F1FC0
0E0C00
1C0600
180700
300700
700300
600700
E00700
E00700
E00F00
E00E00
F01E00
787C00
7FF800
3FF000
0FC000
ENDCHAR
STARTCHAR uni028B
ENCODING 651
SWIDTH 600 0
DWIDTH 22 0
BBX 17 18 2 0
BITMAP
383E00
383F00
383F80
380780
300380
700380
700380
700380
600380
600300
E00700
E00700
E00E00
F01E00
787C00
7FF800
3FE000
0FC000
ENDCHAR
STARTCHAR uni028C
ENCODING 652
SWIDTH 600 0
DWIDTH 22 0
BBX 18 18 0 0
BITMAP
003C00
003C00
007C00
00EE00
00EE00
01CE00
018600
038600
030700
070700
0E0700
0C0300
1C0380
180380
380380
700380
700180
E001C0
ENDCHAR
STARTCHAR uni028D
ENCODING 653
SWIDTH 600 0
DWIDTH 22 0
BBX 21 18 -2 0
BITMAP
00E078
01E078
01E0F8
03E0F8
0361F8
0361B8
0763B8
066338
0E6338
0C7738
0C7638
1C7638
187C38
387C38
383C38
703838
703838
E00038
ENDCHAR
STARTCHAR uni028E
ENCODING 654
SWIDTH 600 0
DWIDTH 22 0
BBX 23 26 0 0
BITMAP
00007C
0000FE
0001FC
0003C4
000700
000600
000E00
001C00
001C00
003C00
007C00
006C00
00EC00
00CE00
01CE00
038600
030600
070700
060700
0E0300
1C0300
180380
380380
700380
700180
E001C0
ENDCHAR
STARTCHAR uni028F
ENCODING 655
SWIDTH 600 0
DWIDTH 22 0
BBX 16 18 4 0
BITMAP
E007
E00E
701C
701C
7838
3870
38F0
1CE0
1DC0
1F80
0F80
0F00
0E00
0E00
0E00
0E00
0C00
1C00
ENDCHAR
STARTCHAR uni0290
ENCODING 656
SWIDTH 600 0
DWIDTH 22 0
BBX 18 25 1 -7
BITMAP
1FFFC0
1FFFC0
1FFFC0
000380
000700
001E00
003C00
007800
00E000
01C000
038000
070000
0E0000
1C0000
380000
7FFF00
FFFF00
FFFF00
000600
000600
000E00
000F00
0007C0
0007C0
0003C0
ENDCHAR
STARTCHAR uni0291
ENCODING 657
SWIDTH 600 0
DWIDTH 22 0
BBX 19 22 1 -4
BITMAP
1FFFC0
1FFFC0
1FFFC0
000780
000E00
001C00
003800
007000
00E1C0
01C7E0
038FE0
070E60
0E1C60
1C1860
3830E0
FFFFC0
FFFF80
FFFE00
006000
00C000
00C000
018000
ENDCHAR
STARTCHAR uni0292
ENCODING 658
SWIDTH 600 0
DWIDTH 22 0
BBX 20 25 -1 -7
BITMAP
03FFF0
03FFF0
03FFE0
0000C0
000380
000600
000C00
003800
007000
00E000
01FC00
03FF00
020780
000380
0001C0
0001C0
0001C0
0001C0
000380
400380
600F00
F81E00
3FFE00
1FF800
07E000
ENDCHAR
STARTCHAR uni0294
ENCODING 660
SWIDTH 600 0
DWIDTH 22 0
BBX 15 26 5 0
BITMAP
07E0
1FF8
7FFC
F03C
C01E
800E
000E
000E
000C
001C
0018
0030
00F0
01C0
0780
1E00
1C00
1C00
1C00
1800
3800
3800
3800
3800
3000
7000
ENDCHAR
STARTCHAR uni0295
ENCODING 661
SWIDTH 600 0
DWIDTH 22 0
BBX 16 26 5 0
BITMAP
03E0
1FF8
3FFC
7C1E
7807
7002
E000
E000
E000
E000
6000
7000
3800
3C00
1E00
0700
0700
0700
0600
0E00
0E00
0E00
0E00
1C00
1C00
1C00
ENDCHAR
STARTCHAR uni0298
ENCODING 664
SWIDTH 600 0
DWIDTH 22 0
BBX 18 26 2 0
BITMAP
00FC00
01FE00
07FF00
0F8780
0E0380
1E01C0
1C01C0
3801C0
3801C0
7001C0
7001C0
70E1C0
61E1C0
61E180
E0C180
E00380
E00380
E00300
E00700
E00F00
600E00
701C00
787C00
3FF800
1FF000
0FC000
ENDCHAR
STARTCHAR uni0299
ENCODING 665
SWIDTH 600 0
DWIDTH 22 0
BBX 16 18 2 0
BITMAP
0FFC
0FFF
1FFF
1C07
1C03
1C03
1807
380E
3FFC
3FFC
380E
3007
7007
700E
701E
7FFE
7FF8
FFE0
ENDCHAR
STARTCHAR uni029C
ENCODING 668
SWIDTH 600 0
DWIDTH 22 0
BBX 18 18 1 0
BITMAP
0E00C0
1C01C0
1C01C0
1C01C0
1C01C0
180180
380380
3FFF80
3FFF80
3FFF80
300300
300700
700700
700700
700700
700600
600E00
E00E00
ENDCHAR
STARTCHAR uni029D
ENCODING 669
SWIDTH 600 0
DWIDTH 22 0
BBX 17 33 0 -8
BITMAP
000380
000780
000780
000700
000000
000000
000000
07FF00
07FF00
07FE00
000600
000E00
000E00
000E00
000C00
001C00
001C00
001C00
001C00
001800
003800
003800
003800
1F3000
7FF000
7FF000
E1F000
C0F000
E1F800
FFF800
7F9C00
3E1C00
001800
ENDCHAR
STARTCHAR uni029E
ENCODING 670
SWIDTH 600 0
DWIDTH 22 0
BBX 19 25 0 -7
BITMAP
1C00E0
1C00E0
0E00E0
0E00C0
0700C0
0701C0
0383C0
038FC0
01DD80
01FB80
00F380
01E380
03C380
078300
0E0700
1C0700
380700
F00700
000600
000E00
000E00
000E00
000E00
000C00
001C00
ENDCHAR
STARTCHAR uni029F
ENCODING 671
SWIDTH 600 0
DWIDTH 22 0
BBX 14 18 4 0
BITMAP
1C00
1C00
1C00
1800
3800
3800
3800
3800
3000
7000
7000
7000
7000
6000
E000
FFFC
FFFC
FFF8
ENDCHAR
STARTCHAR uni02A1
ENCODING 673
SWIDTH 600 0
DWIDTH 22 0
BBX 17 26 3 0
BITMAP
01F800
07FE00
1FFF00
3C0F00
300780
200380
000380
000300
000700
000600
000E00
001C00
007000
01C000
FFFE00
FFFE00
FFFE00
070000
070000
060000
0E0000
0E0000
0E0000
0E0000
0C0000
1C0000
ENDCHAR
STARTCHAR uni02A2
ENCODING 674
SWIDTH 600 0
DWIDTH 22 0
BBX 18 26 3 0
BITMAP
01F800
07FE00
0FFF00
1F0780
1C01C0
3C0080
380000
380000
380000
380000
1C0000
1E0000
0F0000
038000
7FFE00
FFFE00
FFFE00
018000
018000
038000
038000
038000
030000
070000
070000
070000
ENDCHAR
STARTCHAR uni02A4
ENCODING 676
SWIDTH 600 0
DWIDTH 22 0
BBX 24 33 -1 -7
BITMAP
000700
000700
000700
000600
000600
000E00
000E00
000E00
03CFFF
0FEFFF
1FFFFF
1E3C06
381C0C
381C18
701830
703860
6038C0
603980
E033F0
E033F8
E073F8
60F23C
71F01C
7FE01C
3F601C
1E601C
000018
000038
002078
0070F0
007FE0
003FC0
000F80
ENDCHAR
STARTCHAR uni02A6
ENCODING 678
SWIDTH 600 0
DWIDTH 22 0
BBX 19 23 2 0
BITMAP
0E0000
0C0000
0C0000
1C0000
1C0000
FFFF00
FFFFC0
FFFFC0
3870E0
387000
387000
307800
703C00
701E00
700700
600380
600380
E00380
E00380
F80F80
7FFF00
3FFE00
0FF000
ENDCHAR
STARTCHAR uni02A7
ENCODING 679
SWIDTH 600 0
DWIDTH 22 0
BBX 21 33 3 -7
BITMAP
000078
0001F8
0603F8
0E03C0
0E0380
0C0700
0C0700
1C0700
7FFF00
FFFF00
FFFE00
180E00
380E00
380E00
380E00
301C00
301C00
701C00
701C00
701800
603800
E03800
F23800
7E3800
7F7000
3E7000
007000
007000
00F000
00E000
0FE000
0FC000
0F8000
ENDCHAR
STARTCHAR h.sups
ENCODING 688
SWIDTH 600 0
DWIDTH 22 0
BBX 12 17 7 14
BITMAP
1800
1800
1800
3800
3000
33C0
37E0
3C70
7070
6060
6060
6060
6060
E0E0
C0C0
C0C0
C0C0
ENDCHAR
STARTCHAR j.sups
ENCODING 690
SWIDTH 600 0
DWIDTH 22 0
BBX 13 22 4 9
BITMAP
0018
0038
0038
0000
0000
07F0
0FF0
0060
0060
0060
0060
0060
00C0
00C0
00C0
00C0
00C0
0180
0180
4380
7F00
BE00
ENDCHAR
STARTCHAR r.sups
ENCODING 691
SWIDTH 600 0
DWIDTH 22 0
BBX 10 13 9 13
BITMAP
33C0
27C0
6FC0
7C00
7800
7000
6000
6000
E000
C000
C000
C000
C000
ENDCHAR
STARTCHAR w.sups
ENCODING 695
SWIDTH 600 0
DWIDTH 22 0
BBX 16 12 5 14
BITMAP
C183
61C3
63C6
63C6
66C6
66CC
6CCC
6CD8
68D8
78F0
7870
7060
ENDCHAR
STARTCHAR y.sups
ENCODING 696
SWIDTH 600 0
DWIDTH 22 0
BBX 14 17 5 9
BITMAP
180C
181C
1C18
0C30
0C30
0C60
0C60
06C0
06C0
0780
0700
0700
0600
0E00
1C00
F800
F000
ENDCHAR
STARTCHAR uni02B9
ENCODING 697
SWIDTH 600 0
DWIDTH 22 0
BBX 6 9 10 16
BITMAP
1C
18
38
38
30
70
60
60
C0
ENDCHAR
STARTCHAR uni02BB
ENCODING 699
SWIDTH 600 0
DWIDTH 22 0
BBX 8 12 9 14
BITMAP
01
07
1E
38
70
70
60
F8
FC
FC
FC
78
ENDCHAR
STARTCHAR uni02BC
ENCODING 700
SWIDTH 600 0
DWIDTH 22 0
BBX 8 12 8 13
BITMAP
0E
1F
3F
3F
1F
07
06
0E
1C
78
F0
C0
ENDCHAR
STARTCHAR uni02BE
ENCODING 702
SWIDTH 600 0
DWIDTH 22 0
BBX 8 11 9 19
BITMAP
38
3C
0E
06
07
07
06
0E
1C
F8
E0
ENDCHAR
STARTCHAR uni02BF
ENCODING 703
SWIDTH 600 0
DWIDTH 22 0
BBX 8 11 10 19
BITMAP
03
1F
38
70
60
E0
E0
E0
70
3C
1C
ENDCHAR
STARTCHAR uni02C1
ENCODING 705
SWIDTH 600 0
DWIDTH 22 0
BBX 10 14 9 18
BITMAP
1F00
3F80
60C0
C040
C000
C000
C000
C000
6000
7000
1800
1800
1800
3800
ENDCHAR
STARTCHAR circumflex
ENCODING 710
SWIDTH 600 0
DWIDTH 22 0
BBX 11 6 7 21
BITMAP
0780
0F80
1DC0
38C0
6060
C020
ENDCHAR
STARTCHAR caron
ENCODING 711
SWIDTH 600 0
DWIDTH 22 0
BBX 11 6 8 21
BITMAP
4020
E0E0
71C0
3380
3F00
1E00
ENDCHAR
STARTCHAR uni02C8
ENCODING 712
SWIDTH 600 0
DWIDTH 22 0
BBX 5 11 11 15
BITMAP
78
70
70
70
E0
E0
E0
C0
C0
C0
C0
ENDCHAR
STARTCHAR uni02C9
ENCODING 713
SWIDTH 600 0
DWIDTH 22 0
BBX 10 2 8 22
BITMAP
7FC0
FFC0
ENDCHAR
STARTCHAR uni02CA
ENCODING 714
SWIDTH 600 0
DWIDTH 22 0
BBX 7 7 11 21
BITMAP
04
0E
1E
38
70
E0
80
ENDCHAR
STARTCHAR uni02CB
ENCODING 715
SWIDTH 600 0
DWIDTH 22 0
BBX 7 8 9 20
BITMAP
20
70
F0
38
38
1C
0E
04
ENDCHAR
STARTCHAR uni02CC
ENCODING 716
SWIDTH 600 0
DWIDTH 22 0
BBX 5 11 5 -9
BITMAP
18
18
38
38
30
30
70
70
70
F0
F0
ENDCHAR
STARTCHAR uni02D0
ENCODING 720
SWIDTH 600 0
DWIDTH 22 0
BBX 9 18 6 0
BITMAP
1F80
1F00
0E00
0C00
0400
0000
0000
0000
0000
0000
0000
0000
0000
1000
3000
3800
7800
FC00
ENDCHAR
STARTCHAR uni02D1
ENCODING 721
SWIDTH 600 0
DWIDTH 22 0
BBX 6 5 9 13
BITMAP
FC
F8
70
60
20
ENDCHAR
STARTCHAR breve
ENCODING 728
SWIDTH 600 0
DWIDTH 22 0
BBX 11 5 8 21
BITMAP
C060
C0E0
E1C0
7F80
3F00
ENDCHAR
STARTCHAR dotaccent
ENCODING 729
SWIDTH 600 0
DWIDTH 22 0
BBX 5 4 11 21
BITMAP
70
F0
F8
F0
ENDCHAR
STARTCHAR ring
ENCODING 730
SWIDTH 600 0
DWIDTH 22 0
BBX 8 6 9 20
BITMAP
3E
63
43
C3
66
3C
ENDCHAR
STARTCHAR ogonek
ENCODING 731
SWIDTH 600 0
DWIDTH 22 0
BBX 7 8 4 -8
BITMAP
0E
30
60
60
E0
E4
7E
3C
ENDCHAR
STARTCHAR tilde
ENCODING 732
SWIDTH 600 0
DWIDTH 22 0
BBX 13 5 7 21
BITMAP
3C18
7E38
6730
C3F0
C1C0
ENDCHAR
STARTCHAR hungarumlaut
ENCODING 733
SWIDTH 600 0
DWIDTH 22 0
BBX 12 7 9 20
BITMAP
0820
0E70
1CE0
38C0
3180
6380
C100
ENDCHAR
STARTCHAR uni02DE
ENCODING 734
SWIDTH 600 0
DWIDTH 22 0
BBX 9 6 7 8
BITMAP
0C00
7C00
FC00
8C80
0F80
0780
ENDCHAR
STARTCHAR uni02E0
ENCODING 736
SWIDTH 600 0
DWIDTH 22 0
BBX 12 17 8 9
BITMAP
C070
C060
C0C0
60C0
6180
6300
6300
3600
3C00
3C00
3800
3C00
6C00
EC00
CC00
C800
7000
ENDCHAR
STARTCHAR l.sups
ENCODING 737
SWIDTH 600 0
DWIDTH 22 0
BBX 6 17 11 14
BITMAP
F8
F8
30
30
30
30
60
60
60
60
60
C0
C0
C0
C8
FC
78
ENDCHAR
STARTCHAR s.sups
ENCODING 738
SWIDTH 600 0
DWIDTH 22 0
BBX 11 12 7 14
BITMAP
0F80
3FC0
30E0
3000
3000
1E00
0780
0180
80C0
E1C0
7F80
3E00
ENDCHAR
STARTCHAR x.sups
ENCODING 739
SWIDTH 600 0
DWIDTH 22 0
BBX 13 12 6 14
BITMAP
1838
1C60
0CE0
0CC0
0780
0700
0F00
1F80
1980
31C0
60C0
E0E0
ENDCHAR
STARTCHAR uni02E4
ENCODING 740
SWIDTH 600 0
DWIDTH 22 0
BBX 10 17 9 15
BITMAP
1F00
3F80
60C0
C040
C000
C000
C000
C000
6000
7000
1800
1800
1800
3800
3000
3000
3000
ENDCHAR
STARTCHAR uni0300
ENCODING 768
SWIDTH 600 0
DWIDTH 22 0
BBX 7 8 9 20
BITMAP
20
70
F0
38
38
1C
0E
04
ENDCHAR
STARTCHAR uni0301
ENCODING 769
SWIDTH 600 0
DWIDTH 22 0
BBX 7 7 11 21
BITMAP
04
0E
1E
38
70
E0
80
ENDCHAR
STARTCHAR uni0302
ENCODING 770
SWIDTH 600 0
DWIDTH 22 0
BBX 11 6 7 21
BITMAP
0780
0F80
1DC0
38C0
6060
C020
ENDCHAR
STARTCHAR uni0303
ENCODING 771
SWIDTH 600 0
DWIDTH 22 0
BBX 13 5 7 21
BITMAP
3C18
7E38
6730
C3F0
C1C0
ENDCHAR
STARTCHAR uni0304
ENCODING 772
SWIDTH 600 0
DWIDTH 22 0
BBX 10 2 8 22
BITMAP
7FC0
FFC0
ENDCHAR
STARTCHAR uni0305
ENCODING 773
SWIDTH 600 0
DWIDTH 22 0
BBX 10 2 8 22
BITMAP
7FC0
FFC0
ENDCHAR
STARTCHAR uni0306
ENCODING 774
SWIDTH 600 0
DWIDTH 22 0
BBX 11 5 8 21
BITMAP
C060
C0E0
E1C0
7F80
3F00
ENDCHAR
STARTCHAR uni0307
ENCODING 775
SWIDTH 600 0
DWIDTH 22 0
BBX 5 4 11 21
BITMAP
70
F0
F8
F0
ENDCHAR
STARTCHAR uni0308
ENCODING 776
SWIDTH 600 0
DWIDTH 22 0
BBX 10 4 8 21
BITMAP
61C0
F1C0
F1C0
E1C0
ENDCHAR
STARTCHAR uni0309
ENCODING 777
SWIDTH 600 0
DWIDTH 22 0
BBX 5 6 11 21
BITMAP
70
F8
38
18
30
E0
ENDCHAR
STARTCHAR uni030A
ENCODING 778
SWIDTH 600 0
DWIDTH 22 0
BBX 8 6 9 20
BITMAP
3E
63
43
C3
66
3C
ENDCHAR
STARTCHAR uni030B
ENCODING 779
SWIDTH 600 0
DWIDTH 22 0
BBX 12 7 9 20
BITMAP
0820
0E70
1CE0
38C0
3180
6380
C100
ENDCHAR
STARTCHAR uni030C
ENCODING 780
SWIDTH 600 0
DWIDTH 22 0
BBX 11 6 8 21
BITMAP
4020
E0E0
71C0
3380
3F00
1E00
ENDCHAR
STARTCHAR uni030F
ENCODING 783
SWIDTH 600 0
DWIDTH 22 0
BBX 10 7 6 20
BITMAP
6100
E300
6380
7180
3180
30C0
18C0
ENDCHAR
STARTCHAR uni0310
ENCODING 784
SWIDTH 600 0
DWIDTH 22 0
BBX 12 9 8 20
BITMAP
0700
0F00
0F00
C630
C060
C0E0
E1C0
7F80
3E00
ENDCHAR
STARTCHAR uni0311
ENCODING 785
SWIDTH 600 0
DWIDTH 22 0
BBX 11 5 7 21
BITMAP
0F80
3FC0
70E0
6060
C060
ENDCHAR
STARTCHAR uni0312
ENCODING 786
SWIDTH 600 0
DWIDTH 22 0
BBX 4 7 11 20
BITMAP
10
70
C0
C0
E0
F0
E0
ENDCHAR
STARTCHAR uni0313
ENCODING 787
SWIDTH 600 0
DWIDTH 22 0
BBX 4 7 11 20
BITMAP
70
70
70
30
30
E0
C0
ENDCHAR
STARTCHAR uni0318
ENCODING 792
SWIDTH 600 0
DWIDTH 22 0
BBX 6 8 5 -10
BITMAP
0C
0C
0C
FC
F8
18
18
18
ENDCHAR
STARTCHAR uni0319
ENCODING 793
SWIDTH 600 0
DWIDTH 22 0
BBX 6 8 4 -10
BITMAP
60
60
60
7C
FC
C0
C0
C0
ENDCHAR
STARTCHAR uni031A
ENCODING 794
SWIDTH 600 0
DWIDTH 22 0
BBX 6 5 12 21
BITMAP
FC
FC
0C
0C
18
ENDCHAR
STARTCHAR uni031B
ENCODING 795
SWIDTH 600 0
DWIDTH 22 0
BBX 6 7 12 16
BITMAP
0C
1C
0C
1C
18
30
C0
ENDCHAR
STARTCHAR uni031C
ENCODING 796
SWIDTH 600 0
DWIDTH 22 0
BBX 5 6 5 -9
BITMAP
38
E0
C0
C0
C0
70
ENDCHAR
STARTCHAR uni031D
ENCODING 797
SWIDTH 600 0
DWIDTH 22 0
BBX 7 6 4 -7
BITMAP
18
18
18
10
FE
FE
ENDCHAR
STARTCHAR uni031E
ENCODING 798
SWIDTH 600 0
DWIDTH 22 0
BBX 7 6 4 -9
BITMAP
FE
FE
10
30
30
30
ENDCHAR
STARTCHAR uni031F
ENCODING 799
SWIDTH 600 0
DWIDTH 22 0
BBX 7 8 4 -10
BITMAP
18
18
18
FE
FE
30
30
30
ENDCHAR
STARTCHAR uni0320
ENCODING 800
SWIDTH 600 0
DWIDTH 22 0
BBX 7 2 4 -7
BITMAP
FE
FE
ENDCHAR
STARTCHAR uni0323
ENCODING 803
SWIDTH 600 0
DWIDTH 22 0
BBX 5 4 5 -9
BITMAP
70
F8
F8
70
ENDCHAR
STARTCHAR uni0324
ENCODING 804
SWIDTH 600 0
DWIDTH 22 0
BBX 11 4 2 -8
BITMAP
70C0
71E0
F1E0
61C0
ENDCHAR
STARTCHAR uni0325
ENCODING 805
SWIDTH 600 0
DWIDTH 22 0
BBX 7 6 4 -9
BITMAP
3C
C6
C6
86
C6
78
ENDCHAR
STARTCHAR uni0326
ENCODING 806
SWIDTH 600 0
DWIDTH 22 0
BBX 6 6 4 -8
BITMAP
38
1C
0C
0C
18
F0
ENDCHAR
STARTCHAR uni0327
ENCODING 807
SWIDTH 600 0
DWIDTH 22 0
BBX 6 8 4 -8
BITMAP
0C
18
30
3C
0C
0C
1C
F0
ENDCHAR
STARTCHAR uni0328
ENCODING 808
SWIDTH 600 0
DWIDTH 22 0
BBX 7 8 4 -8
BITMAP
0E
30
60
60
E0
E4
7E
3C
ENDCHAR
STARTCHAR uni0329
ENCODING 809
SWIDTH 600 0
DWIDTH 22 0
BBX 3 7 6 -10
BITMAP
60
60
60
C0
C0
C0
C0
ENDCHAR
STARTCHAR uni032A
ENCODING 810
SWIDTH 600 0
DWIDTH 22 0
BBX 9 6 3 -9
BITMAP
7F80
FF80
C180
C180
C100
8100
ENDCHAR
STARTCHAR uni032C
ENCODING 812
SWIDTH 600 0
DWIDTH 22 0
BBX 11 6 3 -8
BITMAP
8040
C0E0
E380
7700
3E00
3C00
ENDCHAR
STARTCHAR uni032E
ENCODING 814
SWIDTH 600 0
DWIDTH 22 0
BBX 12 5 2 -8
BITMAP
C070
E060
71E0
7FC0
1F00
ENDCHAR
STARTCHAR uni032F
ENCODING 815
SWIDTH 600 0
DWIDTH 22 0
BBX 12 5 1 -8
BITMAP
0FC0
1FE0
3860
6070
E030
ENDCHAR
STARTCHAR uni0330
ENCODING 816
SWIDTH 600 0
DWIDTH 22 0
BBX 13 5 1 -8
BITMAP
1C18
3E18
6738
63F0
C1E0
ENDCHAR
STARTCHAR uni0331
ENCODING 817
SWIDTH 600 0
DWIDTH 22 0
BBX 9 2 3 -6
BITMAP
FF80
FF80
ENDCHAR
STARTCHAR uni0334
ENCODING 820
SWIDTH 600 0
DWIDTH 22 0
BBX 14 5 3 6
BITMAP
1C0C
3F0C
639C
61F8
C0F0
ENDCHAR
STARTCHAR uni0339
ENCODING 825
SWIDTH 600 0
DWIDTH 22 0
BBX 5 6 5 -9
BITMAP
70
18
18
18
30
E0
ENDCHAR
STARTCHAR uni033A
ENCODING 826
SWIDTH 600 0
DWIDTH 22 0
BBX 9 5 3 -8
BITMAP
4180
C180
C180
FF80
FF00
ENDCHAR
STARTCHAR uni033B
ENCODING 827
SWIDTH 600 0
DWIDTH 22 0
BBX 9 5 3 -8
BITMAP
7F80
C180
C180
C180
FF00
ENDCHAR
STARTCHAR uni033C
ENCODING 828
SWIDTH 600 0
DWIDTH 22 0
BBX 12 6 1 -8
BITMAP
1CE0
3DF0
7FF0
6730
C630
C630
ENDCHAR
STARTCHAR uni033D
ENCODING 829
SWIDTH 600 0
DWIDTH 22 0
BBX 6 6 10 20
BITMAP
44
6C
38
78
F8
8C
ENDCHAR
STARTCHAR uni0342
ENCODING 834
SWIDTH 600 0
DWIDTH 22 0
BBX 13 5 7 21
BITMAP
3C18
7E38
6730
C3F0
C1C0
ENDCHAR
STARTCHAR uni0345
ENCODING 837
SWIDTH 600 0
DWIDTH 22 0
BBX 3 5 7 -7
BITMAP
C0
C0
E0
E0
E0
ENDCHAR
STARTCHAR uni035F
ENCODING 863
SWIDTH 600 0
DWIDTH 22 0
BBX 35 3 -10 -6
BITMAP
FFFFFFFFE0
FFFFFFFFE0
FFFFFFFFE0
ENDCHAR
STARTCHAR uni0361
ENCODING 865
SWIDTH 600 0
DWIDTH 22 0
BBX 32 7 -3 21
BITMAP
000FFC00
00FFFFC0
07FFFFF0
1FE003FC
7E00003E
F0000007
C0000003
ENDCHAR
STARTCHAR pi
ENCODING 960
SWIDTH 600 0
DWIDTH 22 0
BBX 19 18 2 0
BITMAP
7FFFE0
7FFFE0
7FFFE0
8C0700
0C0600
1C0600
1C0E00
180E00
180C00
380C00
381C00
381C00
301800
701800
701800
701F00
601F00
E00F00
ENDCHAR
STARTCHAR a.sups
ENCODING 7491
SWIDTH 600 0
DWIDTH 22 0
BBX 12 12 6 14
BITMAP
0790
1FF0
3870
7030
6070
6060
E060
E060
E060
71E0
7FC0
3CC0
ENDCHAR
STARTCHAR b.sups
ENCODING 7495
SWIDTH 600 0
DWIDTH 22 0
BBX 13 17 6 14
BITMAP
0C00
0C00
1C00
1800
1800
19E0
3FF0
3C70
3030
3038
3030
7030
6030
6070
70E0
7FC0
CF00
ENDCHAR
STARTCHAR d.sups
ENCODING 7496
SWIDTH 600 0
DWIDTH 22 0
BBX 13 17 6 14
BITMAP
0018
0018
0018
0018
0038
0FB0
1FF0
3870
7030
6070
E060
E060
E060
E060
61C0
7FC0
3CC0
ENDCHAR
STARTCHAR e.sups
ENCODING 7497
SWIDTH 600 0
DWIDTH 22 0
BBX 11 12 7 14
BITMAP
0F80
1FC0
38E0
6060
C060
FFE0
C000
C000
C000
E1C0
7F80
3E00
ENDCHAR
STARTCHAR g.sups
ENCODING 7501
SWIDTH 600 0
DWIDTH 22 0
BBX 13 17 5 9
BITMAP
03C8
0FF8
1C38
3818
3038
3030
7030
7030
7030
38F0
3FE0
1F60
0060
00E0
61C0
FF80
3F00
ENDCHAR
STARTCHAR k.sups
ENCODING 7503
SWIDTH 600 0
DWIDTH 22 0
BBX 13 17 7 14
BITMAP
1C00
1800
1800
1800
1800
3838
3060
30C0
3380
3700
7F00
7B80
7180
61C0
60C0
E0E0
C060
ENDCHAR
STARTCHAR m.sups
ENCODING 7504
SWIDTH 600 0
DWIDTH 22 0
BBX 18 13 3 13
BITMAP
11C780
33EF80
37FFC0
3C71C0
3060C0
3060C0
306180
70C180
60C180
60C180
60C180
60C300
E18300
ENDCHAR
STARTCHAR o.sups
ENCODING 7506
SWIDTH 600 0
DWIDTH 22 0
BBX 11 12 7 14
BITMAP
0F80
3FC0
70E0
E060
C060
C060
C060
C0E0
C0C0
E3C0
7F80
3E00
ENDCHAR
STARTCHAR p.sups
ENCODING 7510
SWIDTH 600 0
DWIDTH 22 0
BBX 13 16 6 10
BITMAP
19E0
1FF0
3C38
3838
3018
3038
3038
3030
6070
70E0
7FC0
6F80
6000
C000
C000
C000
ENDCHAR
STARTCHAR t.sups
ENCODING 7511
SWIDTH 600 0
DWIDTH 22 0
BBX 11 16 8 14
BITMAP
0C00
0C00
0C00
1C00
FFE0
FFC0
1800
1800
3800
3000
3000
3000
3000
3080
3F80
1F00
ENDCHAR
STARTCHAR u.sups
ENCODING 7512
SWIDTH 600 0
DWIDTH 22 0
BBX 12 12 7 14
BITMAP
7070
6060
6060
6060
6060
E0E0
C0C0
C0C0
C1C0
C3C0
FEC0
7880
ENDCHAR
STARTCHAR v.sups
ENCODING 7515
SWIDTH 600 0
DWIDTH 22 0
BBX 11 12 8 14
BITMAP
C0E0
C0C0
C1C0
E180
6300
6300
6600
6600
6C00
6C00
3800
3800
ENDCHAR
STARTCHAR c.sups
ENCODING 7580
SWIDTH 600 0
DWIDTH 22 0
BBX 11 12 7 14
BITMAP
07C0
1FE0
3840
7000
6000
6000
E000
E000
6000
7080
7FC0
1F00
ENDCHAR
STARTCHAR f.sups
ENCODING 7584
SWIDTH 600 0
DWIDTH 22 0
BBX 12 18 9 14
BITMAP
03E0
07F0
0E20
0C00
1C00
1800
FFC0
FFC0
1800
3800
3000
3000
3000
3000
3000
6000
6000
6000
ENDCHAR
STARTCHAR z.sups
ENCODING 7611
SWIDTH 600 0
DWIDTH 22 0
BBX 12 12 6 14
BITMAP
3FF0
3FF0
0060
00C0
0180
0300
0600
0C00
1800
3000
7FE0
FFE0
ENDCHAR
STARTCHAR uni1E06
ENCODING 7686
SWIDTH 600 0
DWIDTH 22 0
BBX 19 30 1 -6
BITMAP
07FE00
07FF80
07FFC0
0603C0
0E01E0
0E00E0
0E00E0
0C01C0
0C0380
1C3F80
1FFE00
1FFC00
1FFF00
180780
380180
3801C0
3801C0
3801C0
300380
700380
700F80
7FFF00
7FFC00
7FF000
800000
000000
000000
000000
1FF000
3FF000
ENDCHAR
STARTCHAR uni1E07
ENCODING 7687
SWIDTH 600 0
DWIDTH 22 0
BBX 18 32 1 -6
BITMAP
070000
070000
070000
070000
060000
0E0000
0E0000
0E0000
0C3E00
0CFF00
1FFF80
1F83C0
1E01C0
1C01C0
1801C0
3801C0
3801C0
3801C0
3001C0
300380
700380
780700
7C1F00
7FFE00
6FFC00
E3F000
000000
000000
000000
000000
1FF000
3FF000
ENDCHAR
STARTCHAR uni1E0C
ENCODING 7692
SWIDTH 600 0
DWIDTH 22 0
BBX 19 33 1 -9
BITMAP
0FF800
0FFE00
0FFF80
0E0F80
0E03C0
1C01C0
1C00E0
1C00E0
1C00E0
1800E0
3800E0
3800E0
3800E0
3800E0
3001C0
7001C0
7001C0
700380
700780
600F00
E03E00
FFFC00
FFF000
FFC000
000000
000000
000000
000000
000000
070000
0F0000
0F0000
0E0000
ENDCHAR
STARTCHAR uni1E0D
ENCODING 7693
SWIDTH 600 0
DWIDTH 22 0
BBX 20 35 2 -9
BITMAP
000070
000060
0000E0
0000E0
0000E0
0000E0
0000C0
0001C0
01F1C0
07FDC0
0FFFC0
1E0F80
3C0780
780380
700380
E00380
E00300
E00700
E00700
E00700
E00F00
E01E00
F87E00
7FFE00
3FCE00
1F8E00
000000
000000
000000
000000
000000
070000
0F0000
0F0000
0E0000
ENDCHAR
STARTCHAR uni1E0E
ENCODING 7694
SWIDTH 600 0
DWIDTH 22 0
BBX 19 30 1 -6
BITMAP
0FF800
0FFE00
0FFF80
0E0F80
0E03C0
1C01C0
1C00E0
1C00E0
1C00E0
1800E0
3800E0
3800E0
3800E0
3800E0
3001C0
7001C0
7001C0
700380
700780
600F00
E03E00
FFFC00
FFF000
FFC000
000000
000000
000000
000000
3FE000
7FE000
ENDCHAR
STARTCHAR uni1E0F
ENCODING 7695
SWIDTH 600 0
DWIDTH 22 0
BBX 20 32 2 -6
BITMAP
000070
000060
0000E0
0000E0
0000E0
0000E0
0000C0
0001C0
01F1C0
07FDC0
0FFFC0
1E0F80
3C0780
780380
700380
E00380
E00300
E00700
E00700
E00700
E00F00
E01E00
F87E00
7FFE00
3FCE00
1F8E00
000000
000000
000000
000000
7FE000
7FE000
ENDCHAR
STARTCHAR uni1E10
ENCODING 7696
SWIDTH 600 0
DWIDTH 22 0
BBX 19 32 1 -8
BITMAP
0FF800
0FFE00
0FFF80
0E0F80
0E03C0
1C01C0
1C00E0
1C00E0
1C00E0
1800E0
3800E0
3800E0
3800E0
3800E0
3001C0
7001C0
7001C0
700380
700780
600F00
E03E00
FFFC00
FFF000
FFC000
030000
060000
060000
0F0000
038000
038000
070000
3C0000
ENDCHAR
STARTCHAR uni1E11
ENCODING 7697
SWIDTH 600 0
DWIDTH 22 0
BBX 20 34 2 -8
BITMAP
000070
000060
0000E0
0000E0
0000E0
0000E0
0000C0
0001C0
01F1C0
07FDC0
0FFFC0
1E0F80
3C0780
780380
700380
E00380
E00300
E00700
E00700
E00700
E00F00
E01E00
F87E00
7FFE00
3FCE00
1F8E00
060000
060000
0C0000
0E0000
170000
030000
060000
380000
ENDCHAR
STARTCHAR uni1E16
ENCODING 7702
SWIDTH 600 0
DWIDTH 22 0
BBX 19 35 2 0
BITMAP
000080
0001C0
000380
000700
000400
000000
000000
007FC0
007FC0
008000
000000
07FFE0
07FFE0
0FFFE0
0E0000
0E0000
0E0000
0C0000
1C0000
1C0000
1C0000
1FFF00
1FFE00
3FFE00
380000
380000
380000
300000
700000
700000
700000
700000
7FFF00
FFFE00
FFFE00
ENDCHAR
STARTCHAR uni1E17
ENCODING 7703
SWIDTH 600 0
DWIDTH 22 0
BBX 17 31 2 0
BITMAP
000200
000700
000E00
001C00
001800
000000
000000
01FF00
01FF00
000000
000000
000000
000000
01F800
07FE00
0FFF00
1E0700
3C0380
700380
700380
7FFF80
FFFF80
FFFF80
E00000
E00000
E00000
700600
7C1E00
3FFC00
1FF800
07E000
ENDCHAR
STARTCHAR uni1E20
ENCODING 7712
SWIDTH 600 0
DWIDTH 22 0
BBX 19 28 2 0
BITMAP
00FFC0
00FF80
000000
000000
007E00
01FF00
03FF80
0FC1C0
0F00E0
1E0080
3C0000
380000
700000
700000
700000
E00000
E03FC0
E03F80
E03F80
E00380
E00380
F00300
700300
780700
3C0F00
3FFF00
0FFC00
03F000
ENDCHAR
STARTCHAR uni1E21
ENCODING 7713
SWIDTH 600 0
DWIDTH 22 0
BBX 19 31 1 -7
BITMAP
00FF80
00FF80
000000
000000
000000
000000
00F860
03FEE0
0FFFC0
0F07C0
1E03C0
3C01C0
3801C0
700180
700180
700380
700380
700380
700700
781F00
3FFF00
3FF700
0FC700
000600
000E00
000E00
801C00
E07C00
FFF800
7FF000
1FC000
ENDCHAR
STARTCHAR uni1E24
ENCODING 7716
SWIDTH 600 0
DWIDTH 22 0
BBX 20 33 1 -9
BITMAP
0E0070
0E0070
0E0070
0C0070
1C00E0
1C00E0
1C00E0
1C00E0
1800E0
3801C0
3FFFC0
3FFFC0
3FFFC0
3801C0
700180
700380
700380
700380
700380
600300
E00700
E00700
E00700
E00700
000000
000000
000000
000000
000000
070000
0F8000
0F8000
070000
ENDCHAR
STARTCHAR uni1E25
ENCODING 7717
SWIDTH 600 0
DWIDTH 22 0
BBX 18 35 1 -9
BITMAP
070000
070000
070000
070000
060000
0E0000
0E0000
0E0000
0E1F00
0C7F80
1DFFC0
1FC3C0
1F01C0
1E01C0
1C01C0
3801C0
3801C0
380180
380380
300380
700380
700380
700300
700700
600700
E00700
000000
000000
000000
000000
000000
038000
078000
078000
070000
ENDCHAR
STARTCHAR uni1E26
ENCODING 7718
SWIDTH 600 0
DWIDTH 22 0
BBX 20 29 1 0
BITMAP
0061C0
00E1C0
00E1C0
000000
000000
0E0070
0E0070
0E0070
0C0070
1C00E0
1C00E0
1C00E0
1C00E0
1800E0
3801C0
3FFFC0
3FFFC0
3FFFC0
3801C0
700180
700380
700380
700380
700380
600300
E00700
E00700
E00700
E00700
ENDCHAR
STARTCHAR uni1E27
ENCODING 7719
SWIDTH 600 0
DWIDTH 22 0
BBX 18 31 1 0
BITMAP
1C3000
1C7800
183000
000000
000000
070000
070000
070000
070000
060000
0E0000
0E0000
0E0000
0E1F00
0C7F80
1DFFC0
1FC3C0
1F01C0
1E01C0
1C01C0
3801C0
3801C0
380180
380380
300380
700380
700380
700300
700700
600700
E00700
ENDCHAR
STARTCHAR uni1E28
ENCODING 7720
SWIDTH 600 0
DWIDTH 22 0
BBX 24 32 -3 -8
BITMAP
00E007
00E007
00E007
00C007
01C00E
01C00E
01C00E
01C00E
01800E
03801C
03FFFC
03FFFC
03FFFC
03801C
070018
070038
070038
070038
070038
060030
0E0070
0E0070
0E0070
0E0070
0C0000
1C0000
180000
3C0000
0E0000
0E0000
1C0000
F00000
ENDCHAR
STARTCHAR uni1E29
ENCODING 7721
SWIDTH 600 0
DWIDTH 22 0
BBX 21 34 -2 -8
BITMAP
00E000
00E000
00E000
00E000
00C000
01C000
01C000
01C000
01C3E0
018FF0
03BFF8
03F878
03E038
03C038
038038
070038
070038
070030
070070
060070
0E0070
0E0070
0E0060
0E00E0
0C00E0
1C00E0
0C0000
180000
380000
3C0000
0C0000
0C0000
1C0000
F00000
ENDCHAR
STARTCHAR uni1E2A
ENCODING 7722
SWIDTH 600 0
DWIDTH 22 0
BBX 20 32 1 -8
BITMAP
0E0070
0E0070
0E0070
0C0070
1C00E0
1C00E0
1C00E0
1C00E0
1800E0
3801C0
3FFFC0
3FFFC0
3FFFC0
3801C0
700180
700380
700380
700380
700380
600300
E00700
E00700
E00700
E00700
000000
000000
000000
603800
703000
38F000
3FE000
0F8000
ENDCHAR
STARTCHAR uni1E2B
ENCODING 7723
SWIDTH 600 0
DWIDTH 22 0
BBX 18 34 1 -8
BITMAP
070000
070000
070000
070000
060000
0E0000
0E0000
0E0000
0E1F00
0C7F80
1DFFC0
1FC3C0
1F01C0
1E01C0
1C01C0
3801C0
3801C0
380180
380380
300380
700380
700380
700300
700700
600700
E00700
000000
000000
000000
301800
301800
187000
1FE000
0FC000
ENDCHAR
STARTCHAR uni1E32
ENCODING 7730
SWIDTH 600 0
DWIDTH 22 0
BBX 20 33 2 -9
BITMAP
0E0070
0E00E0
0E01C0
0C0380
1C0700
1C0E00
1C1C00
1C3800
187000
38E000
39E000
3BE000
3F7000
3E7000
7C3800
783800
703800
701C00
601C00
E00E00
E00E00
E00F00
E00700
C00700
000080
000000
000000
000000
000000
038000
07C000
078000
038000
ENDCHAR
STARTCHAR uni1E33
ENCODING 7731
SWIDTH 600 0
DWIDTH 22 0
BBX 19 35 2 -9
BITMAP
070000
060000
0E0000
0E0000
0E0000
0E0000
0C0000
1C0000
1C01E0
1C0380
1C0700
180E00
383C00
387800
38F000
39E000
33E000
7F7000
7E3000
7C3800
781C00
601C00
E00E00
E00E00
E00700
E00700
000000
000000
000000
000000
000000
038000
078000
078000
070000
ENDCHAR
STARTCHAR uni1E34
ENCODING 7732
SWIDTH 600 0
DWIDTH 22 0
BBX 20 30 2 -6
BITMAP
0E0070
0E00E0
0E01C0
0C0380
1C0700
1C0E00
1C1C00
1C3800
187000
38E000
39E000
3BE000
3F7000
3E7000
7C3800
783800
703800
701C00
601C00
E00E00
E00E00
E00F00
E00700
C00700
000080
000000
000000
000000
1FF000
1FF000
ENDCHAR
STARTCHAR uni1E35
ENCODING 7733
SWIDTH 600 0
DWIDTH 22 0
BBX 19 32 2 -6
BITMAP
070000
060000
0E0000
0E0000
0E0000
0E0000
0C0000
1C0000
1C01E0
1C0380
1C0700
180E00
383C00
387800
38F000
39E000
33E000
7F7000
7E3000
7C3800
781C00
601C00
E00E00
E00E00
E00700
E00700
000000
000000
000000
000000
1FF000
3FF000
ENDCHAR
STARTCHAR uni1E36
ENCODING 7734
SWIDTH 600 0
DWIDTH 22 0
BBX 15 33 4 -9
BITMAP
0E00
0E00
0E00
0C00
1C00
1C00
1C00
1C00
1800
3800
3800
3800
3800
3000
7000
7000
7000
7000
6000
E000
E000
FFFE
FFFC
FFFC
0000
0000
0000
0000
0000
0700
0F00
0F00
0E00
ENDCHAR
STARTCHAR uni1E37
ENCODING 7735
SWIDTH 600 0
DWIDTH 22 0
BBX 12 35 5 -9
BITMAP
FF80
FF80
FF80
0300
0300
0700
0700
0600
0600
0E00
0E00
0E00
0C00
0C00
1C00
1C00
1C00
1800
1800
3800
3800
3800
3C20
3FE0
1FF0
0FC0
0000
0000
0000
0000
0000
0E00
1F00
1F00
0E00
ENDCHAR
STARTCHAR uni1E38
ENCODING 7736
SWIDTH 600 0
DWIDTH 22 0
BBX 15 37 4 -9
BITMAP
3FE0
3FE0
0000
0000
0E00
0E00
0E00
0C00
1C00
1C00
1C00
1C00
1800
3800
3800
3800
3800
3000
7000
7000
7000
7000
6000
E000
E000
FFFE
FFFC
FFFC
0000
0000
0000
0000
0000
0700
0F00
0F00
0E00
ENDCHAR
STARTCHAR uni1E39
ENCODING 7737
SWIDTH 600 0
DWIDTH 22 0
BBX 13 39 5 -9
BITMAP
0FF8
0FF8
1000
0000
FF80
FF80
FF80
0300
0300
0700
0700
0600
0600
0E00
0E00
0E00
0C00
0C00
1C00
1C00
1C00
1800
1800
3800
3800
3800
3C20
3FE0
1FF0
0FC0
0000
0000
0000
0000
0000
0E00
1F00
1F00
0E00
ENDCHAR
STARTCHAR uni1E3A
ENCODING 7738
SWIDTH 600 0
DWIDTH 22 0
BBX 15 30 4 -6
BITMAP
0E00
0E00
0E00
0C00
1C00
1C00
1C00
1C00
1800
3800
3800
3800
3800
3000
7000
7000
7000
7000
6000
E000
E000
FFFE
FFFC
FFFC
0000
0000
0000
0000
3FE0
7FE0
ENDCHAR
STARTCHAR uni1E3B
ENCODING 7739
SWIDTH 600 0
DWIDTH 22 0
BBX 12 32 5 -6
BITMAP
FF80
FF80
FF80
0300
0300
0700
0700
0600
0600
0E00
0E00
0E00
0C00
0C00
1C00
1C00
1C00
1800
1800
3800
3800
3800
3C20
3FE0
1FF0
0FC0
0000
0000
0000
0000
7FC0
7FC0
ENDCHAR
STARTCHAR uni1E3E
ENCODING 7742
SWIDTH 600 0
DWIDTH 22 0
BBX 20 31 1 0
BITMAP
000080
0001C0
0007C0
000F00
001C00
000800
000000
0F0070
0F00F0
0F01F0
0F01F0
1F03E0
1F0360
1B0760
1B86E0
1B8EE0
398CC0
399CC0
3999C0
31B9C0
31B1C0
71F180
71E180
70C380
600380
600380
E00300
E00300
E00700
C00700
C00700
ENDCHAR
STARTCHAR uni1E3F
ENCODING 7743
SWIDTH 600 0
DWIDTH 22 0
BBX 20 28 0 0
BITMAP
000080
0001C0
0003E0
000780
000F00
001C00
000800
000000
000000
000000
1CF0E0
19FBF0
1BFFF0
1E3E70
1C3C30
383870
383870
383070
383070
307060
7070E0
7070E0
7060E0
70E0E0
60E0C0
E0E1C0
E0C1C0
E1C1C0
ENDCHAR
STARTCHAR uni1E40
ENCODING 7744
SWIDTH 600 0
DWIDTH 22 0
BBX 20 30 1 0
BITMAP
000E00
001E00
001E00
000C00
000000
000000
0F0070
0F00F0
0F01F0
0F01F0
1F03E0
1F0360
1B0760
1B86E0
1B8EE0
398CC0
399CC0
3999C0
31B9C0
31B1C0
71F180
71E180
70C380
600380
600380
E00300
E00300
E00700
C00700
C00700
ENDCHAR
STARTCHAR uni1E41
ENCODING 7745
SWIDTH 600 0
DWIDTH 22 0
BBX 20 25 0 0
BITMAP
000E00
001F00
001F00
000E00
000000
000000
000000
1CF0E0
19FBF0
1BFFF0
1E3E70
1C3C30
383870
383870
383070
383070
307060
7070E0
7070E0
7060E0
70E0E0
60E0C0
E0E1C0
E0C1C0
E1C1C0
ENDCHAR
STARTCHAR uni1E42
ENCODING 7746
SWIDTH 600 0
DWIDTH 22 0
BBX 20 33 1 -9
BITMAP
0F0070
0F00F0
0F01F0
0F01F0
1F03E0
1F0360
1B0760
1B86E0
1B8EE0
398CC0
399CC0
3999C0
31B9C0
31B1C0
71F180
71E180
70C380
600380
600380
E00300
E00300
E00700
C00700
C00700
000000
000000
000000
000000
000000
070000
0F8000
0F8000
070000
ENDCHAR
STARTCHAR uni1E43
ENCODING 7747
SWIDTH 600 0
DWIDTH 22 0
BBX 20 27 0 -9
BITMAP
1CF0E0
19FBF0
1BFFF0
1E3E70
1C3C30
383870
383870
383070
383070
307060
7070E0
7070E0
7060E0
70E0E0
60E0C0
E0E1C0
E0C1C0
E0C1C0
010000
000000
000000
000000
000000
03C000
03C000
07C000
038000
ENDCHAR
STARTCHAR uni1E44
ENCODING 7748
SWIDTH 600 0
DWIDTH 22 0
BBX 20 30 1 0
BITMAP
000E00
001E00
001E00
000C00
000000
000000
0F0070
0F0070
0F0070
0F8060
0D80E0
0D80E0
1D80E0
1DC0E0
18C0C0
18C0C0
18E1C0
3861C0
3861C0
387180
303180
303380
703B80
703B80
701B00
601B00
601F00
E00F00
E00F00
E00E00
ENDCHAR
STARTCHAR uni1E45
ENCODING 7749
SWIDTH 600 0
DWIDTH 22 0
BBX 18 25 1 0
BITMAP
001C00
001E00
003E00
001C00
000000
000000
000000
0C1F00
1C7F80
1DFFC0
1FC3C0
1F01C0
1E01C0
1C01C0
3801C0
3801C0
380180
380380
300380
700380
700380
700300
700700
600700
E00700
ENDCHAR
STARTCHAR uni1E46
ENCODING 7750
SWIDTH 600 0
DWIDTH 22 0
BBX 20 33 1 -9
BITMAP
0F0070
0F0070
0F0070
0F8060
0D80E0
0D80E0
1D80E0
1DC0E0
18C0C0
18C0C0
18E1C0
3861C0
3861C0
387180
303180
303380
703B80
703B80
701B00
601B00
601F00
E00F00
E00F00
E00E00
000000
000000
000000
000000
000000
038000
078000
078000
070000
ENDCHAR
STARTCHAR uni1E47
ENCODING 7751
SWIDTH 600 0
DWIDTH 22 0
BBX 18 27 1 -9
BITMAP
0C1F00
1C7F80
1DFFC0
1FC3C0
1F01C0
1E01C0
1C01C0
3801C0
3801C0
380180
380380
300380
700380
700380
700300
700700
600700
E00700
000000
000000
000000
000000
000000
038000
078000
078000
070000
ENDCHAR
STARTCHAR uni1E48
ENCODING 7752
SWIDTH 600 0
DWIDTH 22 0
BBX 20 30 1 -6
BITMAP
0F0070
0F0070
0F0070
0F8060
0D80E0
0D80E0
1D80E0
1DC0E0
18C0C0
18C0C0
18E1C0
3861C0
3861C0
387180
303180
303380
703B80
703B80
701B00
601B00
601F00
E00F00
E00F00
E00E00
000000
000000
000000
000000
3FF000
3FF000
ENDCHAR
STARTCHAR uni1E49
ENCODING 7753
SWIDTH 600 0
DWIDTH 22 0
BBX 18 24 1 -6
BITMAP
0C1F00
1C7F80
1DFFC0
1FC3C0
1F01C0
1E01C0
1C01C0
3801C0
3801C0
380180
380380
300380
700380
700380
700300
700700
600700
E00700
000000
000000
000000
000000
1FF000
3FF000
ENDCHAR
STARTCHAR uni1E52
ENCODING 7762
SWIDTH 600 0
DWIDTH 22 0
BBX 19 35 1 0
BITMAP
000080
0001C0
000380
000700
000C00
000000
000000
00FFC0
00FFC0
000000
000000
007E00
01FF00
07FF80
0F83C0
0F01E0
1C00E0
3C00E0
3800E0
380060
700060
7000E0
7000E0
6000E0
6000E0
E000E0
E001C0
6001C0
700380
700780
780F00
3C1F00
3FFC00
0FF800
07E000
ENDCHAR
STARTCHAR uni1E53
ENCODING 7763
SWIDTH 600 0
DWIDTH 22 0
BBX 17 31 2 0
BITMAP
000200
000700
000E00
001800
001000
000000
000000
01FF00
03FF00
000000
000000
000000
000000
01F800
07FC00
1FFE00
3E0F00
780780
700380
E00380
E00380
E00380
E00380
C00380
E00700
E00F00
F01E00
783E00
7FF800
3FF000
0FC000
ENDCHAR
STARTCHAR uni1E58
ENCODING 7768
SWIDTH 600 0
DWIDTH 22 0
BBX 19 30 1 0
BITMAP
000C00
001E00
001E00
000C00
000000
000000
07FE00
07FF80
0FFFC0
0E03C0
0E01E0
0E00E0
0E00E0
1C00E0
1C01C0
1C03C0
1C0F80
1FFF00
3FFE00
3FF000
387000
383800
383800
303800
701C00
701C00
700E00
700E00
600E00
E00700
ENDCHAR
STARTCHAR uni1E59
ENCODING 7769
SWIDTH 600 0
DWIDTH 22 0
BBX 17 25 3 0
BITMAP
003800
007C00
007C00
003800
000000
000000
000000
0C1F00
0C7F80
1CFF00
1DE100
1F8000
1F0000
1E0000
1C0000
380000
380000
380000
300000
300000
700000
700000
700000
700000
E00000
ENDCHAR
STARTCHAR uni1E5A
ENCODING 7770
SWIDTH 600 0
DWIDTH 22 0
BBX 19 33 1 -9
BITMAP
07FE00
07FF80
0FFFC0
0E03C0
0E01E0
0E00E0
0E00E0
1C00E0
1C01C0
1C03C0
1C0F80
1FFF00
3FFE00
3FF000
387000
383800
383800
303800
701C00
701C00
700E00
700E00
600E00
E00700
000000
000000
000000
000000
000000
038000
07C000
07C000
038000
ENDCHAR
STARTCHAR uni1E5B
ENCODING 7771
SWIDTH 600 0
DWIDTH 22 0
BBX 18 27 2 -9
BITMAP
060F80
063FC0
0E7F80
0EF080
0FC000
0F8000
0F0000
0E0000
1C0000
1C0000
1C0000
180000
180000
380000
380000
380000
380000
300000
400000
000000
000000
000000
000000
700000
F00000
F00000
E00000
ENDCHAR
STARTCHAR uni1E5C
ENCODING 7772
SWIDTH 600 0
DWIDTH 22 0
BBX 19 37 1 -9
BITMAP
00FFC0
00FF80
000000
000000
07FE00
07FF80
0FFFC0
0E03C0
0E01E0
0E00E0
0E00E0
1C00E0
1C01C0
1C03C0
1C0F80
1FFF00
3FFE00
3FF000
387000
383800
383800
303800
701C00
701C00
700E00
700E00
600E00
E00700
000000
000000
000000
000000
000000
038000
07C000
07C000
038000
ENDCHAR
STARTCHAR uni1E5D
ENCODING 7773
SWIDTH 600 0
DWIDTH 22 0
BBX 18 33 2 -9
BITMAP
00FF80
00FF80
000000
000000
000000
000000
060F80
063FC0
0E7F80
0EF080
0FC000
0F8000
0F0000
0E0000
1C0000
1C0000
1C0000
180000
180000
380000
380000
380000
380000
300000
400000
000000
000000
000000
000000
700000
F00000
F00000
E00000
ENDCHAR
STARTCHAR uni1E5E
ENCODING 7774
SWIDTH 600 0
DWIDTH 22 0
BBX 19 30 1 -6
BITMAP
07FE00
07FF80
0FFFC0
0E03C0
0E01E0
0E00E0
0E00E0
1C00E0
1C01C0
1C03C0
1C0F80
1FFF00
3FFE00
3FF000
387000
383800
383800
303800
701C00
701C00
700E00
700E00
600E00
E00700
000000
000000
000000
000000
1FF000
1FF000
ENDCHAR
STARTCHAR uni1E5F
ENCODING 7775
SWIDTH 600 0
DWIDTH 22 0
BBX 21 24 -1 -6
BITMAP
00C1F0
00C7F8
01CFF0
01DE10
01F800
01F000
01E000
01C000
038000
038000
038000
030000
030000
070000
070000
070000
070000
060000
080000
000000
000000
000000
FFC000
FF8000
ENDCHAR
STARTCHAR uni1E60
ENCODING 7776
SWIDTH 600 0
DWIDTH 22 0
BBX 18 30 1 0
BITMAP
001C00
001C00
001E00
001C00
000000
000000
00FC00
03FF00
07FF80
0783C0
0F01C0
0E0080
0E0000
0E0000
070000
078000
03E000
01F800
007C00
001E00
000F00
000700
000300
000300
600700
F00700
7C1F00
3FFE00
1FFC00
07F000
ENDCHAR
STARTCHAR uni1E61
ENCODING 7777
SWIDTH 600 0
DWIDTH 22 0
BBX 16 25 2 0
BITMAP
0038
0078
007C
0078
0000
0000
0000
03F0
0FFC
1FFE
1C0F
1803
1800
1C00
0F80
07E0
01F8
003C
000E
400E
E00E
F81E
7FFC
1FF8
07E0
ENDCHAR
STARTCHAR uni1E62
ENCODING 7778
SWIDTH 600 0
DWIDTH 22 0
BBX 18 33 1 -9
BITMAP
00FC00
03FF00
07FF80
0783C0
0F01C0
0E0080
0E0000
0E0000
070000
078000
03E000
01F800
007C00
001E00
000F00
000700
000300
000300
600700
F00700
7C1F00
3FFE00
1FFC00
07F000
000000
000000
000000
000000
000000
038000
07C000
07C000
038000
ENDCHAR
STARTCHAR uni1E63
ENCODING 7779
SWIDTH 600 0
DWIDTH 22 0
BBX 16 27 2 -9
BITMAP
03F0
0FFC
1FFE
1C0F
1803
1800
1C00
0F80
07E0
01F8
003C
000E
400E
E00E
F81E
7FFC
1FF8
07E0
0000
0000
0000
0000
0000
0700
0F80
0F80
0700
ENDCHAR
STARTCHAR uni1E6C
ENCODING 7788
SWIDTH 600 0
DWIDTH 22 0
BBX 19 33 4 -9
BITMAP
FFFFE0
FFFFC0
FFFFC0
01C000
01C000
01C000
018000
038000
038000
038000
038000
030000
070000
070000
070000
070000
060000
0E0000
0E0000
0E0000
0E0000
0C0000
1C0000
1C0000
000000
000000
000000
000000
000000
380000
7C0000
7C0000
380000
ENDCHAR
STARTCHAR uni1E6D
ENCODING 7789
SWIDTH 600 0
DWIDTH 22 0
BBX 17 33 3 -9
BITMAP
018000
038000
038000
030000
030000
070000
FFFF80
FFFF00
FFFF00
060000
0E0000
0E0000
0E0000
0C0000
0C0000
1C0000
1C0000
1C0000
1C0000
1C0000
1E0C00
1FFC00
0FF800
07E000
000000
000000
000000
000000
000000
038000
078000
078000
070000
ENDCHAR
STARTCHAR uni1E6E
ENCODING 7790
SWIDTH 600 0
DWIDTH 22 0
BBX 20 30 3 -6
BITMAP
7FFFF0
7FFFE0
7FFFE0
00E000
00E000
00E000
00C000
01C000
01C000
01C000
01C000
018000
038000
038000
038000
038000
030000
070000
070000
070000
070000
060000
0E0000
0E0000
000000
000000
000000
000000
FF8000
FF8000
ENDCHAR
STARTCHAR uni1E6F
ENCODING 7791
SWIDTH 600 0
DWIDTH 22 0
BBX 17 30 3 -6
BITMAP
018000
038000
038000
030000
030000
070000
FFFF80
FFFF00
FFFF00
060000
0E0000
0E0000
0E0000
0C0000
0C0000
1C0000
1C0000
1C0000
1C0000
1C0000
1E0C00
1FFC00
0FF800
07E000
000000
000000
000000
000000
1FF000
3FF000
ENDCHAR
STARTCHAR uni1E7E
ENCODING 7806
SWIDTH 600 0
DWIDTH 22 0
BBX 19 33 4 -9
BITMAP
E001E0
6001C0
600380
700380
700700
700700
700E00
700E00
701C00
701C00
703800
303800
307000
307000
30E000
38E000
39C000
39C000
3B8000
3B0000
3F0000
1E0000
1E0000
1C0000
000000
000000
000000
000000
000000
380000
7C0000
7C0000
380000
ENDCHAR
STARTCHAR uni1E7F
ENCODING 7807
SWIDTH 600 0
DWIDTH 22 0
BBX 18 27 3 -9
BITMAP
E001C0
E00380
600300
700700
700600
700E00
301C00
301C00
383800
383000
387000
18E000
18E000
1DC000
1D8000
0F8000
0F0000
0F0000
000000
000000
000000
000000
000000
1C0000
3E0000
3E0000
1C0000
ENDCHAR
STARTCHAR Wgrave
ENCODING 7808
SWIDTH 600 0
DWIDTH 22 0
BBX 21 31 2 0
BITMAP
004000
00E000
01F000
003800
001C00
000800
000000
700038
700038
700030
700070
700070
700060
700060
70E0E0
60E0E0
61E0C0
61E1C0
61F1C0
633180
633380
E73380
E63300
EE3300
EC3700
EC3600
F83600
D83600
F83E00
F03C00
F03C00
ENDCHAR
STARTCHAR wgrave
ENCODING 7809
SWIDTH 600 0
DWIDTH 22 0
BBX 20 28 2 0
BITMAP
004000
01C000
01E000
00F000
007000
003800
001800
001000
000000
000000
C00030
C0E070
C0E060
C1E0E0
C1E0E0
C1E0C0
C361C0
C36180
C77380
C67380
CE7300
EC7700
CC7600
DC7E00
D83E00
D83C00
F03C00
F03800
ENDCHAR
STARTCHAR Wacute
ENCODING 7810
SWIDTH 600 0
DWIDTH 22 0
BBX 21 31 2 0
BITMAP
000100
000300
000F80
001E00
003800
003000
000000
700038
700038
700030
700070
700070
700060
700060
70E0E0
60E0E0
61E0C0
61E1C0
61F1C0
633180
633380
E73380
E63300
EE3300
EC3700
EC3600
F83600
D83600
F83E00
F03C00
F03C00
ENDCHAR
STARTCHAR wacute
ENCODING 7811
SWIDTH 600 0
DWIDTH 22 0
BBX 20 28 2 0
BITMAP
000200
000600
000F00
003C00
007800
00F000
004000
000000
000000
000000
C00030
C0E070
C0E060
C1E0E0
C1E0E0
C1E0C0
C361C0
C36180
C77380
C67380
CE7300
EC7700
CC7600
DC7E00
D83E00
D83C00
F03C00
F03800
ENDCHAR
STARTCHAR Wdieresis
ENCODING 7812
SWIDTH 600 0
DWIDTH 22 0
BBX 21 29 2 0
BITMAP
00C380
01C380
01C300
000000
000000
700038
700038
700030
700070
700070
700060
700060
70E0E0
60E0E0
61E0C0
61E1C0
61F1C0
633180
633380
E73380
E63300
EE3300
EC3700
EC3600
F83600
D83600
F83E00
F03C00
F03C00
ENDCHAR
STARTCHAR wdieresis
ENCODING 7813
SWIDTH 600 0
DWIDTH 22 0
BBX 20 25 2 0
BITMAP
018700
038700
038F00
038600
000000
000000
000000
C00030
C0E070
C0E060
C1E0E0
C1E0E0
C1E0C0
C361C0
C36180
C77380
C67380
CE7300
EC7700
CC7600
DC7E00
D83E00
D83C00
F03C00
F03800
ENDCHAR
STARTCHAR uni1E8E
ENCODING 7822
SWIDTH 600 0
DWIDTH 22 0
BBX 19 30 4 0
BITMAP
006000
00F000
00E000
00E000
000000
000000
E001E0
E001C0
700380
700700
700F00
300E00
381C00
383C00
383800
1C7000
1C7000
1CE000
0DC000
0FC000
0F8000
070000
070000
060000
0E0000
0E0000
0E0000
0C0000
1C0000
1C0000
ENDCHAR
STARTCHAR uni1E8F
ENCODING 7823
SWIDTH 600 0
DWIDTH 22 0
BBX 23 32 -2 -7
BITMAP
000380
000780
000780
000700
000000
000000
000000
07000E
07001C
030018
038038
038070
038070
0180E0
01C0C0
01C1C0
01C380
00C380
00C700
00E600
00EE00
006C00
007800
007800
007000
007000
00E000
01C000
83C000
7F8000
7F0000
FC0000
ENDCHAR
STARTCHAR uni1E90
ENCODING 7824
SWIDTH 600 0
DWIDTH 22 0
BBX 20 30 1 0
BITMAP
001E00
003F00
007380
01C180
0180C0
000000
0FFFF0
0FFFF0
0FFFF0
0001E0
0001C0
000380
000700
000E00
001C00
003C00
007800
007000
00E000
01C000
038000
070000
0F0000
1E0000
1C0000
380000
700000
FFFF80
FFFF80
FFFF80
ENDCHAR
STARTCHAR uni1E91
ENCODING 7825
SWIDTH 600 0
DWIDTH 22 0
BBX 18 27 1 0
BITMAP
001C00
003E00
00F700
01C300
038180
010180
000000
000000
000000
1FFFC0
1FFFC0
1FFFC0
000380
000700
001E00
003C00
007800
00E000
01C000
038000
070000
0E0000
1C0000
380000
7FFF00
FFFF00
FFFF00
ENDCHAR
STARTCHAR uni1E92
ENCODING 7826
SWIDTH 600 0
DWIDTH 22 0
BBX 20 33 1 -9
BITMAP
0FFFF0
0FFFF0
0FFFF0
0001E0
0001C0
000380
000700
000E00
001C00
003C00
007800
007000
00E000
01C000
038000
070000
0F0000
1E0000
1C0000
380000
700000
FFFF80
FFFF80
FFFF80
000000
000000
000000
000000
000000
038000
07C000
07C000
038000
ENDCHAR
STARTCHAR uni1E93
ENCODING 7827
SWIDTH 600 0
DWIDTH 22 0
BBX 18 27 1 -9
BITMAP
1FFFC0
1FFFC0
1FFFC0
000380
000700
001E00
003C00
007800
00E000
01C000
038000
070000
0E0000
1C0000
380000
7FFF00
FFFF00
FFFF00
000000
000000
000000
000000
000000
038000
07C000
07C000
038000
ENDCHAR
STARTCHAR uni1E94
ENCODING 7828
SWIDTH 600 0
DWIDTH 22 0
BBX 20 30 1 -6
BITMAP
0FFFF0
0FFFF0
0FFFF0
0001E0
0001C0
000380
000700
000E00
001C00
003C00
007800
007000
00E000
01C000
038000
070000
0F0000
1E0000
1C0000
380000
700000
FFFF80
FFFF80
FFFF80
000000
000000
000000
000000
1FF000
1FF000
ENDCHAR
STARTCHAR uni1E95
ENCODING 7829
SWIDTH 600 0
DWIDTH 22 0
BBX 18 24 1 -6
BITMAP
1FFFC0
1FFFC0
1FFFC0
000380
000700
001E00
003C00
007800
00E000
01C000
038000
070000
0E0000
1C0000
380000
7FFF00
FFFF00
FFFF00
000000
000000
000000
000000
1FF000
1FF000
ENDCHAR
STARTCHAR uni1E96
ENCODING 7830
SWIDTH 600 0
DWIDTH 22 0
BBX 18 32 1 -6
BITMAP
070000
070000
070000
070000
060000
0E0000
0E0000
0E0000
0E1F00
0C7F80
1DFFC0
1FC3C0
1F01C0
1E01C0
1C01C0
3801C0
3801C0
380180
380380
300380
700380
700380
700300
700700
600700
E00700
000000
000000
000000
000000
1FF000
3FF000
ENDCHAR
STARTCHAR uni1E97
ENCODING 7831
SWIDTH 600 0
DWIDTH 22 0
BBX 17 30 3 0
BITMAP
0E1800
0E3C00
0E3C00
0C1800
000000
000000
018000
038000
038000
030000
030000
070000
FFFF80
FFFF00
FFFF00
060000
0E0000
0E0000
0E0000
0C0000
0C0000
1C0000
1C0000
1C0000
1C0000
1C0000
1E0C00
1FFC00
0FF800
07E000
ENDCHAR
STARTCHAR uni1E9E
ENCODING 7838
SWIDTH 600 0
DWIDTH 22 0
BBX 19 24 1 0
BITMAP
007E00
01FF80
03FFC0
07C3C0
0F00E0
0E00E0
1E01C0
1C0380
1C0700
1C0E00
381C00
383800
383E00
380F80
3003C0
7001C0
7000C0
7000E0
7000C0
6201C0
E387C0
E3FF80
E1FF00
E07C00
ENDCHAR
STARTCHAR uni1EA0
ENCODING 7840
SWIDTH 600 0
DWIDTH 22 0
BBX 19 33 -1 -9
BITMAP
000700
000F00
000F00
001B80
001B80
003380
007180
006180
00E180
00C180
01C180
0181C0
0381C0
0301C0
07FFC0
07FFC0
0FFFC0
0E00C0
1C00C0
1C00E0
3800E0
7800E0
7000E0
F000E0
000000
000000
000000
000000
000000
00E000
01E000
01E000
01C000
ENDCHAR
STARTCHAR uni1EA1
ENCODING 7841
SWIDTH 600 0
DWIDTH 22 0
BBX 18 27 2 -9
BITMAP
01F0C0
07FDC0
0FFF80
1E0F80
3C0780
780380
700380
E00300
E00300
E00700
E00700
E00700
E00F00
E01E00
F87E00
7FFE00
3FCE00
1F8E00
000000
000000
000000
000000
000000
070000
0F0000
0F0000
0E0000
ENDCHAR
STARTCHAR uni1EA2
ENCODING 7842
SWIDTH 600 0
DWIDTH 22 0
BBX 19 31 -1 0
BITMAP
000700
000780
0009C0
000180
000300
000600
000000
000700
000F00
000F00
001B80
001B80
003380
007180
006180
00E180
00C180
01C180
0181C0
0381C0
0301C0
07FFC0
07FFC0
0FFFC0
0E00C0
1C00C0
1C00E0
3800E0
7800E0
7000E0
F000E0
ENDCHAR
STARTCHAR uni1EA3
ENCODING 7843
SWIDTH 600 0
DWIDTH 22 0
BBX 18 27 2 0
BITMAP
003800
003E00
000E00
000E00
000C00
003000
000000
000000
000000
01F0C0
07FDC0
0FFF80
1E0F80
3C0780
780380
700380
E00300
E00300
E00700
E00700
E00700
E00F00
E01E00
F87E00
7FFE00
3FCE00
1F8E00
ENDCHAR
STARTCHAR uni1EA4
ENCODING 7844
SWIDTH 600 0
DWIDTH 22 0
BBX 23 32 -1 0
BITMAP
000002
00000E
00001C
0007B0
000FC0
001CE0
003060
000000
000700
000F00
000F00
001B80
001B80
003380
007180
006180
00E180
00C180
01C180
0181C0
0381C0
0301C0
07FFC0
07FFC0
0FFFC0
0E00C0
1C00C0
1C00E0
3800E0
7800E0
7000E0
F000E0
ENDCHAR
STARTCHAR uni1EA5
ENCODING 7845
SWIDTH 600 0
DWIDTH 22 0
BBX 21 28 2 0
BITMAP
000010
000038
000060
003CC0
007D80
00EE00
01C700
010100
000000
000000
01F0C0
07FDC0
0FFF80
1E0F80
3C0780
780380
700380
E00300
E00300
E00700
E00700
E00700
E00F00
E01E00
F87E00
7FFE00
3FCE00
1F8E00
ENDCHAR
STARTCHAR uni1EA6
ENCODING 7846
SWIDTH 600 0
DWIDTH 22 0
BBX 19 32 -1 0
BITMAP
004000
00E000
007000
003780
000FC0
001CE0
003060
000000
000700
000F00
000F00
001B80
001B80
003380
007180
006180
00E180
00C180
01C180
0181C0
0381C0
0301C0
07FFC0
07FFC0
0FFFC0
0E00C0
1C00C0
1C00E0
3800E0
7800E0
7000E0
F000E0
ENDCHAR
STARTCHAR uni1EA7
ENCODING 7847
SWIDTH 600 0
DWIDTH 22 0
BBX 18 28 2 0
BITMAP
0C0000
1C0000
060000
073C00
027C00
00EE00
01C700
010100
000000
000000
01F0C0
07FDC0
0FFF80
1E0F80
3C0780
780380
700380
E00300
E00300
E00700
E00700
E00700
E00F00
E01E00
F87E00
7FFE00
3FCE00
1F8E00
ENDCHAR
STARTCHAR uni1EA8
ENCODING 7848
SWIDTH 600 0
DWIDTH 22 0
BBX 23 32 -1 0
BITMAP
00001C
00002E
000006
00078C
000FD8
001CE0
003060
000000
000700
000F00
000F00
001B80
001B80
003380
007180
006180
00E180
00C180
01C180
0181C0
0381C0
0301C0
07FFC0
07FFC0
0FFFC0
0E00C0
1C00C0
1C00E0
3800E0
7800E0
7000E0
F000E0
ENDCHAR
STARTCHAR uni1EA9
ENCODING 7849
SWIDTH 600 0
DWIDTH 22 0
BBX 20 28 2 0
BITMAP
0001C0
000070
000070
003C60
007CC0
00EE00
01C300
010100
000000
000000
01F0C0
07FDC0
0FFF80
1E0F80
3C0780
780380
700380
E00300
E00300
E00700
E00700
E00700
E00F00
E01E00
F87E00
7FFE00
3FCE00
1F8E00
ENDCHAR
STARTCHAR uni1EAA
ENCODING 7850
SWIDTH 600 0
DWIDTH 22 0
BBX 21 34 -1 0
BITMAP
000E08
001F98
0019F0
0030F0
000000
000780
000FC0
001CE0
003060
000000
000700
000F00
000F00
001B80
001B80
003380
007180
006180
00E180
00C180
01C180
0181C0
0381C0
0301C0
07FFC0
07FFC0
0FFFC0
0E00C0
1C00C0
1C00E0
3800E0
7800E0
7000E0
F000E0
ENDCHAR
STARTCHAR uni1EAB
ENCODING 7851
SWIDTH 600 0
DWIDTH 22 0
BBX 18 29 2 0
BITMAP
0020C0
00F880
00DF80
018700
003C00
007E00
01C700
018100
000000
000000
000000
01F0C0
07FDC0
0FFF80
1E0F80
3C0780
780380
700380
E00300
E00300
E00700
E00700
E00700
E00F00
E01E00
F87E00
7FFE00
3FCE00
1F8E00
ENDCHAR
STARTCHAR uni1EAC
ENCODING 7852
SWIDTH 600 0
DWIDTH 22 0
BBX 20 39 -1 -9
BITMAP
000780
000FC0
001CE0
003870
006030
000000
000700
000F00
000F00
001B80
001B80
003380
007180
006180
00E180
00C180
01C180
0181C0
0381C0
0301C0
07FFC0
07FFC0
0FFFC0
0E00C0
1C00C0
1C00E0
3800E0
7800E0
7000E0
F000E0
000000
000000
000000
000000
000000
00E000
01E000
01E000
01C000
ENDCHAR
STARTCHAR uni1EAD
ENCODING 7853
SWIDTH 600 0
DWIDTH 22 0
BBX 18 36 2 -9
BITMAP
003C00
007E00
00E600
01C700
038380
030100
000000
000000
000000
01F0C0
07FDC0
0FFF80
1E0F80
3C0780
780380
700380
E00300
E00300
E00700
E00700
E00700
E00F00
E01E00
F87E00
7FFE00
3FCE00
1F8E00
000000
000000
000000
000000
000000
070000
0F0000
0F0000
0E0000
ENDCHAR
STARTCHAR uni1EAE
ENCODING 7854
SWIDTH 600 0
DWIDTH 22 0
BBX 21 34 -1 0
BITMAP
000020
0000F0
0001C0
000380
003118
003030
001870
001FE0
000F80
000000
000700
000F00
000F00
001B80
001B80
003380
007180
006180
00E180
00C180
01C180
0181C0
0381C0
0301C0
07FFC0
07FFC0
0FFFC0
0E00C0
1C00C0
1C00E0
3800E0
7800E0
7000E0
F000E0
ENDCHAR
STARTCHAR uni1EAF
ENCODING 7855
SWIDTH 600 0
DWIDTH 22 0
BBX 18 30 2 0
BITMAP
000200
000700
000E00
001C00
0108C0
018180
018180
01C700
00FE00
007C00
000000
000000
01F0C0
07FDC0
0FFF80
1E0F80
3C0780
780380
700380
E00300
E00300
E00700
E00700
E00700
E00F00
E01E00
F87E00
7FFE00
3FCE00
1F8E00
ENDCHAR
STARTCHAR uni1EB0
ENCODING 7856
SWIDTH 600 0
DWIDTH 22 0
BBX 21 34 -1 0
BITMAP
000600
000E00
000700
000380
003118
003030
001870
001FE0
000F80
000000
000700
000F00
000F00
001B80
001B80
003380
007180
006180
00E180
00C180
01C180
0181C0
0381C0
0301C0
07FFC0
07FFC0
0FFFC0
0E00C0
1C00C0
1C00E0
3800E0
7800E0
7000E0
F000E0
ENDCHAR
STARTCHAR uni1EB1
ENCODING 7857
SWIDTH 600 0
DWIDTH 22 0
BBX 18 30 2 0
BITMAP
002000
007000
003800
001800
010CC0
018180
018180
01C700
00FE00
007C00
000000
000000
01F0C0
07FDC0
0FFF80
1E0F80
3C0780
780380
700380
E00300
E00300
E00700
E00700
E00700
E00F00
E01E00
F87E00
7FFE00
3FCE00
1F8E00
ENDCHAR
STARTCHAR uni1EB2
ENCODING 7858
SWIDTH 600 0
DWIDTH 22 0
BBX 21 35 -1 0
BITMAP
000380
0003C0
0000C0
0000C0
0000C0
003318
003030
001870
001FE0
000F80
000000
000700
000F00
000F00
001B80
001B80
003380
007180
006180
00E180
00C180
01C180
0181C0
0381C0
0301C0
07FFC0
07FFC0
0FFFC0
0E00C0
1C00C0
1C00E0
3800E0
7800E0
7000E0
F000E0
ENDCHAR
STARTCHAR uni1EB3
ENCODING 7859
SWIDTH 600 0
DWIDTH 22 0
BBX 18 30 2 0
BITMAP
001C00
001E00
000600
000600
010CC0
019980
018180
01C700
00FE00
007C00
000000
000000
01F0C0
07FDC0
0FFF80
1E0F80
3C0780
780380
700380
E00300
E00300
E00700
E00700
E00700
E00F00
E01E00
F87E00
7FFE00
3FCE00
1F8E00
ENDCHAR
STARTCHAR uni1EB4
ENCODING 7860
SWIDTH 600 0
DWIDTH 22 0
BBX 21 34 -1 0
BITMAP
000F08
001F98
0019F8
0030F0
000000
003038
003870
001FE0
000F80
000000
000700
000F00
000F00
001B80
001B80
003380
007180
006180
00E180
00C180
01C180
0181C0
0381C0
0301C0
07FFC0
07FFC0
0FFFC0
0E00C0
1C00C0
1C00E0
3800E0
7800E0
7000E0
F000E0
ENDCHAR
STARTCHAR uni1EB5
ENCODING 7861
SWIDTH 600 0
DWIDTH 22 0
BBX 18 29 2 0
BITMAP
0070C0
00F880
00DF80
018700
000000
018180
01C300
01FF00
007C00
000000
000000
01F0C0
07FDC0
0FFF80
1E0F80
3C0780
780380
700380
E00300
E00300
E00700
E00700
E00700
E00F00
E01E00
F87E00
7FFE00
3FCE00
1F8E00
ENDCHAR
STARTCHAR uni1EB6
ENCODING 7862
SWIDTH 600 0
DWIDTH 22 0
BBX 21 39 -1 -9
BITMAP
003018
003030
003870
001FE0
000F80
000000
000700
000F00
000F00
001B80
001B80
003380
007180
006180
00E180
00C180
01C180
0181C0
0381C0
0301C0
07FFC0
07FFC0
0FFFC0
0E00C0
1C00C0
1C00E0
3800E0
7800E0
7000E0
F000E0
000000
000000
000000
000000
000000
00E000
01E000
01E000
01C000
ENDCHAR
STARTCHAR uni1EB7
ENCODING 7863
SWIDTH 600 0
DWIDTH 22 0
BBX 18 35 2 -9
BITMAP
0180C0
018180
01C380
00FF00
007C00
000000
000000
000000
01F0C0
07FDC0
0FFF80
1E0F80
3C0780
780380
700380
E00300
E00300
E00700
E00700
E00700
E00F00
E01E00
F87E00
7FFE00
3FCE00
1F8E00
000000
000000
000000
000000
000000
070000
0F0000
0F0000
0E0000
ENDCHAR
STARTCHAR uni1EB8
ENCODING 7864
SWIDTH 600 0
DWIDTH 22 0
BBX 19 33 2 -9
BITMAP
07FFE0
07FFE0
0FFFE0
0E0000
0E0000
0E0000
0C0000
1C0000
1C0000
1C0000
1FFF00
1FFE00
3FFE00
380000
380000
380000
300000
700000
700000
700000
700000
7FFF00
FFFE00
FFFE00
000000
000000
000000
000000
000000
038000
078000
078000
070000
ENDCHAR
STARTCHAR uni1EB9
ENCODING 7865
SWIDTH 600 0
DWIDTH 22 0
BBX 17 27 2 -9
BITMAP
01F800
07FE00
0FFF00
1E0700
3C0380
700380
700380
7FFF80
FFFF80
FFFF80
E00000
E00000
E00000
700600
7C1E00
3FFC00
1FF800
07E000
000000
000000
000000
000000
000000
070000
0F8000
0F8000
070000
ENDCHAR
STARTCHAR uni1EBA
ENCODING 7866
SWIDTH 600 0
DWIDTH 22 0
BBX 19 31 2 0
BITMAP
001C00
001F00
000700
000600
000E00
001800
000000
07FFE0
07FFE0
0FFFE0
0E0000
0E0000
0E0000
0C0000
1C0000
1C0000
1C0000
1FFF00
1FFE00
3FFE00
380000
380000
380000
300000
700000
700000
700000
700000
7FFF00
FFFE00
FFFE00
ENDCHAR
STARTCHAR uni1EBB
ENCODING 7867
SWIDTH 600 0
DWIDTH 22 0
BBX 17 27 2 0
BITMAP
003800
003C00
004E00
000C00
001C00
003000
000000
000000
000000
01F800
07FE00
0FFF00
1E0700
3C0380
700380
700380
7FFF80
FFFF80
FFFF80
E00000
E00000
E00000
700600
7C1E00
3FFC00
1FF800
07E000
ENDCHAR
STARTCHAR uni1EBC
ENCODING 7868
SWIDTH 600 0
DWIDTH 22 0
BBX 20 30 2 0
BITMAP
007C30
00FE60
0187E0
0183C0
000000
000000
07FFE0
07FFE0
0FFFE0
0E0000
0E0000
0E0000
0C0000
1C0000
1C0000
1C0000
1FFF00
1FFE00
3FFE00
380000
380000
380000
300000
700000
700000
700000
700000
7FFF00
FFFE00
FFFE00
ENDCHAR
STARTCHAR uni1EBD
ENCODING 7869
SWIDTH 600 0
DWIDTH 22 0
BBX 18 26 2 0
BITMAP
01E0C0
03F0C0
033980
071F80
060F00
000000
000000
000000
01F800
07FE00
0FFF00
1E0700
3C0380
700380
700380
7FFF80
FFFF80
FFFF80
E00000
E00000
E00000
700600
7C1E00
3FFC00
1FF800
07E000
ENDCHAR
STARTCHAR uni1EBE
ENCODING 7870
SWIDTH 600 0
DWIDTH 22 0
BBX 22 32 2 0
BITMAP
000008
00001C
000070
000E40
003F00
007380
00C0C0
000000
07FFE0
07FFE0
0FFFE0
0E0000
0E0000
0E0000
0C0000
1C0000
1C0000
1C0000
1FFF00
1FFE00
3FFE00
380000
380000
380000
300000
700000
700000
700000
700000
7FFF00
FFFE00
FFFE00
ENDCHAR
STARTCHAR uni1EBF
ENCODING 7871
SWIDTH 600 0
DWIDTH 22 0
BBX 20 28 2 0
BITMAP
000020
000070
0000E0
0039C0
007C80
00EE00
038700
010200
000000
000000
01F800
07FE00
0FFF00
1E0700
3C0380
700380
700380
7FFF80
FFFF80
FFFF80
E00000
E00000
E00000
700600
7C1E00
3FFC00
1FF800
07E000
ENDCHAR
STARTCHAR uni1EC0
ENCODING 7872
SWIDTH 600 0
DWIDTH 22 0
BBX 19 32 2 0
BITMAP
010000
038000
00C000
004E00
003F00
007380
00C0C0
000000
07FFE0
07FFE0
0FFFE0
0E0000
0E0000
0E0000
0C0000
1C0000
1C0000
1C0000
1FFF00
1FFE00
3FFE00
380000
380000
380000
300000
700000
700000
700000
700000
7FFF00
FFFE00
FFFE00
ENDCHAR
STARTCHAR uni1EC1
ENCODING 7873
SWIDTH 600 0
DWIDTH 22 0
BBX 17 28 2 0
BITMAP
080000
1C0000
0E0000
063800
037C00
00EE00
038700
010200
000000
000000
01F800
07FE00
0FFF00
1E0700
3C0380
700380
700380
7FFF80
FFFF80
FFFF80
E00000
E00000
E00000
700600
7C1E00
3FFC00
1FF800
07E000
ENDCHAR
STARTCHAR uni1EC2
ENCODING 7874
SWIDTH 600 0
DWIDTH 22 0
BBX 21 32 2 0
BITMAP
000070
000018
000018
000E38
003F60
007380
00C0C0
000000
07FFE0
07FFE0
0FFFE0
0E0000
0E0000
0E0000
0C0000
1C0000
1C0000
1C0000
1FFF00
1FFE00
3FFE00
380000
380000
380000
300000
700000
700000
700000
700000
7FFF00
FFFE00
FFFE00
ENDCHAR
STARTCHAR uni1EC3
ENCODING 7875
SWIDTH 600 0
DWIDTH 22 0
BBX 19 28 2 0
BITMAP
0001C0
000060
000060
003860
007D80
00EE00
038700
010200
000000
000000
01F800
07FE00
0FFF00
1E0700
3C0380
700380
700380
7FFF80
FFFF80
FFFF80
E00000
E00000
E00000
700600
7C1E00
3FFC00
1FF800
07E000
ENDCHAR
STARTCHAR uni1EC4
ENCODING 7876
SWIDTH 600 0
DWIDTH 22 0
BBX 20 34 2 0
BITMAP
003C30
007E60
0067E0
0043C0
000000
000E00
003F00
007380
00C0C0
000000
07FFE0
07FFE0
0FFFE0
0E0000
0E0000
0E0000
0C0000
1C0000
1C0000
1C0000
1FFF00
1FFE00
3FFE00
380000
380000
380000
300000
700000
700000
700000
700000
7FFF00
FFFE00
FFFE00
ENDCHAR
STARTCHAR uni1EC5
ENCODING 7877
SWIDTH 600 0
DWIDTH 22 0
BBX 17 29 2 0
BITMAP
006080
00F980
01DF80
018F00
003C00
00FE00
01C700
030300
000000
000000
000000
01F800
07FE00
0FFF00
1E0700
3C0380
700380
700380
7FFF80
FFFF80
FFFF80
E00000
E00000
E00000
700600
7C1E00
3FFC00
1FF800
07E000
ENDCHAR
STARTCHAR uni1EC6
ENCODING 7878
SWIDTH 600 0
DWIDTH 22 0
BBX 19 39 2 -9
BITMAP
000F00
003F00
007380
00E1C0
018040
000000
07FFE0
07FFE0
0FFFE0
0E0000
0E0000
0E0000
0C0000
1C0000
1C0000
1C0000
1FFF00
1FFE00
3FFE00
380000
380000
380000
300000
700000
700000
700000
700000
7FFF00
FFFE00
FFFE00
000000
000000
000000
000000
000000
038000
078000
078000
070000
ENDCHAR
STARTCHAR uni1EC7
ENCODING 7879
SWIDTH 600 0
DWIDTH 22 0
BBX 17 36 2 -9
BITMAP
003C00
007C00
00EE00
01C700
038300
020180
000000
000000
000000
01F800
07FE00
0FFF00
1E0700
3C0380
700380
700380
7FFF80
FFFF80
FFFF80
E00000
E00000
E00000
700600
7C1E00
3FFC00
1FF800
07E000
000000
000000
000000
000000
000000
070000
0F8000
0F8000
070000
ENDCHAR
STARTCHAR uni1EC8
ENCODING 7880
SWIDTH 600 0
DWIDTH 22 0
BBX 20 31 1 0
BITMAP
001C00
001E00
002700
000600
000C00
001800
000000
07FFF0
07FFE0
07FFE0
083800
003800
003800
003000
007000
007000
007000
007000
006000
00E000
00E000
00E000
00E000
00C000
01C000
01C000
01C000
018000
7FFE00
FFFE00
FFFE00
ENDCHAR
STARTCHAR uni1EC9
ENCODING 7881
SWIDTH 600 0
DWIDTH 22 0
BBX 13 27 4 0
BITMAP
01C0
01E0
0070
0060
00E0
0180
0000
0000
0000
FF80
FF80
FF80
0380
0300
0300
0700
0700
0600
0600
0E00
0E00
0E00
0E00
0E08
0FF8
07F8
03E0
ENDCHAR
STARTCHAR uni1ECA
ENCODING 7882
SWIDTH 600 0
DWIDTH 22 0
BBX 20 33 1 -9
BITMAP
07FFF0
07FFE0
07FFE0
083800
003800
003800
003000
007000
007000
007000
007000
006000
00E000
00E000
00E000
00E000
00C000
01C000
01C000
01C000
018000
7FFE00
FFFE00
FFFE00
000000
000000
000000
000000
000000
070000
0F8000
0F8000
070000
ENDCHAR
STARTCHAR uni1ECB
ENCODING 7883
SWIDTH 600 0
DWIDTH 22 0
BBX 13 34 4 -9
BITMAP
01C0
03E0
03E0
01C0
0000
0000
0000
FF80
FF80
FF80
0380
0300
0300
0700
0700
0600
0600
0E00
0E00
0E00
0E00
0E08
0FF8
07F8
03E0
0000
0000
0000
0000
0000
0380
0780
0780
0700
ENDCHAR
STARTCHAR uni1ECC
ENCODING 7884
SWIDTH 600 0
DWIDTH 22 0
BBX 19 33 1 -9
BITMAP
007E00
01FF00
07FF80
0F83C0
0F01E0
1C00E0
3C00E0
3800E0
380060
700060
7000E0
7000E0
6000E0
6000E0
E000E0
E001C0
6001C0
700380
700780
780F00
3C1F00
3FFC00
0FF800
07E000
000000
000000
000000
000000
000000
070000
0F8000
0F8000
070000
ENDCHAR
STARTCHAR uni1ECD
ENCODING 7885
SWIDTH 600 0
DWIDTH 22 0
BBX 17 27 2 -9
BITMAP
01F800
07FC00
1FFE00
3E0F00
780780
700380
E00380
E00380
E00380
E00380
C00380
E00700
E00F00
F01E00
783E00
7FF800
3FF000
0FC000
000000
000000
000000
000000
000000
0E0000
1F0000
1F0000
0E0000
ENDCHAR
STARTCHAR uni1ECE
ENCODING 7886
SWIDTH 600 0
DWIDTH 22 0
BBX 19 31 1 0
BITMAP
001C00
001E00
002700
000600
000C00
001800
000000
007E00
01FF00
07FF80
0F83C0
0F01E0
1C00E0
3C00E0
3800E0
380060
700060
7000E0
7000E0
6000E0
6000E0
E000E0
E001C0
6001C0
700380
700780
780F00
3C1F00
3FFC00
0FF800
07E000
ENDCHAR
STARTCHAR uni1ECF
ENCODING 7887
SWIDTH 600 0
DWIDTH 22 0
BBX 17 27 2 0
BITMAP
003800
007C00
001C00
000C00
001800
007000
000000
000000
000000
01F800
07FC00
1FFE00
3E0F00
780780
700380
E00380
E00380
E00380
E00380
C00380
E00700
E00F00
F01E00
783E00
7FF800
3FF000
0FC000
ENDCHAR
STARTCHAR uni1ED0
ENCODING 7888
SWIDTH 600 0
DWIDTH 22 0
BBX 21 32 1 0
BITMAP
000008
000038
000070
001EC0
003F00
007380
00C180
000000
007E00
01FF00
07FF80
0F83C0
0F01E0
1C00E0
3C00E0
3800E0
380060
700060
7000E0
7000E0
6000E0
6000E0
E000E0
E001C0
6001C0
700380
700780
780F00
3C1F00
3FFC00
0FF800
07E000
ENDCHAR
STARTCHAR uni1ED1
ENCODING 7889
SWIDTH 600 0
DWIDTH 22 0
BBX 20 28 2 0
BITMAP
000020
000070
0000E0
0039C0
00FD00
01EE00
038700
010200
000000
000000
01F800
07FC00
1FFE00
3E0F00
780780
700380
E00380
E00380
E00380
E00380
C00380
E00700
E00F00
F01E00
783E00
7FF800
3FF000
0FC000
ENDCHAR
STARTCHAR uni1ED2
ENCODING 7890
SWIDTH 600 0
DWIDTH 22 0
BBX 19 32 1 0
BITMAP
010000
038000
01C000
00DE00
003F00
007380
00C180
000000
007E00
01FF00
07FF80
0F83C0
0F01E0
1C00E0
3C00E0
3800E0
380060
700060
7000E0
7000E0
6000E0
6000E0
E000E0
E001C0
6001C0
700380
700780
780F00
3C1F00
3FFC00
0FF800
07E000
ENDCHAR
STARTCHAR uni1ED3
ENCODING 7891
SWIDTH 600 0
DWIDTH 22 0
BBX 17 28 2 0
BITMAP
080000
1C0000
0C0000
063800
03FC00
01EE00
038700
010200
000000
000000
01F800
07FC00
1FFE00
3E0F00
780780
700380
E00380
E00380
E00380
E00380
C00380
E00700
E00F00
F01E00
783E00
7FF800
3FF000
0FC000
ENDCHAR
STARTCHAR uni1ED4
ENCODING 7892
SWIDTH 600 0
DWIDTH 22 0
BBX 21 32 1 0
BITMAP
000070
0000B8
000018
001E30
003F60
007380
00C180
000000
007E00
01FF00
07FF80
0F83C0
0F01E0
1C00E0
3C00E0
3800E0
380060
700060
7000E0
7000E0
6000E0
6000E0
E000E0
E001C0
6001C0
700380
700780
780F00
3C1F00
3FFC00
0FF800
07E000
ENDCHAR
STARTCHAR uni1ED5
ENCODING 7893
SWIDTH 600 0
DWIDTH 22 0
BBX 19 28 2 0
BITMAP
0001C0
000060
000060
0038E0
007D80
01EE00
038700
010200
000000
000000
01F800
07FC00
1FFE00
3E0F00
780780
700380
E00380
E00380
E00380
E00380
C00380
E00700
E00F00
F01E00
783E00
7FF800
3FF000
0FC000
ENDCHAR
STARTCHAR uni1ED6
ENCODING 7894
SWIDTH 600 0
DWIDTH 22 0
BBX 19 34 1 0
BITMAP
003820
007E60
0067C0
00C3C0
000000
001E00
003F00
007380
00C180
000000
007E00
01FF00
07FF80
0F83C0
0F01E0
1C00E0
3C00E0
3800E0
380060
700060
7000E0
7000E0
6000E0
6000E0
E000E0
E001C0
6001C0
700380
700780
780F00
3C1F00
3FFC00
0FF800
07E000
ENDCHAR
STARTCHAR uni1ED7
ENCODING 7895
SWIDTH 600 0
DWIDTH 22 0
BBX 17 29 2 0
BITMAP
006080
00F980
01BF00
010F00
003800
00FC00
01C600
030300
000000
000000
000000
01F800
07FC00
1FFE00
3E0F00
780780
700380
E00380
E00380
E00380
E00380
C00380
E00700
E00F00
F01E00
783E00
7FF800
3FF000
0FC000
ENDCHAR
STARTCHAR uni1ED8
ENCODING 7896
SWIDTH 600 0
DWIDTH 22 0
BBX 19 39 1 -9
BITMAP
001E00
003F00
007380
00E1C0
0180C0
000000
007E00
01FF00
07FF80
0F83C0
0F01E0
1C00E0
3C00E0
3800E0
380060
700060
7000E0
7000E0
6000E0
6000E0
E000E0
E001C0
6001C0
700380
700780
780F00
3C1F00
3FFC00
0FF800
07E000
000000
000000
000000
000000
000000
070000
0F8000
0F8000
070000
ENDCHAR
STARTCHAR uni1ED9
ENCODING 7897
SWIDTH 600 0
DWIDTH 22 0
BBX 17 36 2 -9
BITMAP
003C00
007C00
00EE00
01C600
030300
060100
000000
000000
000000
01F800
07FC00
1FFE00
3E0F00
780780
700380
E00380
E00380
E00380
E00380
C00380
E00700
E00F00
F01E00
783E00
7FF800
3FF000
0FC000
000000
000000
000000
000000
000000
0E0000
1F0000
1F0000
0E0000
ENDCHAR
STARTCHAR uni1EDA
ENCODING 7898
SWIDTH 600 0
DWIDTH 22 0
BBX 22 31 1 0
BITMAP
000080
0001C0
0007CC
000F1C
001C1C
00081C
00001C
007E38
01FFF0
07FFC0
0F83C0
0F01C0
1C00E0
3C00E0
3800E0
380060
700060
7000E0
7000E0
6000E0
6000E0
E000E0
E001C0
6001C0
7003C0
700780
780F00
3C1F00
3FFE00
0FF800
07E000
ENDCHAR
STARTCHAR uni1EDB
ENCODING 7899
SWIDTH 600 0
DWIDTH 22 0
BBX 19 28 2 0
BITMAP
000200
000700
000F00
001C00
003820
007060
004060
000060
000060
0000E0
01F9C0
07FF80
1FFE00
3E0F00
780700
700380
E00380
E00380
E00380
E00380
C00380
E00700
E00F00
F01E00
783E00
7FFC00
3FF000
0FC000
ENDCHAR
STARTCHAR uni1EDC
ENCODING 7900
SWIDTH 600 0
DWIDTH 22 0
BBX 22 31 1 0
BITMAP
002000
007000
00380C
001C1C
000E1C
00041C
00001C
007E38
01FFF0
07FFC0
0F83C0
0F01C0
1C00E0
3C00E0
3800E0
380060
700060
7000E0
7000E0
6000E0
6000E0
E000E0
E001C0
6001C0
7003C0
700780
780F00
3C1F00
3FFE00
0FF800
07E000
ENDCHAR
STARTCHAR uni1EDD
ENCODING 7901
SWIDTH 600 0
DWIDTH 22 0
BBX 19 28 2 0
BITMAP
004000
00E000
01E000
007000
007020
003860
001C60
000860
000060
0000E0
01F9C0
07FF80
1FFE00
3E0F00
780700
700380
E00380
E00380
E00380
E00380
C00380
E00700
E00F00
F01E00
783E00
7FFC00
3FF000
0FC000
ENDCHAR
STARTCHAR uni1EDE
ENCODING 7902
SWIDTH 600 0
DWIDTH 22 0
BBX 22 31 1 0
BITMAP
001C00
001E00
00270C
00061C
000C1C
00181C
00001C
007E38
01FFF0
07FFC0
0F83C0
0F01C0
1C00E0
3C00E0
3800E0
380060
700060
7000E0
7000E0
6000E0
6000E0
E000E0
E001C0
6001C0
7003C0
700780
780F00
3C1F00
3FFE00
0FF800
07E000
ENDCHAR
STARTCHAR uni1EDF
ENCODING 7903
SWIDTH 600 0
DWIDTH 22 0
BBX 19 27 2 0
BITMAP
003800
007C00
001C00
000C20
001860
007060
000060
000060
0000E0
01F9C0
07FF80
1FFE00
3E0F00
780700
700380
E00380
E00380
E00380
E00380
C00380
E00700
E00F00
F01E00
783E00
7FFC00
3FF000
0FC000
ENDCHAR
STARTCHAR uni1EE0
ENCODING 7904
SWIDTH 600 0
DWIDTH 22 0
BBX 22 30 1 0
BITMAP
01F0E0
03F8CC
031F9C
060F1C
00001C
00001C
007E38
01FFF0
07FFC0
0F83C0
0F01C0
1C00E0
3C00E0
3800E0
380060
700060
7000E0
7000E0
6000E0
6000E0
E000E0
E001C0
6001C0
7003C0
700780
780F00
3C1F00
3FFE00
0FF800
07E000
ENDCHAR
STARTCHAR uni1EE1
ENCODING 7905
SWIDTH 600 0
DWIDTH 22 0
BBX 19 26 2 0
BITMAP
03C180
07E300
0E6320
0C3E60
0C1C60
000060
000060
0000E0
01F9C0
07FF80
1FFE00
3E0F00
780700
700380
E00380
E00380
E00380
E00380
C00380
E00700
E00F00
F01E00
783E00
7FFC00
3FF000
0FC000
ENDCHAR
STARTCHAR uni1EE2
ENCODING 7906
SWIDTH 600 0
DWIDTH 22 0
BBX 22 38 1 -9
BITMAP
00000C
00001C
00001C
00001C
00001C
007E38
01FFF0
07FFC0
0F83C0
0F01C0
1C00E0
3C00E0
3800E0
380060
700060
7000E0
7000E0
6000E0
6000E0
E000E0
E001C0
6001C0
7003C0
700780
780F00
3C1F00
3FFE00
0FF800
07E000
000000
000000
000000
000000
000000
070000
0F8000
0F8000
070000
ENDCHAR
STARTCHAR uni1EE3
ENCODING 7907
SWIDTH 600 0
DWIDTH 22 0
BBX 19 33 2 -9
BITMAP
000020
000060
000060
000060
000060
0000E0
01F9C0
07FF80
1FFE00
3E0F00
780700
700380
E00380
E00380
E00380
E00380
C00380
E00700
E00F00
F01E00
783E00
7FFC00
3FF000
0FC000
000000
000000
000000
000000
000000
0E0000
1F0000
1F0000
0E0000
ENDCHAR
STARTCHAR uni1EE4
ENCODING 7908
SWIDTH 600 0
DWIDTH 22 0
BBX 19 33 2 -9
BITMAP
1C00E0
1C00E0
1C00E0
1800C0
3800C0
3801C0
3801C0
3801C0
300180
700380
700380
700380
700380
600300
E00700
E00700
E00700
E00F00
E00E00
701E00
783C00
3FF800
3FF000
0FC000
000000
000000
000000
000000
000000
0E0000
1F0000
1F0000
0E0000
ENDCHAR
STARTCHAR uni1EE5
ENCODING 7909
SWIDTH 600 0
DWIDTH 22 0
BBX 18 27 2 -9
BITMAP
3801C0
380180
380380
380380
300380
700380
700380
700700
600700
600700
E00700
E00F00
E01E00
E03E00
F0FE00
FFEE00
7F8E00
3E0C00
000000
000000
000000
000000
000000
070000
0F0000
0F0000
0E0000
ENDCHAR
STARTCHAR uni1EE6
ENCODING 7910
SWIDTH 600 0
DWIDTH 22 0
BBX 19 31 2 0
BITMAP
003800
003C00
004E00
000C00
001800
003000
000000
1C00E0
1C00E0
1C00E0
1800C0
3800C0
3801C0
3801C0
3801C0
300180
700380
700380
700380
700380
600300
E00700
E00700
E00700
E00F00
E00E00
701E00
783C00
3FF800
3FF000
0FC000
ENDCHAR
STARTCHAR uni1EE7
ENCODING 7911
SWIDTH 600 0
DWIDTH 22 0
BBX 18 27 2 0
BITMAP
003800
007C00
001C00
000C00
001800
007000
000000
000000
000000
3801C0
380180
380380
380380
300380
700380
700380
700700
600700
600700
E00700
E00F00
E01E00
E03E00
F0FE00
FFEE00
7F8E00
3E0C00
ENDCHAR
STARTCHAR uni1EE8
ENCODING 7912
SWIDTH 600 0
DWIDTH 22 0
BBX 24 31 2 0
BITMAP
000100
000382
000F87
001E07
003807
001006
00000E
1C00F8
1C00E0
1C00E0
1800C0
3800C0
3801C0
3801C0
3801C0
3001C0
700380
700380
700380
700380
600380
E00700
E00700
E00700
E00F00
E00E00
701E00
783C00
3FF800
3FF000
0FC000
ENDCHAR
STARTCHAR uni1EE9
ENCODING 7913
SWIDTH 600 0
DWIDTH 22 0
BBX 22 28 2 0
BITMAP
000200
000700
000F00
001C00
003808
00701C
00401C
000018
000018
000070
3801E0
380180
380380
380380
300380
700380
700300
700700
600700
600700
E00700
E00F00
E01E00
E03E00
F0FE00
FFEE00
7F8E00
3E0C00
ENDCHAR
STARTCHAR uni1EEA
ENCODING 7914
SWIDTH 600 0
DWIDTH 22 0
BBX 24 31 2 0
BITMAP
004000
00E002
007007
003807
001C07
000806
00000E
1C00F8
1C00E0
1C00E0
1800C0
3800C0
3801C0
3801C0
3801C0
3001C0
700380
700380
700380
700380
600380
E00700
E00700
E00700
E00F00
E00E00
701E00
783C00
3FF800
3FF000
0FC000
ENDCHAR
STARTCHAR uni1EEB
ENCODING 7915
SWIDTH 600 0
DWIDTH 22 0
BBX 22 28 2 0
BITMAP
004000
00E000
01E000
00F000
007008
00381C
001C1C
000818
000018
000070
3801E0
380180
380380
380380
300380
700380
700300
700700
600700
600700
E00700
E00F00
E01E00
E03E00
F0FE00
FFEE00
7F8E00
3E0C00
ENDCHAR
STARTCHAR uni1EEC
ENCODING 7916
SWIDTH 600 0
DWIDTH 22 0
BBX 24 31 2 0
BITMAP
003800
003C02
004E07
000C07
001807
003006
00000E
1C00F8
1C00E0
1C00E0
1800C0
3800C0
3801C0
3801C0
3801C0
3001C0
700380
700380
700380
700380
600380
E00700
E00700
E00700
E00F00
E00E00
701E00
783C00
3FF800
3FF000
0FC000
ENDCHAR
STARTCHAR uni1EED
ENCODING 7917
SWIDTH 600 0
DWIDTH 22 0
BBX 22 27 2 0
BITMAP
003800
007C00
001C00
000C08
00181C
00701C
000018
000018
000070
3801E0
380180
380380
380380
300380
700380
700300
700700
600700
600700
E00700
E00F00
E01E00
E03E00
F0FE00
FFEE00
7F8E00
3E0C00
ENDCHAR
STARTCHAR uni1EEE
ENCODING 7918
SWIDTH 600 0
DWIDTH 22 0
BBX 24 30 2 0
BITMAP
01F062
03F8C7
031FC7
030707
000006
00000E
1C00F8
1C00E0
1C00E0
1800C0
3800C0
3801C0
3801C0
3801C0
3001C0
700380
700380
700380
700380
600380
E00700
E00700
E00700
E00F00
E00E00
701E00
783C00
3FF800
3FF000
0FC000
ENDCHAR
STARTCHAR uni1EEF
ENCODING 7919
SWIDTH 600 0
DWIDTH 22 0
BBX 22 26 2 0
BITMAP
01C0C0
03E180
073188
061F1C
060E1C
000018
000018
000070
3801E0
380180
380380
380380
300380
700380
700300
700700
600700
600700
E00700
E00F00
E01E00
E03E00
F0FE00
FFEE00
7F8E00
3E0C00
ENDCHAR
STARTCHAR uni1EF0
ENCODING 7920
SWIDTH 600 0
DWIDTH 22 0
BBX 24 39 2 -9
BITMAP
000002
000007
000007
000007
000006
00000E
1C00F8
1C00E0
1C00E0
1800C0
3800C0
3801C0
3801C0
3801C0
3001C0
700380
700380
700380
700380
600380
E00700
E00700
E00700
E00F00
E00E00
701E00
783C00
3FF800
3FF000
0FC000
000000
000000
000000
000000
000000
0E0000
1F0000
1F0000
0E0000
ENDCHAR
STARTCHAR uni1EF1
ENCODING 7921
SWIDTH 600 0
DWIDTH 22 0
BBX 22 33 2 -9
BITMAP
000008
00001C
00001C
000018
000018
000070
3801E0
380180
380380
380380
300380
700380
700300
700700
600700
600700
E00700
E00F00
E01E00
E03E00
F0FE00
FFEE00
7F8E00
3E0C00
000000
000000
000000
000000
000000
070000
0F0000
0F0000
0E0000
ENDCHAR
STARTCHAR Ygrave
ENCODING 7922
SWIDTH 600 0
DWIDTH 22 0
BBX 19 31 4 0
BITMAP
010000
078000
038000
01C000
00E000
007000
000000
E001E0
E001C0
700380
700700
700F00
300E00
381C00
383C00
383800
1C7000
1C7000
1CE000
0DC000
0FC000
0F8000
070000
070000
060000
0E0000
0E0000
0E0000
0C0000
1C0000
1C0000
ENDCHAR
STARTCHAR ygrave
ENCODING 7923
SWIDTH 600 0
DWIDTH 22 0
BBX 23 35 -2 -7
BITMAP
000400
001C00
001E00
000F00
000700
000380
000180
000100
000000
000000
07000E
07001C
030018
038038
038070
038070
0180E0
01C0C0
01C1C0
01C380
00C380
00C700
00E600
00EE00
006C00
007800
007800
007000
007000
00E000
01C000
83C000
7F8000
7F0000
FC0000
ENDCHAR
STARTCHAR uni1EF4
ENCODING 7924
SWIDTH 600 0
DWIDTH 22 0
BBX 19 33 4 -9
BITMAP
E001E0
E001C0
700380
700700
700F00
300E00
381C00
383C00
383800
1C7000
1C7000
1CE000
0DC000
0FC000
0F8000
070000
070000
060000
0E0000
0E0000
0E0000
0C0000
1C0000
1C0000
000000
000000
000000
000000
000000
380000
7C0000
7C0000
380000
ENDCHAR
STARTCHAR uni1EF5
ENCODING 7925
SWIDTH 600 0
DWIDTH 22 0
BBX 23 27 -2 -9
BITMAP
07000E
07001C
030018
038038
038070
038070
0180E0
01C0C0
01C1C0
01C380
00C380
00C700
00E600
00EE00
006C00
007800
007800
007000
007000
00E000
01C000
83C000
7F8000
7F0380
FC07C0
0007C0
000380
ENDCHAR
STARTCHAR uni1EF6
ENCODING 7926
SWIDTH 600 0
DWIDTH 22 0
BBX 19 31 4 0
BITMAP
01E000
01F000
007000
003000
006000
018000
000000
E001E0
E001C0
700380
700700
700F00
300E00
381C00
383C00
383800
1C7000
1C7000
1CE000
0DC000
0FC000
0F8000
070000
070000
060000
0E0000
0E0000
0E0000
0C0000
1C0000
1C0000
ENDCHAR
STARTCHAR uni1EF7
ENCODING 7927
SWIDTH 600 0
DWIDTH 22 0
BBX 23 34 -2 -7
BITMAP
000700
0007C0
0001C0
0000C0
000180
000600
000000
000000
000000
07000E
07001C
030018
038038
038070
038070
0180E0
01C0C0
01C1C0
01C380
00C380
00C700
00E600
00EE00
006C00
007800
007800
007000
007000
00E000
01C000
83C000
7F8000
7F0000
FC0000
ENDCHAR
STARTCHAR uni1EF8
ENCODING 7928
SWIDTH 600 0
DWIDTH 22 0
BBX 19 30 4 0
BITMAP
07C300
0FE700
1C7E00
183C00
000000
000000
E001E0
E001C0
700380
700700
700F00
300E00
381C00
383C00
383800
1C7000
1C7000
1CE000
0DC000
0FC000
0F8000
070000
070000
060000
0E0000
0E0000
0E0000
0C0000
1C0000
1C0000
ENDCHAR
STARTCHAR uni1EF9
ENCODING 7929
SWIDTH 600 0
DWIDTH 22 0
BBX 23 33 -2 -7
BITMAP
001E0C
003F18
007318
0061F0
0060E0
000000
000000
000000
07000E
07001C
030018
038038
038070
038070
0180E0
01C0C0
01C1C0
01C380
00C380
00C700
00E600
00EE00
006C00
007800
007800
007000
007000
00E000
01C000
83C000
7F8000
7F0000
FC0000
ENDCHAR
STARTCHAR uni2007
ENCODING 8199
SWIDTH 600 0
DWIDTH 22 0
BBX 1 1 0 0
BITMAP
00
ENDCHAR
STARTCHAR uni2010
ENCODING 8208
SWIDTH 600 0
DWIDTH 22 0
BBX 15 3 3 10
BITMAP
FFFE
FFFE
FFFE
ENDCHAR
STARTCHAR figuredash
ENCODING 8210
SWIDTH 600 0
DWIDTH 22 0
BBX 17 3 2 8
BITMAP
7FFF80
FFFF00
FFFF00
ENDCHAR
STARTCHAR endash
ENCODING 8211
SWIDTH 600 0
DWIDTH 22 0
BBX 17 3 2 8
BITMAP
7FFF80
FFFF00
FFFF00
ENDCHAR
STARTCHAR emdash
ENCODING 8212
SWIDTH 600 0
DWIDTH 22 0
BBX 22 3 -1 8
BITMAP
7FFFFC
7FFFFC
FFFFFC
ENDCHAR
STARTCHAR uni2015
ENCODING 8213
SWIDTH 600 0
DWIDTH 22 0
BBX 22 3 -1 8
BITMAP
7FFFFC
7FFFFC
FFFFFC
ENDCHAR
STARTCHAR uni2016
ENCODING 8214
SWIDTH 600 0
DWIDTH 22 0
BBX 10 36 6 -9
BITMAP
C1C0
C1C0
C1C0
C1C0
C1C0
C1C0
C1C0
C1C0
C1C0
C1C0
C1C0
C1C0
C1C0
C1C0
C1C0
C1C0
C1C0
C1C0
C1C0
C1C0
C1C0
C1C0
C1C0
C1C0
C1C0
C1C0
C1C0
C1C0
C1C0
C1C0
C1C0
C1C0
C1C0
C1C0
C1C0
C1C0
ENDCHAR
STARTCHAR underscoredbl
ENCODING 8215
SWIDTH 600 0
DWIDTH 22 0
BBX 19 7 -2 -9
BITMAP
7FFFE0
7FFFE0
7FFFC0
000000
FFFFC0
FFFFC0
FFFF80
ENDCHAR
STARTCHAR quoteleft
ENCODING 8216
SWIDTH 600 0
DWIDTH 22 0
BBX 8 12 9 14
BITMAP
01
07
1E
38
70
70
60
F8
FC
FC
FC
78
ENDCHAR
STARTCHAR quoteright
ENCODING 8217
SWIDTH 600 0
DWIDTH 22 0
BBX 8 12 8 13
BITMAP
0E
1F
3F
3F
1F
07
06
0E
1C
78
F0
C0
ENDCHAR
STARTCHAR quotesinglbase
ENCODING 8218
SWIDTH 600 0
DWIDTH 22 0
BBX 9 12 5 -8
BITMAP
0E00
1F00
1F80
1F80
1F00
0300
0700
0E00
1E00
3C00
F000
4000
ENDCHAR
STARTCHAR quotereversed
ENCODING 8219
SWIDTH 600 0
DWIDTH 22 0
BBX 7 11 8 14
BITMAP
3C
7E
7E
FC
F8
E0
60
60
30
1C
0C
ENDCHAR
STARTCHAR quotedblleft
ENCODING 8220
SWIDTH 600 0
DWIDTH 22 0
BBX 17 12 5 14
BITMAP
030100
0F0700
1E1E80
383C00
703800
707000
E06000
F8F800
FCFC00
FCFC00
F87C00
707800
ENDCHAR
STARTCHAR quotedblright
ENCODING 8221
SWIDTH 600 0
DWIDTH 22 0
BBX 16 12 4 13
BITMAP
0E0E
1F1F
3F3F
3F1F
1F1F
0707
0E07
0E0E
1C1C
7878
F0F0
C0C0
ENDCHAR
STARTCHAR quotedblbase
ENCODING 8222
SWIDTH 600 0
DWIDTH 22 0
BBX 16 12 4 -8
BITMAP
0E0E
1F1F
3F3F
3F1F
1F1F
0707
0E07
0E0E
1C1C
7878
F0F0
C0C0
ENDCHAR
STARTCHAR dagger
ENCODING 8224
SWIDTH 600 0
DWIDTH 22 0
BBX 12 30 6 -4
BITMAP
0380
0380
0300
0300
0300
0300
7FF0
FFF0
FFF0
0600
0600
0600
0C00
0C00
0C00
0C00
0C00
1C00
1800
1800
1800
3800
3800
3000
3000
3000
7000
7000
6000
6000
ENDCHAR
STARTCHAR daggerdbl
ENCODING 8225
SWIDTH 600 0
DWIDTH 22 0
BBX 16 30 3 -3
BITMAP
0070
0070
0060
0060
0060
0060
0FFF
1FFE
1FFE
00C0
00C0
00C0
01C0
0180
0180
0180
0380
0300
0300
0300
0300
7FF8
FFF0
FFF0
0600
0600
0600
0E00
0E00
0C00
ENDCHAR
STARTCHAR bullet
ENCODING 8226
SWIDTH 600 0
DWIDTH 22 0
BBX 11 10 5 4
BITMAP
0F80
3FC0
7FE0
7FE0
FFE0
FFE0
FFC0
FFC0
7F80
3E00
ENDCHAR
STARTCHAR ellipsis
ENCODING 8230
SWIDTH 600 0
DWIDTH 22 0
BBX 19 5 0 0
BITMAP
70E1C0
F1F3E0
F1F3E0
F1E3C0
E1C380
ENDCHAR
STARTCHAR uni202F
ENCODING 8239
SWIDTH 600 0
DWIDTH 22 0
BBX 1 1 0 0
BITMAP
00
ENDCHAR
STARTCHAR perthousand
ENCODING 8240
SWIDTH 600 0
DWIDTH 22 0
BBX 22 23 0 0
BITMAP
03C000
066000
0C3000
183000
183000
182008
186038
08C1FC
0F87C0
003E00
01F000
078000
1C0000
000000
1E0780
3318C0
619040
C1B060
C1B040
C130C0
C330C0
663180
3C1F00
ENDCHAR
STARTCHAR uni2032
ENCODING 8242
SWIDTH 600 0
DWIDTH 22 0
BBX 6 9 10 16
BITMAP
1C
18
38
38
30
70
60
60
C0
ENDCHAR
STARTCHAR uni2033
ENCODING 8243
SWIDTH 600 0
DWIDTH 22 0
BBX 12 9 7 16
BITMAP
1C70
3860
38E0
30E0
30C0
70C0
6180
6180
C180
ENDCHAR
STARTCHAR uni2035
ENCODING 8245
SWIDTH 600 0
DWIDTH 22 0
BBX 6 9 10 16
BITMAP
E0
60
70
70
30
30
18
18
0C
ENDCHAR
STARTCHAR guilsinglleft
ENCODING 8249
SWIDTH 600 0
DWIDTH 22 0
BBX 8 14 7 2
BITMAP
02
07
0E
1C
38
F0
E0
E0
E0
70
70
38
18
08
ENDCHAR
STARTCHAR guilsinglright
ENCODING 8250
SWIDTH 600 0
DWIDTH 22 0
BBX 9 14 5 2
BITMAP
0800
1800
0C00
0E00
0700
0700
0380
0700
0F00
1E00
1C00
3000
6000
C000
ENDCHAR
STARTCHAR exclamdbl
ENCODING 8252
SWIDTH 600 0
DWIDTH 22 0
BBX 17 24 2 0
BITMAP
070380
070380
070380
070380
060380
0E0300
0E0700
0E0700
0C0700
0C0600
0C0600
0C0600
1C0E00
180C00
180C00
180C00
000000
000000
000000
703C00
F83C00
F87C00
F87C00
703800
ENDCHAR
STARTCHAR uni203D
ENCODING 8253
SWIDTH 600 0
DWIDTH 22 0
BBX 13 24 6 0
BITMAP
0FC0
3FE0
7FF0
F078
C038
0038
0E30
0C70
0C60
0DC0
0F80
1F00
1E00
1C00
1800
1800
0000
0000
0000
7800
7800
F800
F800
7000
ENDCHAR
STARTCHAR uni203E
ENCODING 8254
SWIDTH 600 0
DWIDTH 22 0
BBX 17 2 4 21
BITMAP
7FFF80
FFFF80
ENDCHAR
STARTCHAR uni203F
ENCODING 8255
SWIDTH 600 0
DWIDTH 22 0
BBX 31 7 -8 -8
BITMAP
40000002
F000000E
3C000078
1FC007E0
07FFFF80
01FFFE00
003FF000
ENDCHAR
STARTCHAR fraction
ENCODING 8260
SWIDTH 600 0
DWIDTH 22 0
BBX 23 21 -1 1
BITMAP
000004
00000E
00001C
000038
000070
0000C0
000180
000300
000000
000000
000000
000000
000000
018000
030000
060000
1C0000
380000
700000
E00000
400000
ENDCHAR
STARTCHAR uni2047
ENCODING 8263
SWIDTH 600 0
DWIDTH 22 0
BBX 21 24 1 0
BITMAP
0F83E0
1FC7F0
3FEFF8
31EC38
20E838
00E038
00E038
00C030
018070
0380E0
0701C0
0E0380
1C0700
180600
380E00
300E00
000000
000000
000000
701C00
F83E00
F83E00
F83E00
701C00
ENDCHAR
STARTCHAR uni2048
ENCODING 8264
SWIDTH 600 0
DWIDTH 22 0
BBX 19 24 1 0
BITMAP
0F80E0
1FC0E0
3FE0C0
31E1C0
20E1C0
00E1C0
00E1C0
00C180
018180
038380
070380
0E0300
1C0300
180300
380300
300600
000000
000000
000000
700E00
F81F00
F81F00
F81E00
701C00
ENDCHAR
STARTCHAR uni2049
ENCODING 8265
SWIDTH 600 0
DWIDTH 22 0
BBX 20 24 2 0
BITMAP
0707C0
070FE0
0E1FF0
0E1870
0E1070
0E0070
0C0070
0C0060
1C00E0
1C01C0
1C0380
180700
180E00
180C00
181C00
301C00
000000
000000
000000
703800
F87C00
F87C00
F07C00
E03800
ENDCHAR
STARTCHAR zero.sups
ENCODING 8304
SWIDTH 600 0
DWIDTH 22 0
BBX 11 15 7 14
BITMAP
0F00
1F80
38C0
70C0
60E0
C060
C060
C0E0
C0C0
C0C0
C1C0
C180
E380
7F00
3C00
ENDCHAR
STARTCHAR i.sups
ENCODING 8305
SWIDTH 600 0
DWIDTH 22 0
BBX 9 17 8 14
BITMAP
0E00
0E00
0E00
0000
0000
FC00
FC00
0C00
1800
1800
1800
1800
1800
3000
3900
1F80
0F00
ENDCHAR
STARTCHAR four.sups
ENCODING 8308
SWIDTH 600 0
DWIDTH 22 0
BBX 11 14 7 15
BITMAP
0300
0300
0600
0C00
1C00
1980
3180
6180
6180
FFE0
FFC0
0300
0300
0600
ENDCHAR
STARTCHAR five.sups
ENCODING 8309
SWIDTH 600 0
DWIDTH 22 0
BBX 11 15 7 14
BITMAP
1FE0
1FE0
1800
1800
3000
3F00
3F80
21C0
01C0
00C0
00C0
8180
E380
7F00
3E00
ENDCHAR
STARTCHAR six.sups
ENCODING 8310
SWIDTH 600 0
DWIDTH 22 0
BBX 11 15 7 14
BITMAP
07C0
0FE0
1840
3000
6000
6F00
7F80
F1C0
E0C0
C0C0
E0C0
6180
7380
3F00
1E00
ENDCHAR
STARTCHAR seven.sups
ENCODING 8311
SWIDTH 600 0
DWIDTH 22 0
BBX 10 14 9 15
BITMAP
FFC0
FF80
0300
0600
0600
0C00
1800
1800
3000
3000
6000
6000
6000
E000
ENDCHAR
STARTCHAR eight.sups
ENCODING 8312
SWIDTH 600 0
DWIDTH 22 0
BBX 10 15 7 14
BITMAP
0F80
1FC0
38C0
30C0
30C0
30C0
1980
1F00
7380
6180
C180
C1C0
E380
7F00
3E00
ENDCHAR
STARTCHAR nine.sups
ENCODING 8313
SWIDTH 600 0
DWIDTH 22 0
BBX 10 15 7 14
BITMAP
0F00
3F80
31C0
60C0
60C0
60C0
71C0
3FC0
1EC0
00C0
0180
0180
4700
FE00
7C00
ENDCHAR
STARTCHAR parenleft.sups
ENCODING 8317
SWIDTH 600 0
DWIDTH 22 0
BBX 7 20 10 12
BITMAP
04
0E
0C
18
30
30
60
60
60
E0
C0
C0
C0
C0
C0
C0
60
60
60
60
ENDCHAR
STARTCHAR parenright.sups
ENCODING 8318
SWIDTH 600 0
DWIDTH 22 0
BBX 7 20 8 12
BITMAP
08
0C
0C
0C
0C
06
06
06
06
0E
0C
0C
0C
1C
18
38
30
60
E0
C0
ENDCHAR
STARTCHAR n.sups
ENCODING 8319
SWIDTH 600 0
DWIDTH 22 0
BBX 11 12 7 14
BITMAP
33C0
3FE0
3860
7060
6060
6060
6060
6060
E0E0
C0C0
C0C0
C0C0
ENDCHAR
STARTCHAR zero.subs
ENCODING 8320
SWIDTH 600 0
DWIDTH 22 0
BBX 11 15 4 -7
BITMAP
0F00
1FC0
38C0
70E0
6060
E060
C060
C060
C0C0
C0C0
C0C0
C180
E380
7F00
3C00
ENDCHAR
STARTCHAR one.subs
ENCODING 8321
SWIDTH 600 0
DWIDTH 22 0
BBX 11 14 3 -6
BITMAP
01C0
0F80
1F80
0180
0180
0180
0300
0300
0300
0300
0300
0600
7FE0
FFE0
ENDCHAR
STARTCHAR two.subs
ENCODING 8322
SWIDTH 600 0
DWIDTH 22 0
BBX 10 14 4 -6
BITMAP
0F80
1FC0
30C0
20C0
00C0
00C0
01C0
0180
0700
0E00
1800
7000
FF80
FF80
ENDCHAR
STARTCHAR three.subs
ENCODING 8323
SWIDTH 600 0
DWIDTH 22 0
BBX 10 15 4 -7
BITMAP
0F80
3FC0
11C0
00C0
00C0
00C0
0180
0E00
0380
0180
01C0
C1C0
E380
7F00
3E00
ENDCHAR
STARTCHAR four.subs
ENCODING 8324
SWIDTH 600 0
DWIDTH 22 0
BBX 11 14 4 -6
BITMAP
0100
0300
0600
0E00
0C00
1980
3180
7180
6180
FFE0
FFC0
0300
0300
0300
ENDCHAR
STARTCHAR five.subs
ENCODING 8325
SWIDTH 600 0
DWIDTH 22 0
BBX 11 15 4 -7
BITMAP
0FE0
1FE0
1800
1800
3000
3F00
3F80
21C0
00C0
00C0
00C0
C1C0
E380
7F00
3E00
ENDCHAR
STARTCHAR six.subs
ENCODING 8326
SWIDTH 600 0
DWIDTH 22 0
BBX 11 15 4 -7
BITMAP
07C0
0FE0
1840
3000
6000
6F00
7F80
71C0
60C0
E0C0
60C0
61C0
7180
3F00
1E00
ENDCHAR
STARTCHAR seven.subs
ENCODING 8327
SWIDTH 600 0
DWIDTH 22 0
BBX 10 14 6 -6
BITMAP
FFC0
FF80
0380
0300
0600
0C00
1800
1800
3000
3000
7000
6000
6000
E000
ENDCHAR
STARTCHAR eight.subs
ENCODING 8328
SWIDTH 600 0
DWIDTH 22 0
BBX 11 15 4 -7
BITMAP
0F80
1FC0
38C0
3060
3060
30C0
1D80
1F00
3380
6180
C0C0
C1C0
E380
7F80
3E00
ENDCHAR
STARTCHAR nine.subs
ENCODING 8329
SWIDTH 600 0
DWIDTH 22 0
BBX 11 15 4 -7
BITMAP
0F00
1F80
31C0
60C0
60E0
60E0
71E0
3FC0
1EC0
00C0
01C0
0180
4700
FE00
7C00
ENDCHAR
STARTCHAR parenleft.subs
ENCODING 8333
SWIDTH 600 0
DWIDTH 22 0
BBX 7 20 7 -9
BITMAP
06
0C
0C
18
38
30
70
60
60
60
E0
C0
C0
C0
C0
E0
60
60
60
20
ENDCHAR
STARTCHAR parenright.subs
ENCODING 8334
SWIDTH 600 0
DWIDTH 22 0
BBX 7 20 5 -9
BITMAP
0C
0C
0C
0C
06
06
06
06
06
06
0E
0C
0C
1C
18
18
30
60
60
C0
ENDCHAR
STARTCHAR uni0259.sups
ENCODING 8340
SWIDTH 600 0
DWIDTH 22 0
BBX 11 12 7 14
BITMAP
1F00
7FC0
61C0
00E0
0060
0060
FFE0
C0C0
C0C0
E380
7F00
3E00
ENDCHAR
STARTCHAR colonmonetary
ENCODING 8353
SWIDTH 600 0
DWIDTH 22 0
BBX 18 31 3 -4
BITMAP
000980
001900
001100
001300
007E00
01FF00
07FF80
0FA7C0
1F65C0
3C4C80
384800
78C800
709800
709000
E19000
E13000
E12000
E22000
E26000
E24000
E4C000
E48400
748E00
7DBC00
3FF800
1FF000
1FC000
130000
120000
320000
260000
ENDCHAR
STARTCHAR franc
ENCODING 8355
SWIDTH 600 0
DWIDTH 22 0
BBX 20 23 1 0
BITMAP
03FFF0
03FFF0
03FFF0
038000
038000
070000
070000
070000
070000
07FF80
0FFF00
0FFF00
0E0000
0E0000
0C0000
1C0000
FFF000
FFF000
1C0000
180000
380000
380000
380000
ENDCHAR
STARTCHAR lira
ENCODING 8356
SWIDTH 600 0
DWIDTH 22 0
BBX 19 23 1 0
BITMAP
003F00
00FF80
01FFC0
01E1E0
038060
038000
030000
030000
030000
1FFF00
3FFF00
038000
038000
3FFE00
3FFE00
038000
030000
070000
0E0000
180000
7FFF00
FFFF00
FFFF00
ENDCHAR
STARTCHAR uni20A6
ENCODING 8358
SWIDTH 600 0
DWIDTH 22 0
BBX 19 23 1 0
BITMAP
0380C0
0380C0
0380C0
0780C0
06C1C0
06C180
06C180
04C180
0CC180
0CC180
7FFFE0
0C6300
0C6300
7FFFE0
982300
183600
183600
383600
303600
303600
301400
301C00
701C00
ENDCHAR
STARTCHAR peseta
ENCODING 8359
SWIDTH 600 0
DWIDTH 22 0
BBX 18 23 3 0
BITMAP
0FF800
0FFE00
0C0F00
1C0700
1C0700
1C0300
FFFFC0
FFFFC0
180700
380600
380E00
303C00
3FF800
3FC000
700000
700000
700000
600000
600000
E00000
E00000
C00000
C00000
ENDCHAR
STARTCHAR uni20A9
ENCODING 8361
SWIDTH 600 0
DWIDTH 22 0
BBX 20 23 2 0
BITMAP
1C0070
1C3060
1870E0
1870E0
1850C0
1850C0
18F1C0
38B180
38B180
39B180
393300
FFFFC0
333300
323600
323600
362600
362C00
342C00
3C2C00
3C6800
387800
387800
787800
ENDCHAR
STARTCHAR dong
ENCODING 8363
SWIDTH 600 0
DWIDTH 22 0
BBX 19 26 2 0
BITMAP
000180
000380
000380
007FE0
00FFE0
000300
000300
000700
03F700
07FE00
0FFE00
1E1E00
380600
380E00
300E00
300C00
700C00
301C00
387C00
3FFC00
1FF800
0F9800
000000
000000
FFFC00
FFFC00
ENDCHAR
STARTCHAR Euro
ENCODING 8364
SWIDTH 600 0
DWIDTH 22 0
BBX 21 23 1 0
BITMAP
000F80
007FC0
00FFE0
01F070
03C038
078020
070000
0E0000
0E0000
7FFF80
7FFF00
1C0000
1C0000
FFFC00
FFFC00
1C0000
1C0000
1C0080
1E0180
0F07C0
0FFF00
07FE00
01F800
ENDCHAR
STARTCHAR uni20AE
ENCODING 8366
SWIDTH 600 0
DWIDTH 22 0
BBX 18 23 3 0
BITMAP
3FFFC0
3FFFC0
3FFFC0
00E000
00E000
00E000
00C200
01CE00
01F800
01E000
07C000
3D8C00
73BE00
03E000
078000
1F8000
F30000
470000
070000
070000
070000
060000
0E0000
ENDCHAR
STARTCHAR uni20B1
ENCODING 8369
SWIDTH 600 0
DWIDTH 22 0
BBX 20 23 2 0
BITMAP
07FC00
07FF00
060780
0E0380
7FFFF0
0C0380
0C0380
7FFFE0
9C0700
1C0700
181E00
1FFC00
3FF000
380000
380000
300000
300000
700000
700000
700000
700000
600000
E00000
ENDCHAR
STARTCHAR uni20B2
ENCODING 8370
SWIDTH 600 0
DWIDTH 22 0
BBX 17 31 3 -4
BITMAP
001800
001800
001800
001800
00FC00
03FE00
0FFF00
1F8780
1E0180
3C0100
780000
700000
F00000
E00000
E00000
E07F00
C07F00
C07E00
C00600
C00600
E00E00
E00E00
F00C00
783C00
7FFC00
3FF800
0FC000
030000
070000
060000
060000
ENDCHAR
STARTCHAR uni20B4
ENCODING 8372
SWIDTH 600 0
DWIDTH 22 0
BBX 18 23 2 0
BITMAP
00FC00
01FE00
03FF00
070700
060380
000380
000300
000700
000E00
7FFFC0
7FFFC0
01F000
078000
7FFF80
FFFF80
380000
380000
300000
300400
381E00
3FFC00
1FF000
07C000
ENDCHAR
STARTCHAR uni20B5
ENCODING 8373
SWIDTH 600 0
DWIDTH 22 0
BBX 18 30 3 -4
BITMAP
000C00
001800
001800
007E00
01FF00
07FF80
0F93C0
1E3180
1C3100
383000
783000
706000
706000
606000
E06000
E04000
E0C000
E0C000
E0C000
E0C000
718400
718E00
7D9E00
3FFC00
1FF000
0FC000
030000
030000
030000
030000
ENDCHAR
STARTCHAR uni20B8
ENCODING 8376
SWIDTH 600 0
DWIDTH 22 0
BBX 17 23 4 0
BITMAP
7FFF80
7FFF80
000000
000000
FFFF00
FFFF00
018000
038000
038000
038000
038000
030000
070000
070000
070000
070000
060000
0E0000
0E0000
0E0000
0E0000
0C0000
1C0000
ENDCHAR
STARTCHAR uni20B9
ENCODING 8377
SWIDTH 600 0
DWIDTH 22 0
BBX 18 23 3 0
BITMAP
1FFFC0
1FFFC0
1FF800
003C00
001C00
3FFF80
3FFF80
001C00
001C00
003800
00F800
7FF000
7FC000
FF0000
0E0000
0F0000
070000
038000
038000
01C000
00E000
00E000
007000
ENDCHAR
STARTCHAR uni20BA
ENCODING 8378
SWIDTH 600 0
DWIDTH 22 0
BBX 17 23 2 0
BITMAP
038000
038000
038000
030600
071C00
07F000
07C000
1F0400
761C00
CE7000
0FC000
1F0000
7E0380
CC0380
1C0380
1C0380
1C0700
1C0700
181E00
387C00
3FF800
3FE000
3F0000
ENDCHAR
STARTCHAR uni20BD
ENCODING 8381
SWIDTH 600 0
DWIDTH 22 0
BBX 21 23 1 0
BITMAP
00FF80
00FFE0
01FFF0
01C0F0
01C038
01C038
01C038
038030
038070
0380E0
0381E0
7FFF80
7FFE00
870000
070000
FFFF80
FFFF80
0E0000
0E0000
0E0000
0E0000
0C0000
1C0000
ENDCHAR
STARTCHAR uni2105
ENCODING 8453
SWIDTH 600 0
DWIDTH 22 0
BBX 23 23 -1 0
BITMAP
078000
1FC006
38600E
30001C
600030
600060
6000C0
600180
710300
3F8000
1E0000
0003E0
0007F0
000E30
019C38
031818
063818
1C3038
383030
703830
E018E0
401FC0
000F80
ENDCHAR
STARTCHAR uni2113
ENCODING 8467
SWIDTH 600 0
DWIDTH 22 0
BBX 15 26 4 0
BITMAP
0078
00FC
01FE
03CE
0386
0706
070E
070C
070C
0E18
0E38
0E30
0E60
0CE0
1DC0
1F00
1E00
1C00
7800
F800
B800
3820
3C30
1FF0
1FE0
0780
ENDCHAR
STARTCHAR uni2116
ENCODING 8470
SWIDTH 600 0
DWIDTH 22 0
BBX 25 23 -2 0
BITMAP
07018000
07838E00
07879F00
07873380
0D866180
0D866180
0D8E6180
0D8E6180
0D8EC300
1D8CE300
1D8C6700
18CC7E00
18DC3C00
18DC0000
38D80000
38D8FC00
38D8FC00
30D80000
30F80000
70F00000
F0F00000
E0F00000
C0700000
ENDCHAR
STARTCHAR uni2117
ENCODING 8471
SWIDTH 600 0
DWIDTH 22 0
BBX 20 24 1 0
BITMAP
007E00
018380
0600C0
0C0060
180060
10FC20
31FE30
618730
618330
418330
C18730
C18630
C30E30
C3FC20
C3F820
C30060
C30040
C700C0
C60080
400180
600300
300600
181800
07E000
ENDCHAR
STARTCHAR uni2120
ENCODING 8480
SWIDTH 600 0
DWIDTH 22 0
BBX 21 12 2 13
BITMAP
1E1838
3F1838
633C70
603C70
303CF0
383CF0
1C25B0
066520
866760
C66660
FE6660
3C6060
ENDCHAR
STARTCHAR trademark
ENCODING 8482
SWIDTH 600 0
DWIDTH 22 0
BBX 20 12 3 13
BITMAP
FFB830
FF3870
183870
1828F0
106DB0
306DA0
306F60
306F60
306E60
30C660
60C040
60C0C0
ENDCHAR
STARTCHAR uni2126
ENCODING 8486
SWIDTH 600 0
DWIDTH 22 0
BBX 22 24 -1 0
BITMAP
001F80
007FE0
01FFF0
03E0F8
078078
070038
0F0038
0E001C
1C001C
1C001C
1C001C
1C0018
180038
180038
180030
180070
180060
1C00E0
0C01C0
0C0380
060700
FF0FF0
FF0FF0
FE0FE0
ENDCHAR
STARTCHAR estimated
ENCODING 8494
SWIDTH 600 0
DWIDTH 22 0
BBX 20 24 1 0
BITMAP
01F800
060C00
0C0300
180180
380180
7801C0
7801C0
7801E0
F801E0
F801E0
F801E0
F801F0
FFFFF0
F80000
F80000
F80000
780000
780000
780000
3800C0
180180
080300
060C00
01F000
ENDCHAR
STARTCHAR uni2150
ENCODING 8528
SWIDTH 600 0
DWIDTH 22 0
BBX 23 23 -1 0
BITMAP
030000
1F0004
1F000E
03001C
070038
060070
0600C0
060180
060300
0E0000
0C0000
000000
0007F8
000FF8
018030
030060
0600C0
1C01C0
380180
700380
E00300
400300
000700
ENDCHAR
STARTCHAR uni2151
ENCODING 8529
SWIDTH 600 0
DWIDTH 22 0
BBX 23 23 -1 0
BITMAP
030000
1F0004
1F000E
03001C
070038
060070
0600C0
060180
060300
0E0000
0C0000
0003C0
0007E0
000C70
018C30
031830
060C30
1C0C70
3807B0
700030
E010E0
403FC0
000F00
ENDCHAR
STARTCHAR uni2152
ENCODING 8530
SWIDTH 600 0
DWIDTH 22 0
BBX 20 23 2 0
BITMAP
070000
1F0000
0F0000
030000
070000
060020
0600E0
0607F0
061F00
00F800
07C000
1E0000
700000
000000
1C0000
381E00
F86300
184100
18C180
38C300
30C300
30C600
307C00
ENDCHAR
STARTCHAR onethird
ENCODING 8531
SWIDTH 600 0
DWIDTH 22 0
BBX 23 23 -1 0
BITMAP
030000
1F0004
1F000E
03001C
070038
060070
0600C0
060180
060300
0E0000
0C0000
0001E0
0007F0
000630
018030
030030
060060
1C01C0
380260
701030
E01870
400FE0
0007C0
ENDCHAR
STARTCHAR twothirds
ENCODING 8532
SWIDTH 600 0
DWIDTH 22 0
BBX 23 24 -1 0
BITMAP
0F0000
1F8000
31C004
20C00E
01801C
018038
030070
0600C0
1C0180
380300
7FC000
7F8000
8001E0
0007F0
000630
018030
030030
060060
1C01C0
380260
701030
E01870
400FE0
0007C0
ENDCHAR
STARTCHAR uni2155
ENCODING 8533
SWIDTH 600 0
DWIDTH 22 0
BBX 23 24 -1 -1
BITMAP
030000
1F0004
1F000E
03001C
070038
060070
0600C0
060180
060300
0E0000
0C0000
000000
0007F8
0007F0
018600
030600
060FE0
1C0460
380030
700030
E01070
401860
001FE0
000780
ENDCHAR
STARTCHAR uni2156
ENCODING 8534
SWIDTH 600 0
DWIDTH 22 0
BBX 23 25 -1 -1
BITMAP
0F0000
1F8000
31C004
20C00E
01801C
018038
030070
0600C0
1C0180
380300
7FC000
7F8000
800000
0007F8
0007F0
018600
030600
060FE0
1C0460
380030
700030
E01070
401860
001FE0
000780
ENDCHAR
STARTCHAR uni2157
ENCODING 8535
SWIDTH 600 0
DWIDTH 22 0
BBX 23 25 -1 -1
BITMAP
078000
1FC000
30C004
00C00E
00C01C
018038
0E0070
0180C0
41C180
618300
3F8000
1F0000
000000
0007F8
0007F0
018600
030600
060FE0
1C0460
380030
700030
E01070
401860
001FE0
000780
ENDCHAR
STARTCHAR uni2158
ENCODING 8536
SWIDTH 600 0
DWIDTH 22 0
BBX 23 24 -1 -1
BITMAP
020000
070004
06000E
0C001C
198038
318070
6180C0
7FC180
830300
030000
030000
000000
0007F8
0007F0
018600
030600
060FE0
1C0460
380030
700030
E01070
401860
001FE0
000780
ENDCHAR
STARTCHAR uni2159
ENCODING 8537
SWIDTH 600 0
DWIDTH 22 0
BBX 23 23 -1 0
BITMAP
030000
1F0004
1F000E
03001C
070038
060070
0600C0
060180
060300
0E0000
0C0000
0001F0
0003F8
000710
018E00
030C00
0619E0
1C1E30
381830
701830
E00C70
400FE0
0007C0
ENDCHAR
STARTCHAR uni215A
ENCODING 8538
SWIDTH 600 0
DWIDTH 22 0
BBX 23 23 -1 0
BITMAP
1FC000
1FC004
18000E
10001C
3F0038
318070
00C0C0
00C180
41C300
618000
7F8000
1E01F0
0003F8
000710
018E00
030C00
0619E0
1C1E30
381830
701830
E00C70
400FE0
0007C0
ENDCHAR
STARTCHAR oneeighth
ENCODING 8539
SWIDTH 600 0
DWIDTH 22 0
BBX 23 23 -1 0
BITMAP
030000
1F0004
1F000E
03001C
070038
060070
0600C0
060180
060300
0E0000
0C0000
0003E0
0007F0
000630
018C30
030630
060760
1C03C0
380C60
701830
E01870
401FE0
000FC0
ENDCHAR
STARTCHAR threeeighths
ENCODING 8540
SWIDTH 600 0
DWIDTH 22 0
BBX 23 24 -1 0
BITMAP
078000
1FC000
30C004
00C00E
00C01C
018038
0E0070
0180C0
41C180
618300
3F8000
1F0000
0003E0
0007F0
000630
018C30
030630
060760
1C03C0
380C60
701830
E01870
401FE0
000FC0
ENDCHAR
STARTCHAR fiveeighths
ENCODING 8541
SWIDTH 600 0
DWIDTH 22 0
BBX 23 23 -1 0
BITMAP
1FC000
1FC004
18000E
10001C
3F0038
318070
00C0C0
00C180
41C300
618000
7F8000
1E03E0
0007F0
000630
018C30
030630
060760
1C03C0
380C60
701830
E01870
401FE0
000FC0
ENDCHAR
STARTCHAR seveneighths
ENCODING 8542
SWIDTH 600 0
DWIDTH 22 0
BBX 23 23 -1 0
BITMAP
1FE000
3FE004
00C00E
01801C
030038
060070
0600C0
0C0180
0C0300
1C0000
180000
0003E0
0007F0
000630
018C30
030630
060760
1C03C0
380C60
701830
E01870
401FE0
000FC0
ENDCHAR
STARTCHAR uni2189
ENCODING 8585
SWIDTH 600 0
DWIDTH 22 0
BBX 23 24 -1 0
BITMAP
078000
1FC000
38E004
30600E
60601C
606038
606070
60E0C0
60C180
71C300
3F8000
1E0000
0001E0
0007F0
000630
018030
030030
060060
1C01C0
380260
701030
E01870
400FE0
0007C0
ENDCHAR
STARTCHAR uni2190
ENCODING 8592
SWIDTH 600 0
DWIDTH 22 0
BBX 19 19 1 0
BITMAP
00C000
01E000
038000
070000
0E0000
1C0000
380000
700000
7FFFE0
FFFFE0
FFFFE0
700000
380000
1C0000
0E0000
070000
038000
01C000
00E000
ENDCHAR
STARTCHAR arrowup
ENCODING 8593
SWIDTH 600 0
DWIDTH 22 0
BBX 19 20 1 -1
BITMAP
004000
00E000
01F000
03F800
076C00
0E6E00
1C6700
386380
7061C0
6060E0
E06060
006000
006000
006000
006000
006000
006000
006000
006000
006000
ENDCHAR
STARTCHAR uni2192
ENCODING 8594
SWIDTH 600 0
DWIDTH 22 0
BBX 20 19 1 0
BITMAP
006000
007000
003800
001C00
000E00
000700
000380
0000C0
FFFFE0
FFFFF0
FFFFE0
0000C0
000380
000700
000E00
001C00
003800
007000
006000
ENDCHAR
STARTCHAR arrowdown
ENCODING 8595
SWIDTH 600 0
DWIDTH 22 0
BBX 19 20 1 -1
BITMAP
006000
006000
006000
006000
006000
006000
006000
006000
006000
606060
E060E0
3061C0
386380
1C6700
0E6E00
076C00
03F800
01F000
00E000
004000
ENDCHAR
STARTCHAR arrowboth
ENCODING 8596
SWIDTH 600 0
DWIDTH 22 0
BBX 22 17 0 1
BITMAP
040100
060300
0F0180
0C00C0
1800E0
300070
600038
FFFFF8
FFFFFC
FFFFF8
600038
300070
1800E0
0C00C0
0E0180
070300
040100
ENDCHAR
STARTCHAR arrowupdn
ENCODING 8597
SWIDTH 600 0
DWIDTH 22 0
BBX 16 22 3 -2
BITMAP
0100
03C0
07E0
0DF0
39B8
719C
E187
4182
0180
0180
0180
0180
0180
0180
4182
E186
719D
39B8
0DF0
07E0
03C0
0100
ENDCHAR
STARTCHAR uni2196
ENCODING 8598
SWIDTH 600 0
DWIDTH 22 0
BBX 15 15 3 1
BITMAP
FFFC
7FFC
7800
7C00
5E00
6F00
6780
63C0
61E0
60F0
6078
603C
601E
600E
0004
ENDCHAR
STARTCHAR uni2197
ENCODING 8599
SWIDTH 600 0
DWIDTH 22 0
BBX 15 15 3 1
BITMAP
7FFE
7FFE
001E
003E
0076
00E6
01C6
0386
0706
0E06
1C06
3806
7006
E006
4000
ENDCHAR
STARTCHAR uni2198
ENCODING 8600
SWIDTH 600 0
DWIDTH 22 0
BBX 15 15 3 2
BITMAP
4000
E006
7006
3806
1C06
0E06
0706
0386
01C6
00E6
0076
003E
001E
7FFE
7FFE
ENDCHAR
STARTCHAR uni2199
ENCODING 8601
SWIDTH 600 0
DWIDTH 22 0
BBX 15 15 4 2
BITMAP
0008
C00C
C01E
C038
C070
C0E0
C1C0
C380
C700
CE00
DC00
F800
F000
FFF8
FFFC
ENDCHAR
STARTCHAR arrowupdnbse
ENCODING 8616
SWIDTH 600 0
DWIDTH 22 0
BBX 17 25 2 -5
BITMAP
00C000
01E000
03F000
0EF800
1CDC00
38C700
70C380
20C200
00C000
00C000
00C000
00C000
00C000
00C000
20C100
70C300
38CE80
1CDC00
0EF800
03F000
01E000
00C000
FFFF80
FFFF80
FFFF80
ENDCHAR
STARTCHAR uni21D0
ENCODING 8656
SWIDTH 600 0
DWIDTH 22 0
BBX 19 18 1 0
BITMAP
00C000
01E000
038000
070000
0E0000
1FFFE0
3FFFE0
700000
E00000
E00000
700000
3FFFE0
1FFFE0
0E0000
070000
038000
01E000
00C000
ENDCHAR
STARTCHAR uni21D1
ENCODING 8657
SWIDTH 600 0
DWIDTH 22 0
BBX 19 20 1 -1
BITMAP
004000
00E000
01F000
039800
071C00
0E0E00
1E0F00
3A0F80
720DC0
E20CE0
620C60
020C00
020C00
020C00
020C00
020C00
020C00
020C00
020C00
020C00
ENDCHAR
STARTCHAR uni21D2
ENCODING 8658
SWIDTH 600 0
DWIDTH 22 0
BBX 20 18 1 0
BITMAP
006000
007000
003800
001C00
000E00
FFFF00
FFFF80
0001C0
000060
000070
0001C0
FFFF80
FFFF00
000E00
001C00
003800
007000
006000
ENDCHAR
STARTCHAR uni21D3
ENCODING 8659
SWIDTH 600 0
DWIDTH 22 0
BBX 18 20 2 -1
BITMAP
041800
041800
041800
041800
041800
041800
041800
041800
041800
8418C0
C419C0
E41B80
741F00
3C1E00
1C1C00
0E3800
073000
03E000
01C000
008000
ENDCHAR
STARTCHAR uni2200
ENCODING 8704
SWIDTH 600 0
DWIDTH 22 0
BBX 19 24 3 0
BITMAP
E000E0
7000E0
7001C0
7003C0
700380
700780
700700
7FFE00
3FFE00
3FFC00
301C00
301800
383800
383000
387000
386000
38E000
18C000
19C000
198000
1B0000
1B0000
1E0000
1E0000
ENDCHAR
STARTCHAR partialdiff
ENCODING 8706
SWIDTH 600 0
DWIDTH 22 0
BBX 18 24 2 0
BITMAP
007C00
01FF00
03FF00
038780
020380
0001C0
0001C0
0001C0
0001C0
03F1C0
0FF980
3FFD80
7C1F80
700780
E00380
E00700
E00700
C00E00
E01E00
E03C00
F0F800
7FF000
7FE000
1F8000
ENDCHAR
STARTCHAR uni2203
ENCODING 8707
SWIDTH 600 0
DWIDTH 22 0
BBX 19 24 0 0
BITMAP
07FFE0
07FFE0
07FFE0
0800E0
0000E0
0000C0
0001C0
0001C0
0001C0
0001C0
07FF80
07FF80
0FFF80
000380
000380
000300
000700
000700
000700
000700
000600
FFFE00
FFFE00
FFFE00
ENDCHAR
STARTCHAR uni2206
ENCODING 8710
SWIDTH 600 0
DWIDTH 22 0
BBX 19 24 -1 0
BITMAP
000700
000F00
001F00
001B00
003B80
003380
007380
006180
00E180
01C180
01C1C0
0381C0
0301C0
0701C0
0600C0
0E00C0
1C00E0
1C00E0
3800E0
3800E0
7000E0
7FFFE0
FFFFE0
FFFFE0
ENDCHAR
STARTCHAR product
ENCODING 8719
SWIDTH 600 0
DWIDTH 22 0
BBX 18 27 2 -4
BITMAP
FFFFC0
FFFFC0
FFFFC0
E001C0
E001C0
E001C0
E001C0
E001C0
E001C0
E001C0
E001C0
E001C0
E001C0
E001C0
E001C0
E001C0
E001C0
E001C0
E001C0
E001C0
E001C0
E001C0
E001C0
E001C0
E001C0
E001C0
E001C0
ENDCHAR
STARTCHAR summation
ENCODING 8721
SWIDTH 600 0
DWIDTH 22 0
BBX 17 28 2 -5
BITMAP
7FFF00
7FFF00
7FFF00
700000
380000
1C0000
0C0000
0E0000
070000
038000
038000
01C000
00E000
007000
006000
00E000
01C000
038000
030000
070000
0E0000
1C0000
180000
380000
700000
FFFF80
FFFF80
FFFF80
ENDCHAR
ENDFONT
